<svg width="49" height="48" viewBox="0 0 49 48" fill="none" xmlns="http://www.w3.org/2000/svg">
<path d="M30.1958 31.7592C30.5913 31.2091 30.7861 30.5463 30.7502 29.8549C30.6667 28.2637 29.2957 27.0175 27.6294 27.0175H22.3779L23.7666 20.0342C24.0295 18.6931 23.648 17.3477 22.7185 16.3431C21.8015 15.3518 20.5147 14.8717 19.1765 15.0281C19.1758 15.0281 19.0952 15.0376 19.0938 15.038C17.3601 15.2474 16.8115 17.1243 16.2813 18.9392C15.7554 20.7391 15.2112 22.6002 13.6819 23.0759C12.5388 23.4316 11.7212 24.0918 11.1386 24.8709C10.7765 24.1123 10.0082 23.5831 9.11304 23.5831H3.9502C2.70947 23.5831 1.7002 24.5924 1.7002 25.8331V43.8591C1.7002 45.0998 2.70947 46.1091 3.9502 46.1091H9.11304C9.81209 46.1091 10.4298 45.782 10.8428 45.2804C10.8492 45.2871 10.8534 45.2949 10.8599 45.3016C11.5828 46.0487 12.5701 46.4852 13.5808 46.4995H16.7222C17.1367 46.4995 17.4722 46.1637 17.4722 45.7495C17.4722 45.3353 17.1367 44.9995 16.7222 44.9995H13.5918C12.9963 44.9911 12.3789 44.7142 11.938 44.2587C11.5586 43.8661 11.3543 43.3838 11.3638 42.9007C11.3638 42.8993 11.363 42.8981 11.363 42.8967V28.8834C11.383 27.8915 11.6723 25.2722 14.1272 24.5085C16.4255 23.7933 17.1441 21.3353 17.7212 19.36C18.1328 17.9501 18.5225 16.6178 19.2739 16.527C20.151 16.4046 21.0129 16.7061 21.6177 17.3616C22.2175 18.0109 22.4644 18.8795 22.2952 19.7434L20.7285 27.6213C20.6846 27.8414 20.7417 28.0696 20.8838 28.2432C21.0266 28.4167 21.239 28.5174 21.4639 28.5174H27.6294C28.4834 28.5174 29.2114 29.1525 29.2517 29.9332C29.2737 30.35 29.1287 30.7447 28.843 31.0458C28.5574 31.3472 28.1714 31.5131 27.7561 31.5131C27.3416 31.5131 27.0061 31.8489 27.0061 32.2631C27.0061 32.6772 27.3416 33.0131 27.7561 33.0131H29.0056C29.8318 33.0131 30.5034 33.6847 30.5034 34.5105C30.5034 35.3363 29.8318 36.0083 29.0056 36.0083H27.7561C27.3416 36.0083 27.0061 36.3441 27.0061 36.7583C27.0061 37.1725 27.3416 37.5083 27.7561 37.5083C28.5823 37.5083 29.2539 38.1803 29.2539 39.0061C29.2539 39.8319 28.5823 40.5039 27.7561 40.5039C27.3416 40.5039 27.0061 40.8397 27.0061 41.2539C27.0061 41.6681 27.3416 42.0039 27.7561 42.0039C28.1714 42.0039 28.5574 42.1698 28.843 42.4712C29.1287 42.7718 29.2737 43.167 29.2517 43.5834C29.2114 44.3641 28.4834 44.9995 27.6294 44.9995H20.9329C20.5183 44.9995 20.1829 45.3353 20.1829 45.7495C20.1829 46.1637 20.5183 46.4995 20.9329 46.4995H27.6294C29.2957 46.4995 30.6667 45.2529 30.7502 43.6617C30.7935 42.8304 30.5027 42.0409 29.9314 41.4388C29.8699 41.3737 29.8054 41.3118 29.7388 41.2528C30.3606 40.7031 30.7539 39.8996 30.7539 39.0061C30.7539 38.3564 30.5459 37.7544 30.1936 37.2629C31.2571 36.8019 32.0034 35.7417 32.0034 34.5105C32.0034 33.28 31.2586 32.2206 30.1958 31.7592ZM9.11304 44.6091H3.9502C3.53638 44.6091 3.2002 44.2726 3.2002 43.8591V25.8331C3.2002 25.4197 3.53638 25.0831 3.9502 25.0831H9.11304C9.52686 25.0831 9.86304 25.4197 9.86304 25.8331V43.8591C9.86304 44.2726 9.52686 44.6091 9.11304 44.6091Z" fill="#275BA6"/>
<path d="M39.1782 13.8763H37.7221C37.3076 13.8763 36.9721 14.2121 36.9721 14.6263C36.9721 15.0405 37.3076 15.3763 37.7221 15.3763H39.1782C39.6836 15.3763 39.8513 15.7726 39.8908 15.8942C39.9304 16.0157 40.0278 16.4358 39.6184 16.7331L38.4414 17.5886C37.6496 18.1639 37.3215 19.175 37.624 20.1041L38.0737 21.4884C38.2297 21.9692 37.9045 22.2519 37.8013 22.327C37.6972 22.4021 37.3274 22.624 36.9194 22.327L35.7417 21.4715C34.9521 20.8966 33.8879 20.8962 33.0969 21.4712L31.9192 22.327C31.5105 22.624 31.1421 22.4021 31.0381 22.327C30.9348 22.2519 30.6096 21.9692 30.7656 21.4884L31.2153 20.1041C31.5171 19.1739 31.189 18.1632 30.3979 17.5886L29.2202 16.7331C28.8108 16.4358 28.9082 16.0161 28.9477 15.8945C28.9873 15.7729 29.1558 15.3763 29.6611 15.3763H31.1164C32.0942 15.3763 32.9541 14.7516 33.2566 13.8218L33.7063 12.4371C33.8623 11.9563 34.2915 11.9189 34.4197 11.9189C34.5471 11.9189 34.9763 11.9563 35.1323 12.4371C35.2605 12.8308 35.6846 13.0465 36.0772 12.9187C36.4712 12.7905 36.6873 12.3676 36.5591 11.9735C36.2522 11.029 35.4121 10.4189 34.4197 10.4189C33.4265 10.4189 32.5864 11.0291 32.2795 11.9735L31.8298 13.3582C31.7295 13.668 31.4424 13.8763 31.1165 13.8763H29.6611C28.668 13.8763 27.8279 14.4865 27.521 15.4309C27.2141 16.3754 27.5349 17.3627 28.3384 17.9468L29.5161 18.8022C29.7798 18.9938 29.8896 19.3307 29.7886 19.6405L29.3389 21.0248C29.032 21.9696 29.3528 22.9569 30.1562 23.5406C30.9597 24.1255 31.999 24.124 32.801 23.5406L33.9788 22.6848C34.2424 22.4929 34.5962 22.4929 34.8598 22.6848L36.0376 23.5406C36.4397 23.8325 36.8996 23.9783 37.3603 23.9783C37.8203 23.9783 38.281 23.8325 38.6831 23.5406C39.4866 22.9569 39.8074 21.9692 39.5005 21.0248L39.0508 19.6398C38.9497 19.3307 39.0588 18.9938 39.3232 18.8022L40.5002 17.9468C41.3037 17.3627 41.6245 16.375 41.3176 15.4305C41.0107 14.4864 40.1714 13.8763 39.1782 13.8763Z" fill="#275BA6"/>
<path d="M46.6082 5.24817C46.3591 4.48059 45.6765 3.98474 44.8694 3.98474H43.8235C43.6807 3.98474 43.5554 3.89356 43.5115 3.75842L43.1885 2.76343C42.9387 1.99622 42.2561 1.5 41.4497 1.5C40.6433 1.5 39.9607 1.99585 39.711 2.76343L39.388 3.75805C39.344 3.89355 39.2188 3.98474 39.0759 3.98474H38.03C37.2229 3.98474 36.5403 4.48059 36.2913 5.24817C36.0423 6.01538 36.303 6.81775 36.9556 7.29163L37.8015 7.90649C37.9173 7.99036 37.9649 8.13757 37.9209 8.2727L37.5972 9.26843C37.3482 10.036 37.6089 10.8384 38.2622 11.3126C38.5889 11.5492 38.9624 11.6678 39.336 11.6678C39.7102 11.6675 40.0845 11.5492 40.4104 11.3119L41.2564 10.697C41.3721 10.6135 41.5281 10.6135 41.6424 10.697L42.489 11.3115C43.1402 11.7854 43.9846 11.7865 44.6372 11.3126C45.2905 10.8384 45.5513 10.036 45.3023 9.2677L44.9785 8.27308C44.9346 8.13758 44.9822 7.99037 45.0979 7.9065L45.9439 7.29164C46.5965 6.81776 46.8572 6.01538 46.6082 5.24817ZM45.062 6.07801L44.2161 6.69287C43.573 7.16016 43.3064 7.98157 43.5518 8.73706L43.8755 9.73133C43.9392 9.92871 43.8279 10.0463 43.7561 10.0986C43.6836 10.1506 43.5379 10.2199 43.3709 10.0983L42.5235 9.48341C41.8819 9.01685 41.0183 9.01685 40.3753 9.48341L39.5286 10.0986C39.3594 10.2213 39.2144 10.1503 39.1433 10.0986C39.0716 10.0463 38.9602 9.92872 39.0239 9.73206L39.3477 8.7367C39.593 7.98157 39.3264 7.16016 38.6834 6.69287L37.8374 6.07801C37.6697 5.95606 37.6902 5.79602 37.718 5.71143C37.7451 5.62684 37.8228 5.48474 38.0301 5.48474H39.0759C39.8706 5.48474 40.5694 4.97717 40.8147 4.22131L41.1377 3.22669C41.2014 3.0293 41.3604 3 41.4497 3C41.5384 3 41.6973 3.0293 41.7617 3.22632L42.0847 4.22168C42.3301 4.97717 43.0288 5.48474 43.8235 5.48474H44.8694C45.0767 5.48474 45.1543 5.62683 45.1814 5.71143C45.2093 5.79602 45.2298 5.95606 45.062 6.07801Z" fill="#275BA6"/>
<path d="M22.894 7.29162L23.74 7.90649C23.8557 7.99035 23.9033 8.13757 23.8594 8.27343L23.5364 9.26806C23.2866 10.0353 23.5474 10.8376 24.2 11.3119C24.854 11.7872 25.697 11.785 26.3496 11.3119L27.1948 10.697C27.312 10.6139 27.4658 10.6132 27.5815 10.697L28.4275 11.3119C28.7542 11.5492 29.1284 11.6678 29.5027 11.6675C29.8762 11.6675 30.2505 11.5492 30.5772 11.3119C31.2297 10.8376 31.4905 10.0353 31.2407 9.26843L30.9177 8.27306C30.8738 8.13757 30.9214 7.98998 31.0364 7.90649L31.8831 7.29162C32.5357 6.81701 32.7964 6.01501 32.5466 5.24743C32.2976 4.48022 31.615 3.98474 30.8086 3.98474H29.762C29.6199 3.98474 29.4946 3.89355 29.4507 3.75769L29.127 2.76343C28.8779 1.99585 28.1953 1.5 27.3889 1.5C26.5818 1.5 25.8992 1.99585 25.6502 2.76343L25.3264 3.75805C25.2825 3.89355 25.1572 3.98474 25.0144 3.98474H23.9685C23.1614 3.98474 22.4788 4.48059 22.2298 5.24817C21.9807 6.01538 22.2415 6.81774 22.894 7.29162ZM23.6565 5.71142C23.6836 5.62683 23.7612 5.48474 23.9685 5.48474H25.0144C25.8091 5.48474 26.5078 4.97716 26.7532 4.22204L27.0769 3.22705C27.1406 3.03002 27.2996 2.99999 27.3889 2.99999C27.4775 2.99999 27.6365 3.02929 27.7002 3.22704L28.0239 4.22167C28.2693 4.97716 28.968 5.48473 29.762 5.48473H30.8086C31.0159 5.48473 31.0928 5.62645 31.1206 5.71105C31.1477 5.79601 31.169 5.95604 31.0012 6.07799L30.1546 6.69286C29.5122 7.15978 29.2456 7.98119 29.491 8.73632L29.814 9.73168C29.8784 9.92906 29.7671 10.0463 29.6953 10.0986C29.6228 10.1503 29.4778 10.2209 29.3093 10.0983L28.4626 9.48339C28.1419 9.25011 27.7654 9.13329 27.3889 9.13329C27.0117 9.13329 26.6353 9.25011 26.3137 9.48339L25.4678 10.0983C25.3001 10.2213 25.1543 10.151 25.0818 10.0986C25.01 10.0463 24.8987 9.92907 24.9631 9.73131L25.2861 8.73668C25.5315 7.98155 25.2649 7.16014 24.6218 6.69286L23.7759 6.07799C23.6082 5.95604 23.6287 5.79602 23.6565 5.71142Z" fill="#275BA6"/>
<path d="M11.9547 13.5783C12.3934 14.017 12.9691 14.2363 13.5455 14.2363C14.1219 14.2363 14.6976 14.017 15.1364 13.5786L15.6066 13.1088C16.484 12.2313 16.484 10.8035 15.6066 9.92639L12.4037 6.72351C11.5255 5.84534 10.098 5.8468 9.22131 6.72351L8.75183 7.19336C7.87439 8.0708 7.87439 9.49829 8.75183 10.3754L11.9547 13.5783ZM9.81238 8.25391L10.2819 7.78407C10.4283 7.63795 10.6202 7.5647 10.8121 7.5647C11.0048 7.5647 11.1967 7.63795 11.3431 7.78407L14.546 10.9869C14.8383 11.2796 14.8383 11.7553 14.546 12.0479L14.0758 12.5177C13.7829 12.8099 13.3082 12.8099 13.0153 12.5177L9.81239 9.31482C9.52015 9.02222 9.52014 8.54652 9.81238 8.25391Z" fill="#275BA6"/>
<path d="M5.66424 20.1083L10.1057 20.9997C10.2543 21.0297 10.4037 21.0444 10.5524 21.0444C10.9919 21.0444 11.4211 20.9155 11.7946 20.6668C12.2956 20.3336 12.6362 19.8253 12.7541 19.2368L12.8852 18.5853C13.1291 17.3687 12.3373 16.18 11.1215 15.9361L6.68011 15.0447C5.46502 14.8023 4.2763 15.5915 4.03167 16.8084L3.9013 17.4592C3.78265 18.0488 3.9013 18.6486 4.23456 19.1492C4.56708 19.6495 5.07537 19.9901 5.66424 20.1083ZM5.37201 17.7543L5.50238 17.1036C5.57415 16.7476 5.88763 16.5008 6.23773 16.5008C6.28607 16.5008 10.8271 17.4068 10.8271 17.4068C11.2321 17.4881 11.4951 17.884 11.4145 18.2897L11.2834 18.9416C11.2438 19.1379 11.1303 19.3071 10.9641 19.418C10.7971 19.5294 10.5949 19.5693 10.4008 19.529L5.95941 18.6376C5.76312 18.5981 5.59393 18.4846 5.4826 18.3179C5.37201 18.1513 5.33245 17.9514 5.37201 17.7543Z" fill="#275BA6"/>
</svg>
