<svg width="49" height="48" viewBox="0 0 49 48" fill="none" xmlns="http://www.w3.org/2000/svg">
<path d="M30.0624 24.997C30.2047 24.8388 30.273 24.6274 30.2503 24.4159C29.8832 20.9863 27.576 18.2089 24.4857 17.1176C25.6193 16.241 26.3513 14.8689 26.3513 13.3284C26.3513 10.6879 24.203 8.53957 21.5625 8.53957C18.9219 8.53957 16.7736 10.6879 16.7736 13.3284C16.7736 14.869 17.5056 16.241 18.6392 17.1176C15.5489 18.209 13.2416 20.9863 12.8746 24.4159C12.852 24.6276 12.9202 24.8389 13.0625 24.9971C13.2048 25.1554 13.4076 25.2457 13.6203 25.2457L29.5046 25.2456C29.7173 25.2456 29.9201 25.1552 30.0624 24.997ZM18.2736 13.3283C18.2736 11.5148 19.749 10.0395 21.5625 10.0395C23.376 10.0395 24.8513 11.5148 24.8513 13.3283C24.8513 15.1412 23.3769 16.6161 21.5643 16.6172C21.5637 16.6172 21.5631 16.6172 21.5625 16.6172C21.5618 16.6172 21.5612 16.6172 21.5606 16.6172C19.7479 16.6161 18.2736 15.1412 18.2736 13.3283ZM14.5033 23.7457C15.2378 20.485 18.137 18.118 21.5605 18.1171H21.5625C21.5625 18.1171 21.5638 18.1171 21.5644 18.1171C24.9878 18.118 27.8869 20.4849 28.6215 23.7456L14.5033 23.7457ZM44.5245 33.4205C45.0557 32.3695 44.8357 31.1217 43.977 30.3157L42.945 29.3471C42.7704 29.1833 42.6725 29.0138 42.6179 28.7807L42.2952 27.4026C42.0264 26.2559 41.0558 25.4415 39.8799 25.3761L38.4669 25.2976C38.2706 25.2866 38.1116 25.2387 37.9549 25.143C38.2087 23.8892 38.3377 22.6076 38.3377 21.3259V8.36791C38.3377 8.06791 38.1589 7.7967 37.8831 7.67848L21.8579 0.810539C21.6692 0.72982 21.4556 0.72982 21.267 0.810539L5.2417 7.67848C4.96598 7.7967 4.78711 8.06782 4.78711 8.36791V21.3259C4.78711 25.8634 6.40908 30.2897 9.35414 33.7894C12.2979 37.2876 16.3807 39.6434 20.8505 40.4226L21.4337 40.5243C21.4763 40.5317 21.5193 40.5354 21.5625 40.5354C21.6056 40.5354 21.6486 40.5317 21.6912 40.5243L22.2745 40.4226C23.9447 40.1315 25.5641 39.6223 27.0974 38.908C27.3288 39.1375 27.6053 39.3282 27.9215 39.4636L28.623 39.764L26.6137 44.0802C26.469 44.3913 26.5087 44.7536 26.7171 45.0252C26.9255 45.2973 27.2641 45.4296 27.6034 45.371L29.6267 45.0175L30.6586 46.7934C30.8239 47.0778 31.1248 47.2499 31.4511 47.2499C31.4653 47.2499 31.4795 47.2496 31.4938 47.2489C31.8365 47.2332 32.1393 47.0301 32.2836 46.7196L34.2665 42.4605L34.8157 42.2944C35.0449 42.2251 35.2406 42.2251 35.4699 42.2944L36.0193 42.4605L38.0024 46.7197C38.1471 47.0303 38.4496 47.2331 38.792 47.2488C38.8063 47.2494 38.8205 47.2498 38.8347 47.2498C39.161 47.2498 39.4619 47.0777 39.6271 46.7933L40.659 45.0174L42.6827 45.3709C43.0212 45.4302 43.3603 45.2973 43.5683 45.0255C43.7773 44.753 43.8169 44.3904 43.672 44.0798L41.6625 39.7638L42.364 39.4633C43.4466 38.9997 44.0802 37.9025 43.9404 36.733L43.7724 35.3276C43.744 35.0899 43.778 34.8972 43.886 34.6834L44.5245 33.4205ZM22.0169 38.9449L21.5624 39.0242L21.108 38.9449C12.5201 37.4478 6.28702 30.0379 6.28702 21.3259V8.86244L21.5624 2.31598L36.8377 8.86244V21.3259C36.8377 22.272 36.7603 23.2177 36.61 24.1506C36.2198 23.8873 35.7817 23.7375 35.3365 23.7041C35.4617 22.884 35.5264 22.0535 35.5264 21.2236V10.1193C35.5264 9.81926 35.3476 9.54804 35.0718 9.42982L21.8579 3.76685C21.669 3.68613 21.4556 3.68613 21.267 3.76685L8.05289 9.42991C7.77717 9.54813 7.5983 9.81926 7.5983 10.1194V21.2236C7.5983 25.1 8.98589 28.8836 11.5053 31.8774C14.0236 34.87 17.514 36.8848 21.3333 37.5507L21.4336 37.5682C21.4762 37.5756 21.5192 37.5794 21.5624 37.5794C21.6055 37.5794 21.6485 37.5756 21.6911 37.5682L21.7915 37.5507C23.4164 37.2675 24.9718 36.7473 26.4324 36.0021L26.3449 36.7333C26.31 37.0256 26.3234 37.3134 26.38 37.5879C24.9913 38.226 23.5265 38.6818 22.0169 38.9449ZM26.3085 30.3157C25.4496 31.1219 25.2296 32.3696 25.761 33.4206L26.2546 34.3972C24.7918 35.2147 23.2166 35.7763 21.5625 36.0679C14.3381 34.7946 9.09839 28.5563 9.09839 21.2235V10.6138L21.5625 5.2721L34.0264 10.6138V21.2235C34.0264 22.1893 33.9315 23.156 33.7455 24.1024C33.6846 24.1408 33.6249 24.1818 33.5664 24.2255L32.4333 25.0737C32.2416 25.2171 32.0578 25.2841 31.8185 25.2975L30.4054 25.376C29.2294 25.4414 28.2589 26.2559 27.9902 27.4025L27.6675 28.7806C27.6128 29.0138 27.515 29.1832 27.3405 29.3471L26.3085 30.3157ZM31.3947 45.0748L30.6609 43.812C30.503 43.5404 30.1924 43.396 29.8833 43.45L28.4445 43.7014L29.863 40.6547L30.4981 41.6258C30.9503 42.3172 31.6715 42.7353 32.4506 42.8066L31.3947 45.0748ZM40.4022 43.45C40.0925 43.396 39.7825 43.5404 39.6246 43.812L38.8908 45.0748L37.835 42.807C38.6142 42.7355 39.335 42.317 39.7872 41.6258L40.4223 40.6546L41.8409 43.7014L40.4022 43.45ZM43.1858 32.7439L42.5472 34.0071C42.306 34.4848 42.2194 34.975 42.283 35.506L42.451 36.9113C42.5119 37.4218 42.246 37.8824 41.7734 38.0849L40.4725 38.6419C39.9807 38.8525 39.5992 39.1726 39.3064 39.6204L38.5318 40.8049C38.2503 41.2353 37.7502 41.4171 37.2585 41.2683L35.9037 40.8589C35.3915 40.7042 34.8938 40.7043 34.3816 40.8589L33.027 41.2683C32.5348 41.4172 32.035 41.2351 31.7535 40.8049L30.9789 39.6205C30.6861 39.1727 30.3047 38.8527 29.8129 38.642L28.5119 38.0849C28.0393 37.8825 27.7733 37.4219 27.8343 36.9113L28.0023 35.5059C28.0428 35.1673 28.0216 34.8454 27.9389 34.5326C27.9321 34.5042 27.924 34.476 27.9138 34.4482C27.8689 34.2995 27.8115 34.1525 27.738 34.0069L27.0995 32.7439C26.8675 32.285 26.9599 31.7614 27.3348 31.4094L28.3668 30.441C28.7569 30.0749 29.0058 29.6436 29.1278 29.1228L29.4506 27.7447C29.5679 27.2442 29.9753 26.9023 30.4886 26.8737L31.9017 26.7951C32.436 26.7654 32.9038 26.5951 33.332 26.2745L34.4651 25.4264C34.6708 25.2724 34.9067 25.1954 35.1426 25.1954C35.3785 25.1954 35.6144 25.2724 35.8201 25.4264L36.678 26.0686C36.679 26.0693 36.6799 26.0702 36.681 26.0708L36.9532 26.2745C37.3814 26.5952 37.8493 26.7653 38.3835 26.7951L39.7965 26.8737C40.3099 26.9023 40.7174 27.2442 40.8346 27.7447L41.1573 29.1228C41.2795 29.6438 41.5284 30.0749 41.9184 30.4409L42.9504 31.4094C43.3253 31.7613 43.4177 32.2851 43.1858 32.7439ZM35.1427 27.5624C32.0025 27.5624 29.4477 30.1172 29.4477 33.2574C29.4477 36.3977 32.0025 38.9524 35.1427 38.9524C38.283 38.9524 40.8377 36.3977 40.8377 33.2574C40.8377 30.1172 38.283 27.5624 35.1427 27.5624ZM35.1427 37.4524C32.8295 37.4524 30.9477 35.5706 30.9477 33.2574C30.9477 30.9442 32.8295 29.0624 35.1427 29.0624C37.4559 29.0624 39.3377 30.9442 39.3377 33.2574C39.3377 35.5706 37.4559 37.4524 35.1427 37.4524ZM37.7518 31.4332C38.0302 31.7399 38.0072 32.2143 37.7004 32.4926L34.7909 35.1329C34.6476 35.263 34.4671 35.3275 34.287 35.3275C34.0946 35.3275 33.9026 35.2539 33.7565 35.1079L32.5587 33.91C32.2658 33.617 32.2658 33.1423 32.5587 32.8493C32.8516 32.5565 33.3264 32.5565 33.6194 32.8493L34.312 33.542L36.6925 31.3819C36.9993 31.1035 37.4736 31.1265 37.7518 31.4332Z" fill="#275BA6"/>
</svg>
