<svg width="18" height="18" viewBox="0 0 18 18" fill="none" xmlns="http://www.w3.org/2000/svg">
<g clip-path="url(#clip0_4120_103144)">
<path d="M9.74724 1.54949C9.60686 1.26504 9.31717 1.08496 8.99996 1.08496C8.68276 1.08496 8.39307 1.26504 8.25269 1.54949L6.14506 5.82L1.43228 6.50481C1.11837 6.55042 0.857581 6.77029 0.75956 7.07197C0.66154 7.37364 0.743287 7.70481 0.970431 7.92622L4.38064 11.2503L3.5756 15.9441C3.52197 16.2567 3.65049 16.5727 3.90711 16.7591C4.16374 16.9456 4.50395 16.9702 4.78472 16.8226L8.99997 14.6065L13.2152 16.8226C13.496 16.9702 13.8362 16.9456 14.0928 16.7591C14.3494 16.5727 14.478 16.2567 14.4243 15.9441L13.6193 11.2503L17.0295 7.92622C17.2566 7.70481 17.3384 7.37364 17.2404 7.07197C17.1424 6.77029 16.8816 6.55042 16.5677 6.50481L11.8549 5.82L9.74724 1.54949Z" fill="#E8E8E8"/>
</g>
<defs>
<clipPath id="clip0_4120_103144">
<rect width="16.6667" height="16.6667" fill="white" transform="translate(0.664062 0.667969)"/>
</clipPath>
</defs>
</svg>
