<svg width="800" height="7" viewBox="0 0 800 7" fill="none" xmlns="http://www.w3.org/2000/svg">
<path d="M0.0395037 2.99931C5.33893 2.9069 10.6314 2.77923 16.0826 2.69051C17.3247 2.67028 17.2077 2.7005 17.7183 2.69651C18.6569 2.69021 20.2319 2.62997 20.4527 2.6253C21.8231 2.60015 21.2876 2.66999 21.472 2.66918C23.5282 2.66415 22.9363 2.60133 24.9022 2.55947C27.4622 2.50502 30.7472 2.4639 33.8316 2.41931C34.9148 2.4036 34.4326 2.48354 36.7705 2.44401C38.4266 2.41992 43.507 2.23736 45.8464 2.31681C45.8602 2.36028 45.5647 2.41211 45.4405 2.458C48.7939 2.23744 49.9941 2.21353 54.7484 2.20238C55.5006 2.20099 56.2127 2.10086 57.5377 2.11534C58.862 2.13049 58.918 2.27499 61.5813 2.244C62.5259 2.23275 63.0991 2.11744 64.5476 2.09357C68.6674 2.02193 76.5136 2.08295 79.8949 2.05808C86.5538 2.00574 90.1769 1.70863 96.0906 1.72954C96.546 1.73147 95.5456 1.91575 96.3805 1.91084C97.2224 1.90675 98.0991 1.66354 98.3061 1.65508C100.542 1.56412 105.266 1.84049 106.509 1.79139C109.532 1.66096 106.553 1.5805 110.742 1.48407C114.731 1.38677 120.237 1.68218 124.191 1.72657C128.773 1.77935 130.25 1.19649 133.7 1.76336C145.818 1.63844 157.983 1.52722 170.114 1.4079C170.079 1.55179 170.039 1.6957 169.998 1.83948C170.957 1.73536 171.917 1.62988 172.876 1.52447C172.731 1.63355 172.593 1.74252 172.449 1.85012C176.954 1.41184 180.969 1.15355 186.233 1.2392C186.336 1.24087 186.066 1.54799 186.151 1.55535C187.338 1.60704 188.664 1.36306 189.706 1.41262C192.225 1.52964 196.503 2.20014 194.62 1.36807C200.492 1.51152 207.392 1.18222 212.988 1.32357C215.41 1.38514 216.135 1.91563 217.294 1.94329C218.452 1.97046 217.863 1.51172 218.274 1.49235C220.744 1.37927 224.81 1.3781 225.238 1.90379C225.735 1.69224 226.26 1.47717 226.764 1.26258C226.469 1.84833 234.102 1.58059 236.105 1.58698C236.471 1.58835 236.522 1.85135 236.798 1.84791C239.874 1.80594 240.626 1.38766 243.262 1.23735C244.186 1.18445 242.752 1.66157 245.126 1.44937C245.333 1.43066 245.223 1.00611 248.059 0.995782C252.586 0.980955 261.246 0.767594 266.635 0.965508C267.077 0.981238 265.732 1.47015 267.752 1.35095C268.483 1.30846 268.133 0.964535 269.907 0.954924C276.78 0.912353 284.108 1.29858 291.119 0.937623C290.864 1.3436 288.366 1.80197 292.12 1.54042C292.72 1.49714 292.272 1.13596 292.541 1.12181C294.722 1.01079 296.612 1.26588 298.971 1.11994C299.668 1.07591 299.841 0.788164 300.711 0.717379C301.994 0.611868 302.562 1.02139 304.053 0.842759C306.384 0.561613 306.744 0.165759 309.634 0.928897C326.016 0.841235 342.322 0.582127 358.649 0.917643C363.369 0.682763 367.724 0.420037 372.644 0.327125C374.093 0.300056 374.37 0.852416 376.681 0.667743C377.199 0.627341 380.892 0.0305648 381.43 1.14915C382.458 1.05219 383.107 1.04864 383.99 0.988709C383.321 0.82469 382.63 0.658955 381.988 0.49349C385.715 0.670225 388.758 0.274333 392.056 0.0862155C394.485 -0.0514336 392.76 0.429668 394.25 0.381026C395.741 0.333994 396.419 0.225681 398.282 0.801435C398.886 0.526919 399.407 0.445361 400 0.445437C400.843 0.445549 401.832 0.610332 403.415 0.620899C403.705 0.62252 405.38 0.36512 406.781 0.416873C407.788 0.454194 408.087 0.8684 409.686 0.804636C409.948 0.794942 413.331 0.283168 414.407 0.237097C416.084 0.163882 418.749 0.695587 419.073 0.702137C423.786 0.797708 425.602 0.277673 428.949 1.13884C429.625 0.628939 432.418 0.333418 434.674 0.38563C437.524 0.452239 443.239 1.49507 444.018 0.401113C447.317 0.893214 446.958 0.591492 450.87 0.588108C454.43 0.584606 463.856 1.0149 466.742 0.959919C469.626 0.907004 468.221 0.306254 469.366 0.229087C471.241 0.101213 470.229 0.539415 471.512 0.536058C475.141 0.525628 478.296 0.449192 481.76 0.269079C481.946 0.575582 482.146 0.883473 482.339 1.18962C482.519 1.08807 482.697 0.986457 482.877 0.885028C483.622 0.889818 484.457 0.885497 485.147 0.896358C479.324 -0.45878 490.771 1.01218 494.208 1.05018C497.106 1.08347 501.93 0.473124 505.112 0.352719C505.884 0.322746 505.353 0.641798 505.511 0.634985C507.375 0.549666 507.657 0.332324 510.162 0.372043C511.487 0.393939 512.839 0.796969 514.13 0.808591C523.604 0.891942 532.748 0.537684 542.16 0.546252C543.761 0.54772 545.142 1.01278 546.487 1.02777C548.412 1.04932 549.627 0.682942 551.434 0.686911C553.235 0.691471 555.831 1.14256 557.053 1.08044C558.274 1.02076 556.184 0.587491 558.42 0.715204C559.447 0.773556 557.633 1.07863 558.902 1.09408C562.863 1.13913 568.452 0.789233 572.668 1.17572C572.482 1.08428 572.228 1.00141 572 0.913391C576.492 0.974411 580.461 1.21005 585.098 1.26336C586.72 1.28224 589.644 1.0438 591.238 1.05533C592.832 1.06653 593.557 1.34264 594.833 1.35653C595.358 1.36295 595.153 1.11964 595.505 1.12667C599.906 1.21869 602.322 1.65291 606.93 1.62618C623.817 1.5358 641.229 1.51127 658.377 1.52695C659.067 1.52745 659.531 1.29118 660.538 1.26606C662.089 1.22717 662.165 1.43694 662.372 1.44603C663.724 1.50385 663.172 1.30647 664.987 1.32459C668.983 1.36611 675.428 1.58917 679.41 1.61163C688.588 1.66598 696.302 1.59471 705.301 1.64049C705.95 1.64314 705.51 1.84214 706.635 1.85663C714.562 1.95871 716.24 1.8023 726.108 1.97438C735.976 2.14666 754.602 2.44359 766.153 2.58486C766.153 2.58504 766.153 2.58523 766.153 2.58541C769.789 2.48226 774.494 2.61506 778.4 2.73165C755.876 2.78322 734.325 2.67189 710.269 2.51245C684.985 2.36933 658.032 3.25456 632.41 3.17996C630.001 3.16889 629.034 2.82172 627.005 2.8932C626.662 2.90567 627.55 3.17494 626.495 3.20315C612.004 3.60342 596.553 2.95955 582.324 3.14715C578.487 3.20209 577.886 3.55826 574.512 3.65723C575.105 3.48645 575.493 3.30894 576.01 3.13836C560.608 2.6074 545.183 2.82836 529.581 2.74493C528.877 2.74026 528.787 2.35121 528.049 2.33577C526.572 2.30326 525.158 2.73223 523.868 2.74677C522.184 2.76519 521.893 2.4518 520.34 2.4708C519.582 2.48062 519.809 2.78294 518.161 2.73098C518.023 2.72652 517.933 2.4086 516.836 2.44858C513.835 2.55882 507.7 2.82605 505.215 2.90745C502.042 3.01146 499.495 2.51969 498.294 2.48631C495.051 2.39734 495.119 2.9039 492.374 2.90403C472.831 2.9091 454.148 2.30469 434.143 2.30071C432.886 2.30025 428.238 2.894 425.912 2.87036C425.133 2.86074 421.057 2.70306 420.447 2.68996C417.969 2.63994 415.828 2.27883 414.462 2.20287C411.813 2.05428 408.852 2.61814 407.41 2.67461C405.254 2.75963 401.673 2.71846 400 2.69539C399.708 2.69136 399.474 2.68789 399.316 2.68573C396.749 2.65025 397.598 1.952 395.755 2.11501C395.211 2.1637 395.781 2.69895 393.863 2.69898C392.256 2.69718 391.606 2.29422 390.509 2.2218C389.412 2.14984 387.399 2.77293 386.716 2.75729C383.141 2.67037 381.559 2.26279 377.667 2.24277C374.435 2.22752 359.497 2.51569 358.255 2.66065C352.693 3.30943 361.956 3.0185 362.479 3.04036C365.301 3.16667 364.888 3.41696 367.703 2.93955C370.222 4.41443 379 2.11636 381.25 3.86988C383.576 2.70146 385.529 3.29039 387.979 3.52609C391.365 3.85165 388.787 3.16945 391.257 3.16466C392.23 3.16338 395.052 3.69537 396.515 3.62125C397.83 3.55441 398.461 3.21762 400 3.13416C400.172 3.12483 400.355 3.11867 400.552 3.1164C404.05 3.0745 406.866 3.26501 409.805 3.75317C410.343 3.53714 410.846 3.32104 411.377 3.10509C413.406 3.33717 415.442 3.56762 417.471 3.79751C417.147 3.60918 416.822 3.41917 416.498 3.23076C417.091 3.20335 417.687 3.17751 418.28 3.15173C420.253 3.43497 422.138 3.69686 424.167 3.98878C429.679 2.90008 428.079 3.84183 431.143 3.98153C434.206 4.12103 435.979 3.493 438.345 3.48932C441.533 3.48371 442.997 3.40543 446.213 3.4492C448.076 3.47436 451.236 4.07388 448.642 3.12286C454.459 3.04531 462.424 2.78398 467.627 3.16478C469.163 3.27552 467.115 3.57164 467.377 3.60842C468.681 3.78144 469.779 3.30218 471.124 3.37043C473.36 3.48415 477.714 3.85165 479.474 3.93634C482.006 4.05853 485.988 3.44411 486.395 3.40006C488.671 3.15203 489.281 3.65644 490.012 3.6209C494.172 3.41548 495.091 3.20738 496.402 4.25993C497.479 3.80063 501.992 3.03716 503.082 3.79703C503.11 3.10998 506.857 3.22467 509.161 3.05395C509.589 3.25101 510.024 3.4465 510.452 3.64429C515.262 2.42728 524.84 3.3125 531.168 3.44075C531.326 3.4434 531.61 2.9516 532.562 3.06232C532.622 3.07137 532.524 3.292 533.163 3.32016C535.268 3.41325 543.299 3.94551 544.223 3.94623C547.625 3.95727 548.22 3.60097 550.29 3.56546C553.015 3.51822 553.409 3.83446 556.003 3.78432C557.217 3.76118 558.322 3.34721 560.232 3.40395C561.364 3.43681 561.476 3.75791 562.372 3.78198C565.56 3.86766 567.901 3.66522 570.731 4.06758C571.469 3.0678 572.821 3.80227 574.222 3.87219C579.908 4.15973 586.994 3.7293 591.873 3.80654C607.096 4.04406 620.594 4.51385 635.464 4.51612C637.88 4.51654 638.462 4.11734 640.994 4.12954C642.133 4.13543 643.306 4.40889 645.169 4.3994C646.666 4.39261 648.811 4.23927 650.68 4.22887C651.177 4.22582 651.221 4.47764 651.953 4.47381C657.501 4.44438 662.918 4.22874 668.521 4.0814C670.598 4.0273 671.882 4.31549 671.53 3.80049C672.324 3.92345 673.095 4.02837 673.84 4.14631C676.697 3.80739 679.03 4.12282 682.895 4.01366C683.311 3.99916 686.229 3.65728 687.885 3.87965C688.002 3.71422 687.745 3.57558 687.793 3.42592C689.428 3.35895 691.941 3.53754 693.045 3.55025C694.148 3.5635 694.886 3.35747 695.218 3.3549C696.481 3.34644 696.186 3.61071 696.283 3.61476C702.168 3.83394 701.549 3.68543 705.103 3.30721C705.993 3.21649 712.035 3.45176 713.257 3.17926C713.312 3.28816 712.975 3.38529 712.878 3.49042C714.693 3.50963 716.522 3.52787 718.344 3.54373C717.958 3.44669 717.494 3.34851 717.142 3.24815C720.861 3.32173 723.953 3.08783 726.996 3.09482C728.735 3.09763 728.523 3.29193 729.544 3.24634C729.744 3.23752 729.406 3.10819 729.999 3.09706C734.836 3.01026 736.956 3.1403 741.8 3.14815C744.07 3.14949 746.057 2.96485 749.313 3.07979C749.611 3.09408 752.806 3.22539 754.779 3.02108C755.407 3.08367 755.961 3.11468 756.43 3.16429C760.426 2.874 759.322 3.16064 764.725 3.1842C767.521 3.19676 776.925 3.10815 779.968 3.0848C781.781 3.06804 781.747 3.02079 782.071 3.01842C784.003 3.00668 784.004 3.04843 785.791 3.03675C787.578 3.02388 789.836 2.99027 791.672 2.9957C793.078 2.99813 791.969 3.02249 794.046 3.01083C794.476 3.00903 793.247 2.99305 795.438 2.9995C795.783 3.00282 799.282 3.00567 800 3C798.157 3.00343 792.816 3.05116 790.808 3.07699C756.228 3.51816 686.572 5.22035 649.646 5.35894C646.217 5.38516 643.974 5.05032 641.739 5.03899C639.503 5.02888 641.393 5.34548 639.365 5.33963C637.336 5.33334 635.858 5.10673 633.96 5.10268C621.167 5.07883 608.277 5.00713 595.587 5.01097C592.295 5.0114 589.665 5.35924 586.67 5.38162C585.504 5.38992 585.468 4.95716 584.64 4.96559C575.719 5.04749 567.464 5.5327 558.591 5.53482C554.906 5.53485 550.925 5.15909 547.275 5.13684C544.267 5.11777 541.148 5.40921 538.443 5.42855C536.975 5.4401 536.2 5.07232 535.669 5.04497C533.819 4.95486 534.466 5.4074 533.52 5.41172C530.913 5.42268 529.615 4.87378 527.173 4.92491C526.214 4.94553 526.337 5.30034 524.945 5.36162C523.179 5.43882 523.832 5.10697 522.571 5.09957C522.495 5.09841 522.742 5.35314 522.073 5.36614C517.767 5.45009 512.391 5.67645 508.237 5.67515C499.645 5.67478 491.165 5.18781 483.16 5.10253C481.138 5.08234 481.675 5.43376 481.033 5.45243C477.942 5.54118 476.838 5.11993 473.602 5.27927C473.064 5.30516 470.896 5.80343 468.826 5.68353C467.709 5.61888 466.44 5.31273 465.488 5.24221C464.536 5.17172 464.383 5.62773 463.238 5.63058C461.154 5.6366 461.761 5.31875 458.78 5.38082C457.579 5.40474 453.57 5.84713 450.479 5.81987C445.428 5.77555 439.167 5.38359 433.212 5.38264C431.169 5.3813 428.546 5.86212 425.378 5.87002C421.507 5.88023 414.374 5.77566 410.406 5.77036C408.378 5.76787 408.231 5.2644 407.989 5.2435C406.438 5.10377 407.065 5.66617 406.024 5.64419C404.596 5.61385 403.263 5.19895 401.965 5.17158C401.138 5.15408 401.006 5.5688 400.827 5.57203C400.55 5.57776 400.274 5.58317 400 5.5883C393.698 5.70602 388.048 5.67057 381.726 5.70993C346.346 5.93361 310.628 6.33869 275.317 5.93095C272.357 5.89802 272.246 5.42827 269.644 5.49047C267.042 5.55337 264.529 6.53584 262.39 5.4239C262.321 5.64545 262.328 5.80365 262.259 6.00517C256.883 5.66268 251.507 5.95329 246.249 5.95484C242.358 5.95763 238.907 5.89944 235.312 5.85138C232.125 5.80641 232.4 5.44968 229.642 5.89896C215.93 5.50916 202.071 5.45946 188.476 4.92702C185.288 5.57668 182.232 5.12158 177.823 4.9936C177.278 4.97705 177.862 5.21837 176.248 5.18393C174.22 5.14059 173.171 4.77691 169.757 4.77145C168.853 4.77346 162.157 5.0936 159.68 4.8786C157.203 4.66716 153.614 4.53 151.041 4.33846C151.406 4.47829 151.869 4.61369 152.276 4.75352C150.993 4.76608 149.703 4.77717 148.419 4.78863C148.233 4.62406 148.046 4.45982 147.867 4.29526C147.121 4.4448 146.376 4.59062 145.624 4.73833C144.002 3.90161 145.665 4.18667 142.056 4.3647C140.248 4.45201 138.813 4.30139 136.957 4.3672C136.288 4.39139 135.86 4.61777 135.123 4.63969C133.315 4.69243 134.368 4.38925 133.252 4.38157C132.127 4.37634 130.512 4.69787 128.497 4.52874C130.601 3.95075 124.521 4.10567 124.231 4.54682C123.507 4.54025 122.9 4.51567 122.101 4.52003C122.839 3.4093 119.049 4.17909 117.544 4.30741C116.041 4.44032 116.102 4.15273 115.75 4.16128C114.736 4.18385 115.475 4.30879 114.764 4.30617C110.058 4.28312 105.627 4.07582 100.983 4.02357C100.314 4.01571 100.907 4.1651 100.128 4.1434C99.3483 4.12129 98.601 3.97334 97.4486 3.97352C97.1393 3.97337 97.0423 4.09513 96.5605 4.09045C86.4648 3.98345 76.879 3.7995 66.5831 3.69395C65.6516 3.68475 64.9202 3.83054 63.1194 3.80347C61.3186 3.77573 58.5862 3.61823 56.3506 3.5891C55.7571 3.58106 55.5961 3.68969 54.8094 3.67751C52.1324 3.63578 49.8264 3.5282 47.0457 3.48976C42.347 3.42634 37.4274 3.42237 32.6598 3.33288C31.7559 3.31676 31.9003 3.26332 30.5968 3.23884C28.3471 3.19769 29.1937 3.27677 28.7382 3.2823C27.2482 3.29755 26.78 3.20325 25.3386 3.21478C25.1182 3.21623 25.4326 3.26908 25.2348 3.26793C22.1709 3.24131 22.01 3.14269 18.7529 3.16666C15.8564 3.09626 20.6944 3.11286 21.1912 3.08156C22.4046 3.00811 19.197 2.92238 17.3064 2.91358C15.6782 2.90318 15.6902 2.93818 15.0419 2.94027C11.6126 2.95497 6.50561 2.9746 3.89693 2.9819C2.31666 2.98784 5.16513 2.96869 4.35774 2.96991C3.55752 2.97305 3.03946 2.98119 2.21846 2.9827C1.39727 2.98219 -0.27793 3.00257 0.0395037 2.99931ZM288.144 1.96087C282.885 3.57615 268.94 3.38072 261.453 3.23479C255.242 3.10512 249.888 1.95516 251.172 3.62995C257.885 3.65109 263.316 3.48522 270.416 3.54473C271.155 3.55094 275.558 3.71818 277.09 3.74969C277.953 3.76685 277.98 4.05835 279.153 4.05757C279.409 4.05677 280.824 3.67669 281.341 3.68731C283.114 3.72183 288.387 4.3225 289.123 4.30788C291.165 4.26127 290.382 3.7976 291.263 3.71467C294.223 3.43881 294.549 4.1369 297.482 3.91399C298.007 3.87437 299.746 3.2637 301.919 3.34438C302.803 3.378 304.307 3.69701 304.983 3.68254C308.668 3.60423 312.782 3.18059 316.156 3.25181C318.922 3.31122 318.178 3.79471 319.641 3.86098C321.104 3.92593 322.87 3.36413 323.871 3.33149C325.472 3.28061 327.418 3.60253 327.914 3.59829C337.699 3.50923 346.401 3.13347 355.841 2.99584C349.43 2.76801 343.027 2.56116 336.658 2.33181C333.042 2.8427 334.842 2.36416 332.461 2.2075C330.578 2.08382 330.122 2.94261 327.646 2.84762C327.648 2.84762 327.65 2.84762 327.652 2.84762C326.375 2.79729 323.608 2.20763 320.889 2.45638C320.793 2.46583 320.55 2.90749 318.515 2.92296C313.94 2.95803 306.93 3.18062 301.782 3.0869C300.271 3.0594 300.579 2.60656 298.791 2.55183C297.488 2.51256 295.977 2.92951 293.936 2.83675C291.376 2.71783 290.148 2.01169 288.388 2.99612C288.243 2.64508 288.316 2.30267 288.144 1.96087ZM146.734 2.88046C146.375 2.85128 141.559 2.16195 142.987 2.9055C149.46 3.23156 156.458 3.07267 163.269 3.27709C160.943 2.45961 157.009 2.7938 152.234 2.85024C152.232 2.85025 152.23 2.85025 152.228 2.85025C152.002 2.85323 152.945 2.64934 151.663 2.68803C151.042 2.7081 148.66 3.01515 146.734 2.88046Z" fill="#51AF5B" fill-opacity="0.5"/>
</svg>
