<svg width="800" height="7" viewBox="0 0 800 7" fill="none" xmlns="http://www.w3.org/2000/svg">
<path d="M0.0395037 0.494825C5.33893 0.0833917 10.6314 -0.0782986 16.0826 0.121691C17.3247 0.166945 17.2077 0.491259 17.7183 0.545165C18.6569 0.644545 20.2319 0.299139 20.4527 0.29991C21.8231 0.299527 21.2876 0.864379 21.472 0.886711C23.5282 1.12155 22.9363 0.475404 24.9022 0.419273C27.4622 0.346017 30.7472 0.470423 33.8316 0.510352C34.9148 0.525958 34.4326 0.951417 36.7705 0.921236C38.4266 0.899498 43.507 0.430484 45.8464 0.951715C45.8602 1.14615 45.5647 1.36014 45.4405 1.56061C48.7939 0.757201 49.9941 0.798389 54.7484 1.00595C55.5006 1.03858 56.2127 0.710272 57.5377 0.835558C58.862 0.960834 58.918 1.4687 61.5813 1.46793C62.5259 1.46643 63.0991 1.11074 64.5476 1.09899C68.6674 1.0653 76.5136 1.52281 79.8949 1.54399C86.5538 1.58672 90.1769 0.999456 96.0906 1.22034C96.546 1.23627 95.5456 1.61459 96.3805 1.62378C97.2224 1.63279 98.0991 1.13137 98.3061 1.12006C100.542 0.99685 105.266 1.67899 106.509 1.5998C109.532 1.40816 106.553 1.18145 110.742 1.09728C114.731 1.01842 120.237 1.67619 124.191 1.80792C128.773 1.9607 130.25 1.03979 133.7 2.01093C145.818 1.97569 157.983 1.96373 170.114 1.93863C170.079 2.12455 170.039 2.31056 169.998 2.49651C170.957 2.36911 171.917 2.24184 172.876 2.1165C172.731 2.25435 172.593 2.39242 172.449 2.52899C176.954 2.0018 180.969 1.73892 186.233 1.89388C186.336 1.8968 186.066 2.26179 186.151 2.27136C187.338 2.34202 188.664 2.06352 189.706 2.13141C192.225 2.29455 196.503 3.09029 194.62 2.12078C200.492 2.32954 207.392 2.01699 212.988 2.2116C215.41 2.29521 216.135 2.85792 217.294 2.89138C218.452 2.92466 217.863 2.44214 218.274 2.42419C220.744 2.32079 224.81 2.34782 225.238 2.88357C225.735 2.67014 226.26 2.45445 226.764 2.24032C226.469 2.83325 234.102 2.59756 236.105 2.61512C236.471 2.61826 236.522 2.87587 236.798 2.87352C239.874 2.84372 240.626 2.44228 243.262 2.31336C244.186 2.26782 242.752 2.71642 245.126 2.52524C245.333 2.50849 245.223 2.10378 248.059 2.11174C252.586 2.12329 261.246 1.98232 266.635 2.18787C267.077 2.20388 265.732 2.63354 267.752 2.53586C268.483 2.5012 268.133 2.19458 269.907 2.19526C276.78 2.19614 284.108 2.55371 291.119 2.27918C290.864 2.61625 288.366 2.99264 292.12 2.78516C292.72 2.75097 292.272 2.44916 292.541 2.43836C294.722 2.35503 296.612 2.57237 298.971 2.46088C299.668 2.42734 299.841 2.19284 300.711 2.13897C301.994 2.05893 302.562 2.39376 304.053 2.25478C306.384 2.03606 306.744 1.72367 309.634 2.34546C326.016 2.33242 342.322 2.19847 358.649 2.48492C363.369 2.32536 367.724 2.14883 372.644 2.09637C374.093 2.08129 374.37 2.47426 376.681 2.34847C377.199 2.32035 380.892 1.90995 381.43 2.69788C382.458 2.6315 383.107 2.63023 383.99 2.58982C383.321 2.47358 382.63 2.35577 381.988 2.23793C385.715 2.37046 388.758 2.09984 392.056 1.97789C394.485 1.88847 392.76 2.21771 394.25 2.18732C395.741 2.15783 396.419 2.08535 398.282 2.48551C399.745 2.03069 400.717 2.35378 403.415 2.3706C403.705 2.37214 405.38 2.19923 406.781 2.23728C407.788 2.26468 408.087 2.54745 409.686 2.50642C409.948 2.49997 413.331 2.15811 414.407 2.12918C416.084 2.08299 418.749 2.4463 419.073 2.45094C423.786 2.52134 425.602 2.17633 428.949 2.75603C429.625 2.41572 432.418 2.2226 434.674 2.26037C437.524 2.30945 443.239 3.00454 444.018 2.28183C447.317 2.61043 446.958 2.41051 450.87 2.41199C454.43 2.41348 463.856 2.70169 466.742 2.6667C469.626 2.63351 468.221 2.24046 469.366 2.19075C471.241 2.10841 470.229 2.39384 471.512 2.39231C475.141 2.38732 478.296 2.33874 481.76 2.22267C481.946 2.42221 482.146 2.62264 482.339 2.8219C482.519 2.75585 482.697 2.68977 482.877 2.62382C483.622 2.62711 484.457 2.62448 485.147 2.63168C479.324 1.74874 490.771 2.7085 494.208 2.73271C497.106 2.75448 501.93 2.35756 505.112 2.27851C505.884 2.25886 505.353 2.46645 505.511 2.46199C507.375 2.40612 507.657 2.26468 510.162 2.28973C511.487 2.30352 512.839 2.56545 514.13 2.5726C523.604 2.6238 532.748 2.38622 542.16 2.38108C543.761 2.38018 545.142 2.68603 546.487 2.69474C548.412 2.70722 549.627 2.46292 551.434 2.46313C553.235 2.46363 555.831 2.76098 557.053 2.71823C558.274 2.67681 556.184 2.39027 558.42 2.47236C559.447 2.50995 557.633 2.71638 558.902 2.72509C562.863 2.75111 568.452 2.50586 572.668 2.76103C572.482 2.69921 572.228 2.64337 572 2.58403C576.492 2.61738 580.461 2.77155 585.098 2.8003C586.72 2.81068 589.644 2.63933 591.238 2.64353C592.832 2.64764 593.557 2.83932 594.833 2.84664C595.358 2.85011 595.153 2.67966 595.505 2.68379C599.906 2.73764 602.322 3.04131 606.93 3.01362C623.817 2.91459 641.229 2.84207 658.377 2.77243C659.067 2.76965 659.531 2.56973 660.538 2.54251C662.089 2.50038 662.165 2.67731 662.372 2.68396C663.724 2.72567 663.172 2.56113 664.987 2.56542C668.983 2.57524 675.428 2.73199 679.41 2.72782C688.588 2.71877 696.302 2.58759 705.301 2.53778C705.95 2.53363 705.51 2.75263 706.635 2.75793C714.562 2.79739 716.24 2.59463 726.108 2.6765C735.976 2.75849 754.602 2.92256 766.153 2.97174C766.153 2.9722 766.153 2.97266 766.153 2.97311C769.789 2.61668 774.494 2.72336 778.4 2.99931C755.876 3.84489 734.325 3.45295 710.269 3.45521C684.985 3.45894 658.032 4.23075 632.41 4.13745C630.001 4.1276 629.034 3.86499 627.005 3.91964C626.662 3.92898 627.55 4.13184 626.495 4.15267C612.004 4.43842 596.553 3.96766 582.324 4.10124C578.487 4.1386 577.886 4.38204 574.512 4.4474C575.105 4.33148 575.493 4.21064 576.01 4.09437C560.608 3.73319 545.183 3.88824 529.581 3.83293C528.877 3.82991 528.787 3.57518 528.049 3.56524C526.572 3.54432 525.158 3.82502 523.868 3.83454C522.184 3.84666 521.893 3.64207 520.34 3.65468C519.582 3.66117 519.809 3.85839 518.161 3.82457C518.023 3.82167 517.933 3.61437 516.836 3.64056C513.835 3.71282 507.7 3.88691 505.215 3.93982C502.042 4.00744 499.495 3.6878 498.294 3.66612C495.051 3.60832 495.119 3.93753 492.374 3.93762C472.831 3.94148 454.148 3.54577 434.143 3.5345C432.886 3.53338 428.238 3.92868 425.912 3.91313C425.133 3.90673 421.057 3.8003 420.447 3.79125C417.969 3.75728 415.828 3.51256 414.462 3.46027C411.813 3.35783 408.852 3.73953 407.41 3.7781C404.877 3.8457 400.38 3.79414 399.316 3.78377C396.749 3.75882 397.598 3.27739 395.755 3.38856C395.211 3.42186 395.781 3.79194 393.863 3.79156C392.256 3.79002 391.606 3.51009 390.509 3.45891C389.412 3.40779 387.399 3.84119 386.716 3.83043C383.141 3.76915 381.559 3.48185 377.667 3.46452C374.435 3.45046 359.497 3.64651 358.255 3.75294C352.693 4.22533 361.956 4.0132 362.479 4.02919C365.301 4.12057 364.888 4.29951 367.703 3.95663C370.222 5.00891 379 3.37488 381.25 4.61213C383.576 3.7889 385.529 4.20449 387.979 4.36696C391.365 4.59208 388.787 4.11809 391.257 4.11439C392.23 4.11373 395.052 4.48112 396.515 4.42884C397.977 4.37672 398.593 4.09556 400.552 4.07998C404.05 4.05088 406.866 4.1818 409.805 4.51235C410.343 4.36511 410.846 4.21808 411.377 4.07137C413.406 4.22885 415.442 4.38425 417.471 4.53843C417.147 4.41145 416.822 4.28321 416.498 4.15594C417.091 4.13733 417.687 4.11981 418.28 4.10236C420.253 4.29323 422.138 4.46879 424.167 4.66354C429.679 3.93144 428.079 4.56373 431.143 4.65489C434.206 4.74606 435.979 4.32746 438.345 4.32473C441.533 4.32025 442.997 4.26822 446.213 4.29657C448.076 4.31294 451.236 4.70735 448.642 4.08099C454.459 4.02929 462.424 3.85891 467.627 4.10766C469.163 4.17991 467.115 4.37351 467.377 4.39754C468.681 4.51034 469.779 4.19723 471.124 4.24173C473.36 4.31584 477.714 4.5548 479.474 4.60967C482.006 4.68877 485.988 4.28877 486.395 4.26017C488.671 4.09883 489.281 4.42679 490.012 4.40364C494.172 4.26999 495.091 4.1348 496.402 4.81888C497.479 4.52038 501.992 4.02413 503.082 4.51818C503.11 4.07152 506.857 4.14615 509.161 4.03511C509.589 4.16333 510.024 4.29056 510.452 4.41933C515.262 3.6274 524.84 4.20309 531.168 4.28892C531.326 4.2907 531.61 3.96828 532.562 4.04088C532.622 4.04682 532.524 4.19153 533.163 4.21008C535.268 4.27088 543.299 4.62378 544.223 4.62519C547.625 4.63414 548.22 4.39837 550.29 4.37535C553.015 4.34472 553.409 4.55531 556.003 4.52321C557.217 4.50848 558.322 4.23221 560.232 4.27056C561.364 4.29285 561.476 4.50824 562.372 4.52491C565.56 4.58452 567.901 4.44867 570.731 4.72334C571.469 4.04633 572.821 4.54444 574.222 4.59351C579.908 4.79465 586.994 4.50605 591.873 4.56318C607.096 4.74082 620.594 5.11182 635.464 5.16826C637.88 5.17744 638.462 4.86913 640.994 4.88522C642.133 4.89274 643.306 5.11193 645.169 5.11168C646.666 5.11209 648.811 4.99703 650.68 4.99496C651.177 4.99419 651.221 5.1986 651.953 5.19875C657.501 5.19968 662.918 5.04578 668.521 4.94039C670.598 4.90134 671.882 5.16139 671.53 4.70573C672.324 4.81676 673.095 4.91295 673.84 5.0217C676.697 4.73122 679.03 5.02535 682.895 4.94607C683.311 4.9363 686.229 4.62451 687.885 4.8442C688.002 4.6859 687.745 4.55188 687.793 4.40854C689.428 4.34723 691.941 4.52738 693.045 4.54464C694.148 4.56196 694.886 4.35824 695.218 4.35613C696.481 4.35026 696.186 4.61678 696.283 4.62113C702.168 4.86933 701.549 4.7258 705.103 4.32993C705.993 4.23102 712.035 4.51255 713.257 4.20526C713.312 4.33016 712.975 4.44034 712.878 4.55977C714.693 4.59015 716.522 4.62105 718.344 4.65079C717.958 4.53232 717.494 4.41353 717.142 4.29382C720.861 4.39465 723.953 4.11449 726.996 4.12349C728.735 4.12879 728.523 4.38664 729.544 4.32976C729.744 4.31853 729.406 4.14468 729.999 4.13059C734.836 4.01706 736.956 4.19949 741.8 4.23085C744.07 4.2454 746.057 3.93871 749.313 4.13936C749.611 4.15877 752.806 4.42527 754.779 4.04055C755.407 4.16162 755.961 4.22489 756.43 4.32624C760.426 3.75736 759.322 4.31523 764.725 4.4398C767.521 4.50457 776.925 4.39862 779.968 4.33923C781.781 4.30261 781.747 4.09033 782.071 4.08175C784.003 4.03269 784.004 4.23779 785.791 4.20331C787.578 4.16858 789.836 3.93877 791.672 3.96021C793.078 3.97643 791.969 4.22683 794.046 4.13911C794.476 4.12023 793.247 3.90848 795.438 3.99157C795.783 4.0048 799.282 4.23156 800 4.27968C798.157 4.41148 792.816 4.59027 790.808 4.64763C756.228 5.62963 686.572 5.95632 649.646 5.90291C646.217 5.90015 643.974 5.6214 641.739 5.60173C639.503 5.5824 641.393 5.84026 639.365 5.82422C637.336 5.80755 635.858 5.62482 633.96 5.61312C621.167 5.53461 608.277 5.44154 595.587 5.41312C592.295 5.40574 589.665 5.64173 586.67 5.64921C585.504 5.65192 585.468 5.35275 584.64 5.35694C575.719 5.39669 567.464 5.70925 558.591 5.69509C554.906 5.68874 550.925 5.43343 547.275 5.41504C544.267 5.39931 541.148 5.58851 538.443 5.59844C536.975 5.60453 536.2 5.3621 535.669 5.34375C533.819 5.28318 534.466 5.58083 533.52 5.58285C530.913 5.58771 529.615 5.22723 527.173 5.25943C526.214 5.27241 526.337 5.50454 524.945 5.54371C523.179 5.59306 523.832 5.37663 522.571 5.37115C522.495 5.37035 522.742 5.53685 522.073 5.54496C517.767 5.59738 512.391 5.74241 508.237 5.74039C499.645 5.7376 491.165 5.42172 483.16 5.36802C481.138 5.35535 481.675 5.58396 481.033 5.5963C477.942 5.65514 476.838 5.3811 473.602 5.48626C473.064 5.5033 470.896 5.82946 468.826 5.75252C467.709 5.711 466.44 5.51169 465.488 5.4661C464.536 5.42053 464.383 5.71889 463.238 5.72159C461.154 5.72707 461.761 5.51841 458.78 5.56119C457.579 5.57757 453.57 5.87148 450.479 5.85703C445.428 5.83343 439.167 5.58098 433.212 5.58719C431.169 5.58855 428.546 5.91321 425.378 5.92398C421.507 5.93717 414.374 5.87937 410.406 5.88338C408.378 5.88572 408.231 5.54288 407.989 5.52901C406.438 5.43617 407.065 5.81883 406.024 5.80585C404.596 5.78803 403.263 5.50643 401.965 5.48967C401.138 5.47898 401.006 5.76402 400.827 5.76661C394.189 5.8744 388.323 5.8603 381.726 5.90574C346.346 6.14279 310.628 6.64167 275.317 6.54811C272.357 6.54062 272.246 6.12903 269.644 6.19942C267.042 6.26754 264.529 7.17145 262.39 6.18571C262.321 6.38594 262.328 6.52858 262.259 6.7109C256.883 6.44226 251.507 6.74854 246.249 6.80008C242.358 6.83801 238.907 6.81499 235.312 6.80221C232.125 6.78992 232.4 6.42926 229.642 6.90597C215.93 6.64776 202.071 6.75816 188.476 6.28117C185.288 7.088 182.232 6.59303 177.823 6.48255C177.278 6.46868 177.862 6.76182 176.248 6.74084C174.22 6.71528 173.171 6.26603 169.757 6.29785C168.853 6.30582 162.157 6.82628 159.68 6.57299C157.203 6.3189 153.614 6.173 151.041 5.92701C151.406 6.12414 151.869 6.31232 152.276 6.50611C150.993 6.54307 149.703 6.57893 148.419 6.61612C148.233 6.37838 148.046 6.14032 147.867 5.9009C147.121 6.12902 146.376 6.35478 145.624 6.58667C144.002 5.36315 145.665 5.75927 142.056 6.07692C140.248 6.23531 138.813 6.02258 136.957 6.1512C136.288 6.19847 135.86 6.56357 135.123 6.61192C133.315 6.72866 134.368 6.22419 133.252 6.22904C132.127 6.23523 130.512 6.792 128.497 6.55017C130.601 5.55874 124.521 5.88989 124.231 6.6619C123.507 6.66501 122.9 6.63433 122.101 6.65798C122.839 4.7073 119.049 6.09574 117.544 6.36822C116.041 6.63923 116.102 6.1127 115.75 6.13381C114.736 6.19296 115.475 6.41038 114.764 6.41922C110.058 6.47353 105.627 6.15882 100.983 6.13704C100.314 6.13403 100.907 6.43442 100.128 6.4064C99.3483 6.37832 98.601 6.07912 97.4486 6.10194C97.1393 6.10777 97.0423 6.37362 96.5605 6.37485C86.4648 6.3838 76.879 6.17293 66.5831 6.15542C65.6516 6.1539 64.9202 6.64036 63.1194 6.62764C61.3186 6.61497 58.5862 6.18073 56.3506 6.15025C55.7571 6.142 55.5961 6.54955 54.8094 6.54043C52.1324 6.50905 49.8264 6.18065 47.0457 6.13086C42.347 6.04677 37.4274 6.30764 32.6598 6.07102C31.7559 6.02693 31.9003 5.68052 30.5968 5.58448C28.3471 5.41865 29.1937 5.92359 28.7382 5.99209C27.2482 6.21379 26.78 5.54086 25.3386 5.71607C25.1182 5.74322 25.4326 6.14282 25.2348 6.14941C22.1709 6.22486 22.01 5.28412 18.7529 5.7934C15.8564 5.25474 20.6944 5.0646 21.1912 4.77765C22.4046 4.07972 19.197 3.25947 17.3064 2.99297C15.6782 2.76395 15.6902 3.20024 15.0419 3.20011C11.6126 3.19933 6.50561 3.28022 3.89693 3.06941C2.31666 2.94264 5.16513 2.76159 4.35774 2.6162C3.55752 2.47071 3.03946 2.80151 2.21846 2.4384C1.39727 2.07549 -0.27793 1.0041 0.0395037 0.494825ZM288.144 3.12648C282.885 4.47162 268.94 4.34512 261.453 4.2123C255.242 4.1052 249.888 3.02332 251.172 4.58769C257.885 4.5938 263.316 4.43591 270.416 4.48003C271.155 4.48492 275.558 4.62453 277.09 4.64864C277.953 4.66206 277.98 4.91362 279.153 4.90999C279.409 4.90836 280.824 4.57934 281.341 4.58798C283.114 4.61673 288.387 5.11257 289.123 5.09672C291.165 5.05202 290.382 4.66677 291.263 4.5961C294.223 4.36314 294.549 4.9407 297.482 4.75089C298.007 4.7168 299.746 4.21486 301.919 4.27998C302.803 4.30703 304.307 4.56378 304.983 4.551C308.668 4.48202 312.782 4.14266 316.156 4.19833C318.922 4.24402 318.178 4.62328 319.641 4.67314C321.104 4.72128 322.87 4.28223 323.871 4.25692C325.472 4.21703 327.418 4.46394 327.914 4.45995C337.699 4.38134 346.401 4.09644 355.841 3.99696C349.43 3.83034 343.027 3.67422 336.658 3.49489C333.042 3.8788 334.842 3.51832 332.461 3.39613C330.578 3.29906 330.122 3.95565 327.646 3.88279C327.648 3.88279 327.65 3.88279 327.652 3.88279C326.375 3.84471 323.608 3.38569 320.889 3.57608C320.793 3.58336 320.55 3.9275 318.515 3.93962C313.94 3.96551 306.93 4.14499 301.782 4.07067C300.271 4.04861 300.579 3.6794 298.791 3.63294C297.488 3.59914 295.977 3.94161 293.936 3.86473C291.376 3.76678 290.148 3.17124 288.388 3.99674C288.243 3.70177 288.316 3.41413 288.144 3.12648ZM146.734 3.82335C146.375 3.78699 141.559 2.72734 142.987 3.85703C149.46 4.3466 156.458 4.10272 163.269 4.37207C160.943 3.27588 157.009 3.7048 152.234 3.78592C152.232 3.78592 152.23 3.78591 152.228 3.78591C152.002 3.7896 152.945 3.50059 151.663 3.55251C151.042 3.57755 148.66 4.0218 146.734 3.82335Z" fill="#51AF5B" fill-opacity="0.5"/>
</svg>
