<svg width="18" height="18" viewBox="0 0 18 18" fill="none" xmlns="http://www.w3.org/2000/svg">
<path d="M7.10999 8.36241C7.29749 8.44491 7.4925 8.49743 7.6875 8.54243V15.6824C7.5675 15.6524 7.44752 15.6074 7.33502 15.5549L2.83502 13.5524C2.02502 13.1924 1.5 12.3899 1.5 11.4974V6.50242C1.5 6.29992 1.52999 6.09742 1.58249 5.90992L7.10999 8.36241ZM14.3475 4.91991C14.1525 4.72491 13.9275 4.55991 13.665 4.44741L9.16498 2.44492C8.57998 2.18242 7.92002 2.18242 7.33502 2.44492L2.83502 4.44741C2.57252 4.55991 2.3475 4.72491 2.1525 4.91991L7.55997 7.32741C7.99497 7.52241 8.49753 7.52241 8.94003 7.32741L14.3475 4.91991ZM9.41922 12.1319C9.69522 10.1962 11.3917 8.69616 13.3455 8.62791C13.8225 8.61141 14.277 8.67217 14.703 8.80417C14.8508 8.84992 15 8.74941 15 8.59491V6.50242C15 6.29992 14.97 6.09742 14.9175 5.90992L9.39002 8.36241C9.20252 8.43741 9.0075 8.49743 8.8125 8.54243V15.6824C8.82675 15.6914 8.82672 15.6914 8.84097 15.7004L9.89401 15.2272C10.0193 15.1709 10.0605 15.0187 9.98776 14.9017C9.49726 14.1127 9.27222 13.1609 9.41922 12.1319ZM16.5 12.7499C16.5 14.4074 15.1575 15.7499 13.5 15.7499C11.8425 15.7499 10.5 14.4074 10.5 12.7499C10.5 11.0924 11.8425 9.74991 13.5 9.74991C15.1575 9.74991 16.5 11.0924 16.5 12.7499ZM14.7 11.8574C14.5575 11.7149 14.3175 11.7149 14.175 11.8574L13.185 12.8399L12.825 12.4874C12.6825 12.3374 12.4425 12.3374 12.3 12.4874C12.15 12.6299 12.15 12.8699 12.3 13.0124L12.9225 13.6424C12.99 13.7099 13.0875 13.7474 13.185 13.7474C13.29 13.7474 13.38 13.7099 13.455 13.6424L14.7 12.3899C14.85 12.2399 14.85 12.0074 14.7 11.8574Z" fill="#4BB543"/>
</svg>
