<svg width="350" height="132" viewBox="0 0 350 132" fill="none" xmlns="http://www.w3.org/2000/svg">
<path d="M214.419 31.5983H348.725L349.411 29.1055H215.105L214.419 31.5983Z" fill="white"/>
<path d="M170.231 95.977H1.27344L17.1035 33.9033H171.914L162.877 66.6853H180.265L170.231 95.977Z" fill="white"/>
<path d="M348.04 33.9043L332.21 95.9779H184.754L224.391 42.9412H204.386L208.437 33.9043H348.04Z" fill="#4086E1"/>
<path d="M346.98 38.1416L333.331 91.7392H133.212L146.861 38.1416H346.98Z" fill="white"/>
<path d="M2.33301 91.7392H177.523L191.172 38.1416H15.9819L2.33301 91.7392Z" fill="#4086E1"/>
<path d="M180.266 66.6857H162.878L181.264 0H223.892L222.459 3.11612L204.386 42.9406H224.391L157.83 132L180.266 66.6857Z" fill="#17181D"/>
<path d="M170.48 108.13L216.038 47.1163H197.839L217.409 4.17578H184.44L168.423 62.51H186.122L170.48 108.13Z" fill="#FFD31A"/>
<path d="M42.2831 12.9014H142.374L137.201 31.5981H37.1104L42.2831 12.9014Z" fill="white"/>
<path d="M49.3251 25.8638H52.4413L52.0049 27.6088H46.5205L49.2627 16.8893H51.631L49.3251 25.8638ZM55.5574 16.8893H57.9257L55.1835 27.6088H52.8152L55.5574 16.8893ZM58.8605 27.6088H56.7415L59.4838 16.8893H62.1011L62.2881 22.997L65.6536 16.8893H68.2712L65.529 27.6088H63.4101L65.2797 20.3793L62.6621 25.2405H60.8546L60.73 20.3793L58.8602 27.5464L58.8605 27.6088ZM69.8917 16.8893H72.26L69.5178 27.6088H67.1494L69.8917 16.8893ZM79.5519 16.8893L79.1156 18.6343H77.1211L74.8153 27.6088H72.3845L74.6904 18.6343H72.7585L73.1948 16.8893H79.5519ZM80.4867 25.8638H83.9145L83.4782 27.6088H77.6198L80.362 16.8893H86.0956L85.6592 18.6343H82.3562L81.6705 21.2517H84.4751L84.0388 22.9968H81.2342L80.4864 25.8014L80.4867 25.8638ZM87.4045 16.8893H91.8918C93.3253 16.8893 93.8862 17.5126 93.5746 18.7589L91.7672 25.739C91.4557 26.9855 90.5831 27.6085 89.1496 27.6085H84.6623L87.4045 16.8893ZM89.399 25.5523L91.0815 18.9461C91.1439 18.6346 91.0191 18.5098 90.7076 18.5098H89.399L87.4669 25.9262H88.7759C89.0874 25.9262 89.2744 25.8016 89.3368 25.4899L89.399 25.5523ZM100.617 16.8893H102.861C104.294 16.8893 104.855 17.5126 104.481 18.7589L102.674 25.739C102.362 26.9855 101.489 27.6085 100.056 27.6085H97.8123C96.3788 27.6085 95.8179 26.9853 96.1296 25.739L97.9371 18.7589C98.2486 17.5123 99.1213 16.8893 100.555 16.8893H100.617ZM100.368 25.4277L101.988 19.0709C102.05 18.7591 101.926 18.6346 101.676 18.6346H100.866C100.555 18.6346 100.368 18.7591 100.305 19.0709L98.6851 25.4277C98.6227 25.7392 98.7473 25.864 99.0591 25.864H99.8693C100.181 25.864 100.368 25.7395 100.43 25.4277H100.368ZM111.773 18.6343H108.407L107.659 21.5635H110.464L110.028 23.2461H107.223L106.101 27.6088H103.671L106.413 16.8893H112.209L111.773 18.6343ZM118.504 18.6343H115.138L114.39 21.5635H117.195L116.759 23.2461H113.954L112.832 27.6088H110.402L113.144 16.8893H118.94L118.504 18.6343ZM119.999 25.8016H123.427L122.991 27.5466H117.133L119.875 16.8271H125.609L125.172 18.5722H121.869L121.183 21.1898H123.988L123.552 22.9348H120.747L119.999 25.7395V25.8016ZM127.478 23.5579L126.419 27.5466H124.05L126.792 16.8271H131.217C132.651 16.8271 133.212 17.4504 132.838 18.697L132.09 21.6885C131.84 22.6857 131.217 23.2466 130.282 23.496L131.092 27.6093H128.537L127.914 23.6205H127.478V23.5579H127.478ZM128.725 18.6343L127.914 21.875H129.223C129.41 21.875 129.473 21.875 129.597 21.8129C129.66 21.7505 129.722 21.6259 129.784 21.5011L130.407 19.0706C130.47 18.7589 130.345 18.6343 130.096 18.6343H128.787H128.725Z" fill="#17181D"/>
<path d="M0.588867 102.584H161.818L162.504 100.091H1.27454L0.588867 102.584Z" fill="#4086E1"/>
<path d="M43.2432 48.3027H59.8427V54.1014H49.4679V61.0673H58.1011V66.8844H49.4679V79.649H43.2432V48.3027Z" fill="#17181D"/>
<path d="M62.3252 79.649V48.3027H68.5498V73.8504H77.183V79.649H62.3252Z" fill="#17181D"/>
<path d="M85.5383 73.2946L84.2786 79.649H77.9795L84.0563 48.3027H92.3375L98.3957 79.649H92.0782L90.8555 73.2946H85.5383ZM86.668 67.496H89.7064L88.1873 54.1386L86.668 67.496Z" fill="#17181D"/>
<path d="M112.569 54.1011H106.677V59.0476C106.677 60.3938 107.659 61.067 109.623 61.067C112.192 61.067 114.335 61.7525 116.052 63.1236C117.879 64.581 118.793 66.5078 118.793 68.9037V75.3692C118.793 76.5548 118.336 77.5678 117.422 78.4076C116.521 79.2351 115.446 79.6487 114.199 79.6487H105.047C103.799 79.6487 102.725 79.2351 101.823 78.4076C100.909 77.5678 100.452 76.5548 100.452 75.3692V69.0519H106.677V73.8501H112.568V68.9034C112.568 67.5574 111.587 66.8842 109.623 66.8842C107.054 66.8842 104.911 66.1988 103.194 64.8277C101.366 63.3705 100.452 61.4436 100.452 59.0476V52.582C100.452 51.3964 100.909 50.3839 101.823 49.5439C102.724 48.7166 103.799 48.3027 105.047 48.3027H114.199C115.446 48.3027 116.521 48.7166 117.422 49.5439C118.336 50.3839 118.793 51.3964 118.793 52.582V58.8808H112.569V54.1011Z" fill="#17181D"/>
<path d="M129.075 66.8844V79.649H122.851V48.3027H129.075V61.0673H134.967V48.3027H141.191V79.649H134.967V66.8844H129.075Z" fill="#17181D"/>
<path d="M245.189 55.0359H239.297V59.9824C239.297 61.3286 240.279 62.0019 242.243 62.0019C244.812 62.0019 246.955 62.6873 248.672 64.0582C250.499 65.5156 251.413 67.4424 251.413 69.8382V76.3038C251.413 77.4894 250.956 78.5024 250.043 79.3421C249.141 80.1697 248.066 80.5833 246.819 80.5833H237.667C236.419 80.5833 235.345 80.1697 234.443 79.3421C233.529 78.5024 233.072 77.4894 233.072 76.3038V69.9865H239.297V74.7847H245.188V69.838C245.188 68.492 244.207 67.8188 242.243 67.8188C239.674 67.8188 237.531 67.1333 235.814 65.7622C233.986 64.3051 233.072 62.3782 233.072 59.9821V53.5166C233.072 52.331 233.529 51.3185 234.443 50.4785C235.345 49.6512 236.419 49.2373 237.667 49.2373H246.819C248.066 49.2373 249.141 49.6512 250.043 50.4785C250.956 51.3185 251.413 52.331 251.413 53.5166V59.8154H245.189V55.0359Z" fill="#17181D"/>
<path d="M261.251 74.2292L259.991 80.5836H253.692L259.769 49.2373H268.05L274.109 80.5836H267.791L266.568 74.2292H261.251ZM262.381 68.4303H265.419L263.9 55.073L262.381 68.4303Z" fill="#17181D"/>
<path d="M276.684 80.5833V49.2373H282.908V74.785H291.542V80.5836L276.684 80.5833Z" fill="#17181D"/>
<path d="M300.341 74.7847H310.716V80.5833H294.116V49.2373H310.716V55.0359H300.341V62.0019H308.974V67.819H300.341V74.7847Z" fill="#17181D"/>
</svg>
