<svg width="48" height="48" viewBox="0 0 48 48" fill="none" xmlns="http://www.w3.org/2000/svg">
<g clip-path="url(#clip0_757_45466)">
<path d="M43.1803 37.4856C42.8147 37.323 42.3868 37.4873 42.2239 37.8528L41.6347 39.1766C39.9804 42.8932 36.2826 45.2947 32.2144 45.2947H29.8962C29.4962 45.2947 29.1719 45.619 29.1719 46.019C29.1719 46.4191 29.4962 46.7433 29.8962 46.7433H32.2144C36.8542 46.7433 41.0714 44.0044 42.9583 39.7656L43.5475 38.4419C43.7102 38.0764 43.5457 37.6483 43.1803 37.4856Z" fill="#687387"/>
<path d="M5.53291 16.0703C5.13287 16.0703 4.80859 16.3946 4.80859 16.7946V27.3819C4.80859 27.782 5.13287 28.1062 5.53291 28.1062C5.93294 28.1062 6.25722 27.7819 6.25722 27.3819V16.7947C6.25722 16.3946 5.93294 16.0703 5.53291 16.0703Z" fill="#687387"/>
<path d="M42.4626 27.5667C42.8626 27.5667 43.1869 27.2424 43.1869 26.8424V15.6462C43.1869 15.2461 42.8626 14.9219 42.4626 14.9219C42.0626 14.9219 41.7383 15.2462 41.7383 15.6462V26.8424C41.7383 27.2424 42.0626 27.5667 42.4626 27.5667Z" fill="#687387"/>
<path d="M14.6425 15.9245C14.9947 16.1141 15.4341 15.9827 15.6238 15.6305C17.279 12.5595 20.4723 10.6517 23.9575 10.6517C28.963 10.6517 33.0723 14.5596 33.3965 19.4844L33.006 19.0626C32.7342 18.769 32.2759 18.7514 31.9823 19.0233C31.6888 19.295 31.6712 19.7534 31.9429 20.0469L33.6107 21.8478C33.7478 21.996 33.9405 22.0801 34.1421 22.0801H34.1501C34.3547 22.0778 34.5486 21.9891 34.6843 21.836L36.2799 20.0351C36.5451 19.7357 36.5175 19.2779 36.2181 19.0127C35.9187 18.7472 35.4609 18.7751 35.1956 19.0744L34.8469 19.468C34.5124 13.7515 29.7565 9.20312 23.9575 9.20312C19.9388 9.20312 16.2569 11.4026 14.3486 14.9432C14.1588 15.2954 14.2904 15.7347 14.6425 15.9245Z" fill="#687387"/>
<path d="M33.5666 25.2816C33.7565 24.9294 33.6248 24.4901 33.2727 24.3004C32.9207 24.1105 32.4813 24.242 32.2914 24.5943C30.6362 27.6653 27.4429 29.573 23.9577 29.573C19.2121 29.573 15.2719 26.0604 14.5992 21.4987L14.8987 21.8367C15.0418 21.9982 15.2409 22.0807 15.4411 22.0807C15.6118 22.0807 15.7833 22.0206 15.9212 21.8985C16.2206 21.6333 16.2483 21.1755 15.983 20.876L14.3873 19.0751C14.2517 18.922 14.0576 18.8334 13.8532 18.8311C13.647 18.8297 13.4527 18.9132 13.3137 19.0633L11.646 20.8642C11.3742 21.1578 11.3918 21.616 11.6854 21.8879C11.9789 22.1596 12.4373 22.1419 12.709 21.8485L13.1251 21.3993C13.7637 26.8104 18.3779 31.0219 23.9579 31.0219C27.9763 31.0217 31.6583 28.8223 33.5666 25.2816Z" fill="#687387"/>
<path d="M28.6536 25.3089C29.0536 25.3089 29.3779 24.9846 29.3779 24.5846V22.4658H29.8947C30.2948 22.4658 30.6191 22.1415 30.6191 21.7414C30.6191 21.3413 30.2948 21.0171 29.8947 21.0171H29.3779V15.9229C29.3779 15.1474 28.7471 14.5166 27.9717 14.5166C27.4694 14.5166 27.0021 14.7872 26.7522 15.2228L23.5215 20.8509C23.3307 21.1834 23.3314 21.596 23.5236 21.9278C23.7157 22.2596 24.0732 22.4657 24.4566 22.4657H27.9293V24.5845C27.9293 24.9846 28.2536 25.3089 28.6536 25.3089ZM25.0965 21.017L27.9293 16.0821V21.017H25.0965Z" fill="#51AF5B"/>
<path d="M17.8731 24.167C17.7172 24.3882 17.6975 24.6778 17.822 24.9179C17.9465 25.1581 18.1945 25.3088 18.4651 25.3088H23.1492C23.5492 25.3088 23.8735 24.9845 23.8735 24.5845C23.8735 24.1845 23.5492 23.8602 23.1492 23.8602H19.862L22.3289 20.3616C22.3328 20.3561 22.3366 20.3504 22.3404 20.3448C23.0893 19.2163 23.6066 18.3215 23.4405 17.0792C23.2452 15.6183 21.9413 14.5166 20.4075 14.5166C18.9406 14.5166 17.6711 15.56 17.3887 16.9976C17.3116 17.3901 17.5673 17.7708 17.9599 17.8479C18.3519 17.9248 18.7331 17.6693 18.8102 17.2767C18.9595 16.5168 19.6312 15.9652 20.4075 15.9652C21.2318 15.9652 21.9034 16.5143 22.0045 17.271C22.0962 17.957 21.8244 18.5015 21.1389 19.5352L17.8731 24.167Z" fill="#51AF5B"/>
<path d="M10.9506 25.6055H8.3125V38.1823H10.9506C11.8547 38.1823 12.5875 37.4495 12.5875 36.5454V27.2423C12.5875 26.3382 11.8547 25.6055 10.9506 25.6055Z" fill="#687387"/>
<path d="M1.31222 36.4056H4.06941V27.3809H1.31222C0.587438 27.3809 0 27.9684 0 28.6931V35.0935C0 35.8181 0.587438 36.4056 1.31222 36.4056Z" fill="#687387"/>
<path d="M36.9854 25.6055H39.3697V38.1823H36.9854C36.1154 38.1823 35.4102 37.477 35.4102 36.607V27.1808C35.4101 26.3108 36.1153 25.6055 36.9854 25.6055Z" fill="#687387"/>
<path d="M46.636 36.4056H43.6094V27.3809H46.6359C47.3885 27.3809 47.9987 27.991 47.9987 28.7436V35.0428C47.9988 35.7955 47.3886 36.4056 46.636 36.4056Z" fill="#687387"/>
<path d="M29.7482 48.0007H25.8138C24.7193 48.0007 23.832 47.1134 23.832 46.0189C23.832 44.9244 24.7193 44.0371 25.8138 44.0371H29.7482C30.8427 44.0371 31.73 44.9244 31.73 46.0189C31.7299 47.1134 30.8427 48.0007 29.7482 48.0007Z" fill="#687387"/>
<path d="M43.2221 16.0695C43.2221 17.3144 43.3221 18.0059 42.0087 18.0059C40.9337 18.0059 39.9988 17.267 39.7506 16.2211C39.2397 14.0712 38.0846 12.8267 36.8174 11.1047V11.1037C33.9046 7.14008 29.2427 4.56824 23.9984 4.56824C19.354 4.56824 15.343 6.17239 12.3992 9.20792C10.3962 11.2738 9.03049 13.891 8.40078 16.799C8.27815 17.366 7.96812 17.8527 7.54409 18.1975C7.11912 18.5433 6.58024 18.746 6.00078 18.746C4.49796 18.746 3.35159 17.4075 3.57471 15.9211C5.0119 6.36852 12.8068 0.0628925 23.8362 0.00101752C23.8903 8.00173e-05 24.0271 0.0155488 24.0812 0.0155488C29.9797 0.0155488 40.9428 6.4482 43.1554 15.5151C43.2008 15.7015 43.2221 15.888 43.2221 16.0695Z" fill="#51AF5B"/>
<path d="M5.18672 39.3027H6.42591L8.06897 38.6701C8.33831 38.6701 8.55666 38.4518 8.55666 38.1824L8.8005 25.5531C8.8005 25.2837 8.58216 25.0654 8.31281 25.0654L6.42591 24.4854H5.18672C3.99197 24.4854 3.02344 25.4539 3.02344 26.6486V37.1395C3.02344 38.3342 3.99197 39.3027 5.18672 39.3027Z" fill="#51AF5B"/>
<path d="M8.74566 24.4854H6.23438C6.50372 24.4854 6.72206 24.7037 6.72206 24.973V38.815C6.72206 39.0844 6.50372 39.3027 6.23438 39.3027H8.74566C9.015 39.3027 9.23334 39.0844 9.23334 38.815V24.973C9.23344 24.7037 9.01509 24.4854 8.74566 24.4854Z" fill="#51AF5B"/>
<path d="M42.9115 38.974L41.1359 39.3027H39.2533C38.984 39.3027 38.7656 39.0844 38.7656 38.815V24.973C38.7656 24.7037 38.984 24.4854 39.2533 24.4854H41.0615L42.7839 24.7689C43.9787 24.7689 44.6553 25.8496 44.6553 27.0444L44.3788 36.7413C44.3788 37.9359 44.1063 38.974 42.9115 38.974Z" fill="#51AF5B"/>
<path d="M42.8132 24.4854H40.3984C41.5932 24.4854 42.5617 25.4539 42.5617 26.6486V37.1395C42.5617 38.3343 41.5932 39.3028 40.3984 39.3028H42.8132C44.0079 39.3028 44.9764 38.3343 44.9764 37.1395V26.6485C44.9764 25.4538 44.0079 24.4854 42.8132 24.4854Z" fill="#51AF5B"/>
<path d="M44.1118 16.4272C44.1118 17.6721 43.1016 18.7461 41.7881 18.7461C40.7132 18.7461 39.7783 18.0072 39.5301 16.9613C39.0191 14.8114 38.0843 12.8267 36.8171 11.1047V11.1038C33.8995 1.29806 24.1402 0.0376875 23.8359 0.0009375C23.89 0 23.9451 0 23.9992 0C33.7208 0 41.8326 6.80597 44.0452 15.8728C44.0906 16.0592 44.1118 16.2457 44.1118 16.4272Z" fill="#51AF5B"/>
</g>
<defs>
<clipPath id="clip0_757_45466">
<rect width="48" height="48" fill="white"/>
</clipPath>
</defs>
</svg>
