<svg width="48" height="48" viewBox="0 0 48 48" fill="none" xmlns="http://www.w3.org/2000/svg">
<g clip-path="url(#clip0_776_38512)">
<path d="M43.1803 37.4856C42.8147 37.323 42.3868 37.4873 42.2239 37.8528L41.6347 39.1766C39.9804 42.8932 36.2826 45.2947 32.2144 45.2947H29.8962C29.4962 45.2947 29.1719 45.619 29.1719 46.019C29.1719 46.4191 29.4962 46.7433 29.8962 46.7433H32.2144C36.8542 46.7433 41.0714 44.0044 42.9583 39.7656L43.5475 38.4419C43.7102 38.0764 43.5457 37.6483 43.1803 37.4856Z" fill="#687387"/>
<path d="M5.53388 16.0703C5.13385 16.0703 4.80957 16.3946 4.80957 16.7946V27.3819C4.80957 27.782 5.13385 28.1062 5.53388 28.1062C5.93391 28.1062 6.2582 27.7819 6.2582 27.3819V16.7947C6.2582 16.3946 5.93391 16.0703 5.53388 16.0703Z" fill="#687387"/>
<path d="M42.4645 27.5667C42.8646 27.5667 43.1889 27.2424 43.1889 26.8424V15.6462C43.1889 15.2461 42.8646 14.9219 42.4645 14.9219C42.0645 14.9219 41.7402 15.2462 41.7402 15.6462V26.8424C41.7402 27.2424 42.0645 27.5667 42.4645 27.5667Z" fill="#687387"/>
<path d="M14.6425 15.9245C14.9947 16.1141 15.4341 15.9827 15.6238 15.6305C17.279 12.5595 20.4723 10.6517 23.9575 10.6517C28.963 10.6517 33.0723 14.5596 33.3965 19.4844L33.006 19.0626C32.7342 18.769 32.2759 18.7514 31.9823 19.0233C31.6888 19.295 31.6712 19.7534 31.9429 20.0469L33.6107 21.8478C33.7478 21.996 33.9405 22.0801 34.1421 22.0801H34.1501C34.3547 22.0778 34.5486 21.9891 34.6843 21.836L36.2799 20.0351C36.5451 19.7357 36.5175 19.2779 36.2181 19.0127C35.9187 18.7472 35.4609 18.7751 35.1956 19.0744L34.8469 19.468C34.5124 13.7515 29.7565 9.20312 23.9575 9.20312C19.9388 9.20312 16.2569 11.4026 14.3486 14.9432C14.1588 15.2954 14.2904 15.7347 14.6425 15.9245Z" fill="#687387"/>
<path d="M33.5666 25.2816C33.7565 24.9294 33.6248 24.4901 33.2727 24.3004C32.9207 24.1105 32.4813 24.242 32.2914 24.5943C30.6362 27.6653 27.4429 29.573 23.9577 29.573C19.2121 29.573 15.2719 26.0604 14.5992 21.4987L14.8987 21.8367C15.0418 21.9982 15.2409 22.0807 15.4411 22.0807C15.6118 22.0807 15.7833 22.0206 15.9212 21.8985C16.2206 21.6333 16.2483 21.1755 15.983 20.876L14.3873 19.0751C14.2517 18.922 14.0576 18.8334 13.8532 18.8311C13.647 18.8297 13.4527 18.9132 13.3137 19.0633L11.646 20.8642C11.3742 21.1578 11.3918 21.616 11.6854 21.8879C11.9789 22.1596 12.4373 22.1419 12.709 21.8485L13.1251 21.3993C13.7637 26.8104 18.3779 31.0219 23.9579 31.0219C27.9763 31.0217 31.6583 28.8223 33.5666 25.2816Z" fill="#687387"/>
<path d="M28.6555 25.3089C29.0556 25.3089 29.3799 24.9846 29.3799 24.5846V22.4658H29.8967C30.2967 22.4658 30.621 22.1415 30.621 21.7414C30.621 21.3413 30.2967 21.0171 29.8967 21.0171H29.3799V15.9229C29.3799 15.1474 28.749 14.5166 27.9737 14.5166C27.4714 14.5166 27.004 14.7872 26.7541 15.2228L23.5235 20.8509C23.3326 21.1834 23.3334 21.596 23.5255 21.9278C23.7176 22.2596 24.0752 22.4657 24.4585 22.4657H27.9312V24.5845C27.9312 24.9846 28.2555 25.3089 28.6555 25.3089ZM25.0985 21.017L27.9312 16.0821V21.017H25.0985Z" fill="#69BEF1"/>
<path d="M17.876 24.167C17.7201 24.3882 17.7005 24.6778 17.825 24.9179C17.9495 25.1581 18.1974 25.3088 18.468 25.3088H23.1521C23.5521 25.3088 23.8764 24.9845 23.8764 24.5845C23.8764 24.1845 23.5521 23.8602 23.1521 23.8602H19.8649L22.3318 20.3616C22.3357 20.3561 22.3396 20.3504 22.3433 20.3448C23.0922 19.2163 23.6095 18.3215 23.4434 17.0792C23.2481 15.6183 21.9442 14.5166 20.4104 14.5166C18.9436 14.5166 17.674 15.56 17.3916 16.9976C17.3146 17.3901 17.5702 17.7708 17.9629 17.8479C18.3548 17.9248 18.736 17.6693 18.8132 17.2767C18.9624 16.5168 19.6341 15.9652 20.4104 15.9652C21.2347 15.9652 21.9064 16.5143 22.0074 17.271C22.0991 17.957 21.8273 18.5015 21.1418 19.5352L17.876 24.167Z" fill="#69BEF1"/>
<path d="M10.9526 25.6055H8.31445V38.1823H10.9526C11.8566 38.1823 12.5895 37.4495 12.5895 36.5454V27.2423C12.5895 26.3382 11.8566 25.6055 10.9526 25.6055Z" fill="#687387"/>
<path d="M1.31222 36.4056H4.06941V27.3809H1.31222C0.587438 27.3809 0 27.9684 0 28.6931V35.0935C0 35.8181 0.587438 36.4056 1.31222 36.4056Z" fill="#687387"/>
<path d="M36.9864 25.6055H39.3707V38.1823H36.9864C36.1164 38.1823 35.4111 37.477 35.4111 36.607V27.1808C35.411 26.3108 36.1163 25.6055 36.9864 25.6055Z" fill="#687387"/>
<path d="M46.637 36.4056H43.6104V27.3809H46.6369C47.3895 27.3809 47.9996 27.991 47.9996 28.7436V35.0428C47.9997 35.7955 47.3896 36.4056 46.637 36.4056Z" fill="#687387"/>
<path d="M29.7463 48.0007H25.8119C24.7173 48.0007 23.8301 47.1134 23.8301 46.0189C23.8301 44.9244 24.7173 44.0371 25.8119 44.0371H29.7463C30.8408 44.0371 31.728 44.9244 31.728 46.0189C31.728 47.1134 30.8407 48.0007 29.7463 48.0007Z" fill="#687387"/>
<path d="M43.223 16.0695C43.223 17.3144 43.3231 18.0059 42.0096 18.0059C40.9347 18.0059 39.9998 17.267 39.7516 16.2211C39.2406 14.0712 38.0855 12.8267 36.8184 11.1047V11.1037C33.9056 7.14008 29.2437 4.56824 23.9994 4.56824C19.3549 4.56824 15.3439 6.17239 12.4002 9.20792C10.3971 11.2738 9.03147 13.891 8.40175 16.799C8.27913 17.366 7.9691 17.8527 7.54506 18.1975C7.1201 18.5433 6.58122 18.746 6.00175 18.746C4.49894 18.746 3.35256 17.4075 3.57569 15.9211C5.01288 6.36852 12.8078 0.0628925 23.8372 0.00101752C23.8913 8.00173e-05 24.0281 0.0155488 24.0822 0.0155488C29.9807 0.0155488 40.9438 6.4482 43.1564 15.5151C43.2018 15.7015 43.223 15.888 43.223 16.0695Z" fill="#69BEF1"/>
<path d="M5.1877 39.3027H6.42688L8.06995 38.6701C8.33929 38.6701 8.55763 38.4518 8.55763 38.1824L8.80148 25.5531C8.80148 25.2837 8.58313 25.0654 8.31379 25.0654L6.42688 24.4854H5.1877C3.99295 24.4854 3.02441 25.4539 3.02441 26.6486V37.1395C3.02441 38.3342 3.99295 39.3027 5.1877 39.3027Z" fill="#69BEF1"/>
<path d="M8.74566 24.4854H6.23438C6.50372 24.4854 6.72206 24.7037 6.72206 24.973V38.815C6.72206 39.0844 6.50372 39.3027 6.23438 39.3027H8.74566C9.015 39.3027 9.23334 39.0844 9.23334 38.815V24.973C9.23344 24.7037 9.01509 24.4854 8.74566 24.4854Z" fill="#4086E1"/>
<path d="M42.9125 38.974L41.1369 39.3027H39.2543C38.9849 39.3027 38.7666 39.0844 38.7666 38.815V24.973C38.7666 24.7037 38.9849 24.4854 39.2543 24.4854H41.0624L42.7849 24.7689C43.9797 24.7689 44.6563 25.8496 44.6563 27.0444L44.3798 36.7413C44.3798 37.9359 44.1073 38.974 42.9125 38.974Z" fill="#69BEF1"/>
<path d="M42.8122 24.4854H40.3975C41.5922 24.4854 42.5607 25.4539 42.5607 26.6486V37.1395C42.5607 38.3343 41.5922 39.3028 40.3975 39.3028H42.8122C44.0069 39.3028 44.9755 38.3343 44.9755 37.1395V26.6485C44.9755 25.4538 44.0069 24.4854 42.8122 24.4854Z" fill="#4086E1"/>
<path d="M44.1128 16.4272C44.1128 17.6721 43.1025 18.7461 41.7891 18.7461C40.7142 18.7461 39.7793 18.0072 39.531 16.9613C39.0201 14.8114 38.0852 12.8267 36.8181 11.1047V11.1038C33.9005 1.29806 24.1411 0.0376875 23.8369 0.0009375C23.891 0 23.946 0 24.0001 0C33.7218 0 41.8335 6.80597 44.0461 15.8728C44.0916 16.0592 44.1128 16.2457 44.1128 16.4272Z" fill="#4086E1"/>
</g>
<defs>
<clipPath id="clip0_776_38512">
<rect width="48" height="48" fill="white"/>
</clipPath>
</defs>
</svg>
