<svg width="48" height="48" viewBox="0 0 48 48" fill="none" xmlns="http://www.w3.org/2000/svg">
<g clip-path="url(#clip0_776_38306)">
<path d="M20.25 32.25C18.5955 32.25 17.25 33.5955 17.25 35.25C17.25 36.9045 18.5955 38.25 20.25 38.25C21.9045 38.25 23.25 36.9045 23.25 35.25C23.25 33.5955 21.9045 32.25 20.25 32.25ZM20.25 36.75C19.4227 36.75 18.75 36.0773 18.75 35.25C18.75 34.4227 19.4227 33.75 20.25 33.75C21.0773 33.75 21.75 34.4227 21.75 35.25C21.75 36.0773 21.0773 36.75 20.25 36.75Z" fill="#275BA6"/>
<path d="M3.75 36.75H5.25V38.25H3.75V36.75Z" fill="#275BA6"/>
<path d="M6.75 36.75H11.25V38.25H6.75V36.75Z" fill="#275BA6"/>
<path d="M3.75 33.75H11.25V35.25H3.75V33.75Z" fill="#275BA6"/>
<path d="M43.5 0.75H24C21.9323 0.75 20.25 2.43225 20.25 4.5V21.75H3C1.7595 21.75 0.75 22.7595 0.75 24V39C0.75 40.2405 1.7595 41.25 3 41.25H20.25V43.5C20.25 45.5677 21.9323 47.25 24 47.25H43.5C45.5677 47.25 47.25 45.5677 47.25 43.5V4.5C47.25 2.43225 45.5677 0.75 43.5 0.75ZM24 2.25H43.5C44.7405 2.25 45.75 3.2595 45.75 4.5V6.75H21.75V4.5C21.75 3.2595 22.7595 2.25 24 2.25ZM21.75 8.25H45.75V36.75H27.75V28.9387C28.8878 30.585 30.3067 32.0295 31.9552 33.1845C32.4847 33.5542 33.105 33.75 33.75 33.75C34.395 33.75 35.016 33.5542 35.5448 33.1845C40.0568 30.0255 42.75 24.852 42.75 19.3447V15H42C41.1727 15 40.5 14.3273 40.5 13.5C40.5 13.3995 40.5112 13.3012 40.53 13.206L40.6462 12.6262L40.1092 12.378C40.0095 12.3315 37.62 11.25 33.75 11.25C29.88 11.25 27.4905 12.3315 27.3908 12.378L26.8538 12.6262L26.97 13.206C26.9887 13.3012 27 13.3995 27 13.5C27 14.3273 26.3272 15 25.5 15H24.75V19.3447C24.75 20.1495 24.828 20.9527 24.9427 21.75H21.75V8.25ZM26.25 19.3447V16.4047C27.525 16.0762 28.4737 14.9272 28.5 13.557C29.3288 13.2698 31.1887 12.75 33.75 12.75C36.312 12.75 38.172 13.2705 39 13.557C39.0255 14.9272 39.975 16.0755 41.25 16.4047V19.3447C41.25 24.363 38.796 29.0775 34.6845 31.9552C34.134 32.3407 33.366 32.3407 32.8155 31.9552C30.639 30.4312 28.8923 28.3605 27.75 25.9627V24C27.75 23.118 27.2348 22.3605 26.4945 21.9923C26.3415 21.1192 26.25 20.2327 26.25 19.3447ZM26.25 29.25H2.25V27.75H26.25V29.25ZM3 23.25H25.5C25.9132 23.25 26.25 23.586 26.25 24V26.25H2.25V24C2.25 23.586 2.58675 23.25 3 23.25ZM2.25 39V30.75H26.25V39C26.25 39.414 25.9132 39.75 25.5 39.75H3C2.58675 39.75 2.25 39.414 2.25 39ZM43.5 45.75H24C22.7595 45.75 21.75 44.7405 21.75 43.5V41.25H25.5C26.7405 41.25 27.75 40.2405 27.75 39V38.25H45.75V43.5C45.75 44.7405 44.7405 45.75 43.5 45.75Z" fill="#275BA6"/>
<path d="M24 5.25C24.4142 5.25 24.75 4.91421 24.75 4.5C24.75 4.08579 24.4142 3.75 24 3.75C23.5858 3.75 23.25 4.08579 23.25 4.5C23.25 4.91421 23.5858 5.25 24 5.25Z" fill="#275BA6"/>
<path d="M29.25 3.75H38.25V5.25H29.25V3.75Z" fill="#275BA6"/>
<path d="M36 39.75H31.5C30.2595 39.75 29.25 40.7595 29.25 42C29.25 43.2405 30.2595 44.25 31.5 44.25H36C37.2405 44.25 38.25 43.2405 38.25 42C38.25 40.7595 37.2405 39.75 36 39.75ZM36 42.75H31.5C31.0868 42.75 30.75 42.414 30.75 42C30.75 41.586 31.0868 41.25 31.5 41.25H36C36.4132 41.25 36.75 41.586 36.75 42C36.75 42.414 36.4132 42.75 36 42.75Z" fill="#275BA6"/>
<path d="M38.7727 19.2802L37.7115 18.2197L30.75 25.1925L29.7802 24.2235L28.7197 25.284L30.75 27.315L38.7727 19.2802Z" fill="#275BA6"/>
</g>
<defs>
<clipPath id="clip0_776_38306">
<rect width="48" height="48" fill="white"/>
</clipPath>
</defs>
</svg>
