<svg width="24" height="24" viewBox="0 0 24 24" fill="none" xmlns="http://www.w3.org/2000/svg">
<path d="M11.9992 21.75C11.0112 21.75 10.1232 21.237 9.62122 20.378C9.41322 20.02 9.53323 19.561 9.89122 19.352C10.2472 19.144 10.7072 19.264 10.9172 19.622C11.3762 20.409 12.6222 20.409 13.0812 19.622C13.2902 19.264 13.7502 19.144 14.1072 19.352C14.4652 19.56 14.5862 20.02 14.3772 20.378C13.8752 21.237 12.9872 21.75 11.9992 21.75ZM20.6742 18.325C20.7992 18.065 20.7642 17.757 20.5852 17.532C20.5662 17.509 18.7442 15.189 18.7442 12.5V8.995C18.7442 5.276 15.7182 2.25 11.9992 2.25C8.28023 2.25 5.25422 5.276 5.25422 8.995V12.5C5.25422 15.189 3.43223 17.509 3.41323 17.532C3.23423 17.757 3.19922 18.066 3.32422 18.325C3.44922 18.584 3.71123 18.75 3.99923 18.75H19.9992C20.2872 18.75 20.5492 18.584 20.6742 18.325ZM6.75422 12.5V8.995C6.75422 6.103 9.10723 3.75 11.9992 3.75C14.8912 3.75 17.2442 6.103 17.2442 8.995V12.5C17.2442 14.436 17.9942 16.158 18.6122 17.25H5.38523C6.00423 16.158 6.75422 14.436 6.75422 12.5Z" fill="#17181D"/>
</svg>
