<svg width="32" height="32" viewBox="0 0 32 32" fill="none" xmlns="http://www.w3.org/2000/svg">
<path d="M26 18.6671C26 24.1805 21.5147 28.6671 16 28.6671C10.4853 28.6671 6 24.1805 6 18.6671C6 15.6698 6.85599 13.5351 8.86133 11.5285C9.25466 11.1338 9.7 10.7391 10.1613 10.3311C12.0493 8.65911 14 6.92983 14 3.99916C14 3.75383 14.136 3.52711 14.352 3.41111C14.568 3.29511 14.8307 3.30714 15.036 3.44448C15.116 3.49781 22.5533 8.5951 18.74 17.3524C19.6347 16.8524 20.7053 16.0324 21.3627 14.7591C21.784 13.9431 21.9987 13.0152 21.9987 11.9992C21.9987 11.7285 22.1627 11.4845 22.4133 11.3818C22.6613 11.2791 22.9507 11.3378 23.1413 11.5311C24.9587 13.3778 26 15.9791 26 18.6671Z" fill="#FFC107"/>
</svg>
