<svg width="20" height="20" viewBox="0 0 20 20" fill="none" xmlns="http://www.w3.org/2000/svg">
<path d="M19.0626 8.645C18.8726 6.646 17.3366 5.25 15.3296 5.25H14.7496V5C14.7496 2.381 12.6186 0.25 9.9996 0.25C7.3806 0.25 5.2496 2.381 5.2496 5V5.25H4.66964C2.66164 5.25 1.12661 6.646 0.936611 8.645L0.269619 15.645C0.163619 16.767 0.489541 17.809 1.18954 18.579C1.87754 19.335 2.87655 19.751 4.00155 19.751H15.9976C17.1236 19.751 18.1227 19.334 18.8097 18.579C19.5097 17.809 19.8356 16.767 19.7296 15.646L19.0626 8.645ZM6.7496 5C6.7496 3.208 8.2076 1.75 9.9996 1.75C11.7916 1.75 13.2496 3.208 13.2496 5V5.25H6.7496V5ZM17.6996 17.568C17.2945 18.014 16.7056 18.25 15.9976 18.25H4.00155C3.29355 18.25 2.70465 18.015 2.29965 17.568C1.88765 17.115 1.69664 16.482 1.76364 15.786L2.43063 8.787C2.54563 7.568 3.44664 6.75 4.66964 6.75H15.3296C16.5536 6.75 17.4536 7.568 17.5686 8.787L18.2356 15.787C18.3026 16.482 18.1116 17.115 17.6996 17.568ZM7.01962 10C7.01962 10.552 6.57262 11 6.01962 11C5.46762 11 5.01461 10.552 5.01461 10C5.01461 9.448 5.45761 9 6.00961 9H6.01962C6.57162 9 7.01962 9.448 7.01962 10ZM15.0196 10C15.0196 10.552 14.5726 11 14.0196 11C13.4676 11 13.0146 10.552 13.0146 10C13.0146 9.448 13.4576 9 14.0096 9H14.0196C14.5716 9 15.0196 9.448 15.0196 10Z" fill="white"/>
</svg>
