<svg width="48" height="48" viewBox="0 0 48 48" fill="none" xmlns="http://www.w3.org/2000/svg">
<path d="M38.6672 10.2744L36.1073 13.7841L34.7601 12.8009L33.4336 11.8341L35.9935 8.32436C36.3937 7.77498 37.1647 7.65395 37.7149 8.05511L38.398 8.55301C38.6275 8.72111 38.783 8.95239 38.8553 9.20626C38.9572 9.55961 38.9003 9.95448 38.6672 10.2744Z" fill="#275BA6"/>
<path d="M38.6669 10.274L36.107 13.7837L34.7598 12.8006L37.1679 9.49881C37.5601 8.96125 38.3074 8.83375 38.855 9.20603C38.957 9.55928 38.9 9.95416 38.6669 10.274Z" fill="#2973D2"/>
<path d="M27.263 8.66506V2.47727C27.263 2.47643 27.2627 2.47559 27.2621 2.47559H20.7393V8.66506" fill="#275BA6"/>
<path d="M14.6132 11.8071L13.2081 12.8255L11.9331 13.75L9.38403 10.2323C8.98466 9.68103 9.10747 8.91125 9.65872 8.51178L10.3437 8.01575C10.5145 7.8919 10.7052 7.81878 10.9003 7.79262C11.3349 7.733 11.7885 7.90915 12.0641 8.28959L14.6132 11.8071Z" fill="#275BA6"/>
<path d="M14.6124 11.8063L13.2073 12.8247L10.7387 9.41812C10.3682 8.90755 10.4468 8.20818 10.8996 7.79165C11.3342 7.73202 11.7878 7.90818 12.0634 8.28862L14.6124 11.8063Z" fill="#2973D2"/>
<path d="M44.4214 27.578C44.4214 38.4928 35.8587 47.4078 25.0851 47.9717C24.7264 47.9898 24.3649 47.9997 24.0008 47.9997C12.7218 47.9997 3.5791 38.857 3.5791 27.578C3.5791 16.3 12.7218 7.15723 24.0008 7.15723C24.3649 7.15723 24.7264 7.16716 25.0851 7.18526C35.8587 7.74916 44.4214 16.6642 44.4214 27.578Z" fill="#275BA6"/>
<path d="M44.4207 27.5783C44.4207 38.4931 35.8581 47.4081 25.0844 47.972C14.3097 47.4081 5.74707 38.4931 5.74707 27.5783C5.74707 16.6645 14.3097 7.74945 25.0844 7.18555C35.8581 7.74945 44.4207 16.6645 44.4207 27.5783Z" fill="#2973D2"/>
<path d="M39.9985 27.5787C39.9985 36.414 32.836 43.5776 24.0007 43.5776C23.4115 43.5776 22.8303 43.5454 22.2588 43.4831C14.2424 42.6155 8.00195 35.8259 8.00195 27.5788C8.00195 19.3317 14.2423 12.543 22.2588 11.6755C22.8304 11.6131 23.4116 11.5811 24.0007 11.5811C32.836 11.581 39.9985 18.7435 39.9985 27.5787Z" fill="#F2F2F2"/>
<path d="M36.5148 27.5782C36.5148 35.8254 30.2744 42.615 22.2589 43.4825C14.2425 42.6149 8.00195 35.8254 8.00195 27.5782C8.00195 19.331 14.2423 12.5424 22.2588 11.6748C30.2744 12.5425 36.5148 19.331 36.5148 27.5782Z" fill="#DBDBDB"/>
<path d="M24.0003 27.1124C23.5945 27.1124 23.2656 26.7834 23.2656 26.3776V17.9134C23.2656 17.5077 23.5945 17.1787 24.0003 17.1787C24.4062 17.1787 24.7351 17.5077 24.7351 17.9134V26.3776C24.7351 26.7835 24.4062 27.1124 24.0003 27.1124Z" fill="#ED3B3B"/>
<path d="M24.0005 44.3115C14.7739 44.3115 7.26758 36.8052 7.26758 27.5786C7.26758 18.352 14.774 10.8457 24.0005 10.8457C33.227 10.8457 40.7333 18.352 40.7333 27.5786C40.7333 36.8052 33.227 44.3115 24.0005 44.3115ZM24.0005 12.315C15.584 12.315 8.73692 19.1621 8.73692 27.5785C8.73692 35.9949 15.584 42.842 24.0005 42.842C32.4169 42.842 39.264 35.9949 39.264 27.5785C39.264 19.1621 32.4169 12.315 24.0005 12.315Z" fill="#275BA6"/>
<path d="M27.3552 27.578C27.3552 29.0074 26.4604 30.2284 25.2014 30.7104C24.8285 30.8535 24.4234 30.9324 24.0009 30.9324C22.148 30.9324 20.6465 29.431 20.6465 27.578C20.6465 25.725 22.1479 24.2236 24.0009 24.2236C24.4235 24.2236 24.8285 24.3025 25.2014 24.4456C26.4604 24.9276 27.3552 26.1487 27.3552 27.578Z" fill="#275BA6"/>
<path d="M27.3545 27.5787C27.3545 29.0081 26.4597 30.2291 25.2007 30.711C23.9417 30.2291 23.0469 29.008 23.0469 27.5787C23.0469 26.1494 23.9417 24.9283 25.2007 24.4463C26.4597 24.9283 27.3545 26.1494 27.3545 27.5787Z" fill="#2973D2"/>
<path d="M24.0003 15.0166C23.5945 15.0166 23.2656 14.6876 23.2656 14.2818V13.3783C23.2656 12.9725 23.5945 12.6436 24.0003 12.6436C24.4062 12.6436 24.7351 12.9725 24.7351 13.3783V14.2818C24.7351 14.6876 24.4062 15.0166 24.0003 15.0166Z" fill="#5A5C60"/>
<path d="M24.0003 42.5126C23.5945 42.5126 23.2656 42.1837 23.2656 41.7779V40.8744C23.2656 40.4686 23.5945 40.1396 24.0003 40.1396C24.4062 40.1396 24.7351 40.4686 24.7351 40.8744V41.7779C24.7351 42.1837 24.4062 42.5126 24.0003 42.5126Z" fill="#5A5C60"/>
<path d="M17.3523 16.7981C17.0984 16.7981 16.8514 16.6664 16.7154 16.4307L16.2636 15.648C16.0607 15.2967 16.1811 14.8473 16.5325 14.6445C16.8837 14.4416 17.3333 14.562 17.5361 14.9133L17.9878 15.696C18.1907 16.0473 18.0703 16.4967 17.719 16.6995C17.6033 16.7664 17.4769 16.7981 17.3523 16.7981Z" fill="#5A5C60"/>
<path d="M31.1004 40.6106C30.8465 40.6106 30.5995 40.4789 30.4634 40.2432L30.0116 39.4605C29.8088 39.1092 29.9291 38.6598 30.2805 38.457C30.6317 38.2541 31.0813 38.3745 31.2841 38.7258L31.7359 39.5085C31.9388 39.8598 31.8184 40.3092 31.467 40.512C31.3515 40.5789 31.2251 40.6106 31.1004 40.6106Z" fill="#5A5C60"/>
<path d="M12.4845 21.6645C12.3599 21.6645 12.2335 21.6328 12.1178 21.566L11.3352 21.1142C10.9838 20.9114 10.8635 20.462 11.0663 20.1106C11.2691 19.7593 11.7183 19.6388 12.0699 19.8418L12.8525 20.2935C13.2039 20.4964 13.3243 20.9458 13.1214 21.2971C12.9855 21.5327 12.7384 21.6645 12.4845 21.6645Z" fill="#5A5C60"/>
<path d="M36.2969 35.4126C36.1723 35.4126 36.0458 35.3808 35.9302 35.3141L35.1477 34.8623C34.7963 34.6594 34.676 34.2101 34.8788 33.8587C35.0817 33.5072 35.5311 33.3869 35.8824 33.5898L36.665 34.0416C37.0163 34.2445 37.1367 34.6938 36.9338 35.0452C36.7978 35.2808 36.5508 35.4126 36.2969 35.4126Z" fill="#5A5C60"/>
<path d="M10.7037 28.3132H9.80015C9.39431 28.3132 9.06543 27.9842 9.06543 27.5785C9.06543 27.1727 9.39431 26.8438 9.80015 26.8438H10.7037C11.1096 26.8438 11.4384 27.1727 11.4384 27.5785C11.4384 27.9842 11.1095 28.3132 10.7037 28.3132Z" fill="#5A5C60"/>
<path d="M38.1999 28.3132H37.2962C36.8904 28.3132 36.5615 27.9842 36.5615 27.5785C36.5615 27.1727 36.8904 26.8438 37.2962 26.8438H38.1999C38.6057 26.8438 38.9346 27.1727 38.9346 27.5785C38.9346 27.9842 38.6057 28.3132 38.1999 28.3132Z" fill="#5A5C60"/>
<path d="M11.7033 35.4135C11.4494 35.4135 11.2024 35.2818 11.0663 35.0461C10.8635 34.6947 10.9838 34.2454 11.3352 34.0425L12.1178 33.5907C12.4693 33.3879 12.9186 33.5082 13.1214 33.8596C13.3243 34.211 13.2039 34.6603 12.8525 34.8632L12.0699 35.315C11.9541 35.3817 11.8279 35.4135 11.7033 35.4135Z" fill="#5A5C60"/>
<path d="M35.5158 21.6645C35.2619 21.6645 35.015 21.5327 34.8788 21.2971C34.676 20.9457 34.7963 20.4963 35.1477 20.2935L35.9302 19.8417C36.2815 19.6389 36.7309 19.7592 36.9338 20.1106C37.1367 20.4619 37.0163 20.9113 36.665 21.1141L35.8824 21.5659C35.7667 21.6326 35.6404 21.6645 35.5158 21.6645Z" fill="#5A5C60"/>
<path d="M16.8991 40.6106C16.7745 40.6106 16.6482 40.5788 16.5325 40.5121C16.1811 40.3092 16.0607 39.8599 16.2636 39.5085L16.7154 38.7259C16.9182 38.3745 17.3674 38.254 17.719 38.457C18.0703 38.6599 18.1907 39.1092 17.9878 39.4606L17.5361 40.2432C17.3999 40.4789 17.1529 40.6106 16.8991 40.6106Z" fill="#5A5C60"/>
<path d="M30.6472 16.7981C30.5226 16.7981 30.3962 16.7663 30.2805 16.6996C29.9291 16.4967 29.8088 16.0474 30.0116 15.696L30.4634 14.9134C30.6662 14.562 31.1155 14.4415 31.467 14.6445C31.8184 14.8474 31.9388 15.2967 31.7359 15.6481L31.2841 16.4307C31.1481 16.6663 30.901 16.7981 30.6472 16.7981Z" fill="#5A5C60"/>
<path d="M30.6613 1.45369V2.26969C30.6613 3.072 30.0109 3.72337 29.2076 3.72337H18.7926C17.9893 3.72337 17.3389 3.07191 17.3389 2.26969V1.45369C17.3389 0.651469 17.9893 0 18.7926 0H29.2076C30.0109 0 30.6613 0.651469 30.6613 1.45369Z" fill="#275BA6"/>
<path d="M30.6617 1.45369V2.26969C30.6617 3.072 30.0113 3.72337 29.2081 3.72337H22.4176C21.6143 3.72337 20.9639 3.07191 20.9639 2.26969V1.45369C20.9638 0.651469 21.6142 0 22.4176 0H29.2081C30.0113 0 30.6617 0.651469 30.6617 1.45369Z" fill="#2973D2"/>
</svg>
