<svg width="33" height="32" viewBox="0 0 33 32" fill="none" xmlns="http://www.w3.org/2000/svg">
<path d="M32.5 3V9C32.5 11 31.5 12 29.5 12H23.5C21.5 12 20.5 11 20.5 9V3C20.5 1 21.5 0 23.5 0H29.5C31.5 0 32.5 1 32.5 3ZM9.5 0H3.5C1.5 0 0.5 1 0.5 3V9C0.5 11 1.5 12 3.5 12H9.5C11.5 12 12.5 11 12.5 9V3C12.5 1 11.5 0 9.5 0ZM29.5 20H23.5C21.5 20 20.5 21 20.5 23V29C20.5 31 21.5 32 23.5 32H29.5C31.5 32 32.5 31 32.5 29V23C32.5 21 31.5 20 29.5 20ZM9.5 20H3.5C1.5 20 0.5 21 0.5 23V29C0.5 31 1.5 32 3.5 32H9.5C11.5 32 12.5 31 12.5 29V23C12.5 21 11.5 20 9.5 20Z" fill="white"/>
</svg>
