<svg width="19" height="19" viewBox="0 0 19 19" fill="none" xmlns="http://www.w3.org/2000/svg">
<path d="M15.5 1.5H14V0.5C14 0.224 13.776 0 13.5 0C13.224 0 13 0.224 13 0.5V1.5H6V0.5C6 0.224 5.776 0 5.5 0C5.224 0 5 0.224 5 0.5V1.5H3.5C1.21 1.5 0 2.71 0 5V15.5C0 17.79 1.21 19 3.5 19H15.5C17.79 19 19 17.79 19 15.5V5C19 2.71 17.79 1.5 15.5 1.5ZM3.5 2.5H5V3.5C5 3.776 5.224 4 5.5 4C5.776 4 6 3.776 6 3.5V2.5H13V3.5C13 3.776 13.224 4 13.5 4C13.776 4 14 3.776 14 3.5V2.5H15.5C17.229 2.5 18 3.271 18 5V6H1V5C1 3.271 1.771 2.5 3.5 2.5ZM15.5 18H3.5C1.771 18 1 17.229 1 15.5V7H18V15.5C18 17.229 17.229 18 15.5 18ZM6.25 10.5C6.25 10.915 5.91591 11.25 5.50391 11.25C5.09291 11.25 4.75 10.915 4.75 10.5C4.75 10.085 5.07701 9.75 5.48901 9.75H5.50391C5.91591 9.75 6.25 10.085 6.25 10.5ZM10.25 10.5C10.25 10.915 9.91591 11.25 9.50391 11.25C9.09291 11.25 8.75 10.915 8.75 10.5C8.75 10.085 9.07701 9.75 9.48901 9.75H9.50391C9.91591 9.75 10.25 10.085 10.25 10.5ZM14.25 10.5C14.25 10.915 13.9159 11.25 13.5039 11.25C13.0929 11.25 12.75 10.915 12.75 10.5C12.75 10.085 13.077 9.75 13.489 9.75H13.5039C13.9159 9.75 14.25 10.085 14.25 10.5ZM6.25 14.5C6.25 14.915 5.91591 15.25 5.50391 15.25C5.09291 15.25 4.75 14.915 4.75 14.5C4.75 14.085 5.07701 13.75 5.48901 13.75H5.50391C5.91591 13.75 6.25 14.085 6.25 14.5ZM10.25 14.5C10.25 14.915 9.91591 15.25 9.50391 15.25C9.09291 15.25 8.75 14.915 8.75 14.5C8.75 14.085 9.07701 13.75 9.48901 13.75H9.50391C9.91591 13.75 10.25 14.085 10.25 14.5ZM14.25 14.5C14.25 14.915 13.9159 15.25 13.5039 15.25C13.0929 15.25 12.75 14.915 12.75 14.5C12.75 14.085 13.077 13.75 13.489 13.75H13.5039C13.9159 13.75 14.25 14.085 14.25 14.5Z" fill="#687387"/>
</svg>
