<svg width="24" height="24" viewBox="0 0 24 24" fill="none" xmlns="http://www.w3.org/2000/svg">
<path opacity="0.4" d="M18 9V12.517C18 12.668 17.8861 12.789 17.7371 12.808C14.9241 13.17 12.75 15.59 12.75 18.5C12.75 19.229 12.8909 19.931 13.1509 20.579C13.2319 20.781 13.0959 21 12.8789 21H6C4 21 3 20 3 18V6C3 4 4 3 6 3H12V6C12 7.657 13.343 9 15 9H18Z" fill="#17181D"/>
<path d="M15 9H18L12 3V6C12 8 13 9 15 9Z" fill="#17181D"/>
<path d="M14 12.75H7C6.586 12.75 6.25 12.414 6.25 12C6.25 11.586 6.586 11.25 7 11.25H14C14.414 11.25 14.75 11.586 14.75 12C14.75 12.414 14.414 12.75 14 12.75ZM11.75 16C11.75 15.586 11.414 15.25 11 15.25H7C6.586 15.25 6.25 15.586 6.25 16C6.25 16.414 6.586 16.75 7 16.75H11C11.414 16.75 11.75 16.414 11.75 16Z" fill="#17181D"/>
<path d="M22.6115 19.7296C22.161 19.4758 21.8828 19.0083 21.8816 18.503C21.8803 17.9954 22.1585 17.5266 22.6115 17.2716L22.7524 17.1926L21.7784 15.558L21.6387 15.6357C21.1845 15.8895 20.6258 15.8895 20.1728 15.6345C19.7223 15.3807 19.4455 14.9143 19.4455 14.4091C19.4455 14.3216 19.3726 14.25 19.2816 14.25H17.6615C17.5716 14.25 17.4975 14.3216 17.4975 14.4091C17.4975 14.9143 17.2205 15.3807 16.7699 15.6345C16.3169 15.8895 15.7582 15.8907 15.304 15.6357C15.2275 15.592 15.128 15.6187 15.0843 15.6928L14.2719 17.0566C14.227 17.1307 14.2535 17.2266 14.33 17.2704L14.3324 17.2716C14.783 17.5254 15.06 17.9918 15.0612 18.4958C15.0624 19.0034 14.7842 19.4734 14.3324 19.7284L14.33 19.7296C14.2535 19.7734 14.227 19.8693 14.2719 19.9434L15.0843 21.306C15.1293 21.3813 15.2275 21.4068 15.3052 21.3631C15.7582 21.1093 16.3169 21.1093 16.7699 21.3643C17.2205 21.6181 17.4976 22.0857 17.4963 22.5909C17.4963 22.6784 17.5689 22.75 17.66 22.75H19.2827C19.3726 22.75 19.4467 22.6796 19.4467 22.5921C19.4467 22.0869 19.7235 21.6206 20.174 21.3667C20.627 21.1117 21.1857 21.1105 21.6399 21.3655C21.7164 21.4092 21.8147 21.3825 21.8596 21.3084L22.6723 19.9446C22.7173 19.8705 22.6904 19.7746 22.6139 19.7309L22.6115 19.7296ZM18.5261 19.7151C17.8557 19.7151 17.3054 19.171 17.3054 18.5006C17.3054 17.8302 17.8435 17.2862 18.5139 17.2862H18.5261C19.1977 17.2862 19.7405 17.8302 19.7405 18.5006C19.7405 19.171 19.1965 19.7151 18.5261 19.7151Z" fill="#17181D"/>
</svg>
