<svg width="24" height="24" viewBox="0 0 24 24" fill="none" xmlns="http://www.w3.org/2000/svg">
<path d="M19.9603 15.2101L15.2003 19.98C13.8303 21.34 12.4204 21.34 11.0604 19.98L9.57031 18.48L18.4703 9.58008L19.9603 11.0701C21.3703 12.4801 21.3203 13.8401 19.9603 15.2101Z" fill="#17181D"/>
<path opacity="0.4" d="M18.47 9.58002L9.56995 18.48L3.85999 12.77C3.30999 12.22 3 11.47 3 10.7V4.95001C3 3.87001 3.86995 3 4.94995 3H10.6899C11.4599 3 12.21 3.30999 12.76 3.85999L18.47 9.58002Z" fill="#17181D"/>
<path d="M7.00195 8C6.45195 8 6 7.552 6 7C6 6.448 6.44204 6 6.99304 6H7.00305C7.55405 6 8.00098 6.448 8.00098 7C8.00098 7.552 7.55395 8 7.00195 8Z" fill="#17181D"/>
</svg>
