<svg width="24" height="24" viewBox="0 0 24 24" fill="none" xmlns="http://www.w3.org/2000/svg">
<path opacity="0.4" d="M21 11.9495V17.9995C21 19.9995 20 20.9995 18 20.9995H6C4 20.9995 3 19.9995 3 17.9995V11.9395C3.3 12.2895 3.68 12.5595 4.13 12.7395C5.23 13.1695 6.74 13.6796 8.5 14.0396C8.91 14.1196 9.30999 13.9195 9.53999 13.5795C10.08 12.7695 10.98 12.1796 12 12.1796C13.02 12.1796 13.92 12.7695 14.46 13.5795C14.7 13.9195 15.1 14.1196 15.51 14.0396C17.27 13.6796 18.78 13.1695 19.87 12.7395C20.31 12.5595 20.7 12.2895 21 11.9495Z" fill="#17181D"/>
<path d="M21 9V11.95C20.7 12.29 20.31 12.56 19.87 12.74C18.78 13.17 17.27 13.68 15.51 14.04C15.1 14.12 14.7 13.92 14.46 13.58C13.92 12.77 13.02 12.1801 12 12.1801C10.98 12.1801 10.08 12.77 9.53999 13.58C9.30999 13.92 8.91 14.12 8.5 14.04C6.74 13.68 5.23 13.17 4.13 12.74C3.68 12.56 3.3 12.2899 3 11.9399V9C3 7 4 6 6 6H18C20 6 21 7 21 9Z" fill="#17181D"/>
<path opacity="0.4" d="M16.75 4.5V6H15.25V4.5C15.25 4.36 15.14 4.25 15 4.25H9C8.86 4.25 8.75 4.36 8.75 4.5V6H7.25V4.5C7.25 3.54 8.03 2.75 9 2.75H15C15.96 2.75 16.75 3.54 16.75 4.5Z" fill="white"/>
<path d="M12.002 16C11.451 16 11 15.552 11 15C11 14.448 11.443 14 11.994 14H12.002C12.553 14 13 14.448 13 15C13 15.552 12.553 16 12.002 16Z" fill="white"/>
</svg>
