<svg width="24" height="24" viewBox="0 0 24 24" fill="none" xmlns="http://www.w3.org/2000/svg">
<path opacity="0.4" d="M17 9C15 9 14 8 14 6V3H8C6 3 5 4 5 6V18C5 20 6 21 8 21H17C19 21 20 20 20 18V9H17Z" fill="#17181D"/>
<path d="M17 9H20L14 3V6C14 8 15 9 17 9Z" fill="white"/>
<path d="M15.885 15.512C15.514 15.303 15.2849 14.918 15.2839 14.502C15.2829 14.084 15.512 13.698 15.885 13.488L16.0009 13.423L15.1989 12.077L15.084 12.141C14.71 12.35 14.2499 12.35 13.8769 12.14C13.5059 11.931 13.278 11.547 13.278 11.131C13.278 11.059 13.218 11 13.143 11H11.8091C11.7351 11 11.674 11.059 11.674 11.131C11.674 11.547 11.4459 11.931 11.0749 12.14C10.7019 12.35 10.2419 12.351 9.86789 12.141C9.80489 12.105 9.72298 12.127 9.68698 12.188L9.01804 13.311C8.98104 13.372 9.00289 13.451 9.06589 13.487L9.06784 13.488C9.43884 13.697 9.66694 14.081 9.66794 14.496C9.66894 14.914 9.43984 15.301 9.06784 15.511L9.06589 15.512C9.00289 15.548 8.98104 15.627 9.01804 15.688L9.68698 16.81C9.72398 16.872 9.80487 16.893 9.86887 16.857C10.2419 16.648 10.7019 16.648 11.0749 16.858C11.4459 17.067 11.6741 17.452 11.6731 17.868C11.6731 17.94 11.7328 17.999 11.8078 17.999H13.144C13.218 17.999 13.279 17.941 13.279 17.869C13.279 17.453 13.5069 17.069 13.8779 16.86C14.2509 16.65 14.7109 16.649 15.0849 16.859C15.1479 16.895 15.2288 16.873 15.2658 16.812L15.935 15.689C15.972 15.628 15.9499 15.549 15.8869 15.513L15.885 15.512ZM12.521 15.5C11.969 15.5 11.5158 15.052 11.5158 14.5C11.5158 13.948 11.959 13.5 12.511 13.5H12.521C13.074 13.5 13.521 13.948 13.521 14.5C13.521 15.052 13.073 15.5 12.521 15.5Z" fill="white"/>
</svg>
