<?xml version="1.0" encoding="iso-8859-1"?>
<!-- Generator: Adobe Illustrator 19.0.0, SVG Export Plug-In . SVG Version: 6.00 Build 0)  -->
<svg version="1.1" id="Capa_1" xmlns="http://www.w3.org/2000/svg" xmlns:xlink="http://www.w3.org/1999/xlink" x="0px" y="0px"
	 viewBox="0 0 512.001 512.001" style="enable-background:new 0 0 512.001 512.001;" xml:space="preserve">
<g>
	<g>
		<path d="M281.752,12.322h-24.503c-5.79,0-10.5,4.71-10.5,10.5v24.502c0,5.79,4.71,10.5,10.5,10.5h24.503
			c5.79,0,10.5-4.71,10.5-10.5V22.822C292.252,17.032,287.542,12.322,281.752,12.322z M277.252,42.824h-15.503V27.322h15.503V42.824
			z"/>
	</g>
</g>
<g>
	<g>
		<path d="M121.541,328.367H97.037c-5.79,0-10.5,4.71-10.5,10.5v24.502c0,5.79,4.71,10.5,10.5,10.5h24.504
			c5.79,0,10.5-4.71,10.5-10.5v-24.502C132.041,333.078,127.331,328.367,121.541,328.367z M117.041,358.869h-15.504v-15.502h15.504
			V358.869z"/>
	</g>
</g>
<g>
	<g>
		<path d="M65.143,34.67H40.639c-5.79,0-10.5,4.711-10.5,10.5v24.503c0,5.789,4.71,10.5,10.5,10.5h24.504
			c5.79,0,10.5-4.711,10.5-10.5V45.17C75.643,39.381,70.933,34.67,65.143,34.67z M60.643,65.173H45.139V49.67h15.504V65.173z"/>
	</g>
</g>
<g>
	<g>
		<path d="M501.179,339.925l-33.974-60.223v-35.379c0-0.281-0.009-0.56-0.025-0.834c-1.745-28.724-10.943-56.644-26.602-80.742
			c-14.351-22.083-33.983-40.722-56.776-53.902c-2.093-1.209-4.475-1.849-6.89-1.849c-3.679,0-7.137,1.432-9.737,4.033l-3.571,3.571
			c-2.834-1.215-5.707-2.352-8.615-3.393c-7.558-19.444-26.085-32.248-47.262-32.248c-13.633,0-26.455,5.384-35.943,14.937
			c-4.978-1.597-10.15-2.403-15.442-2.403c-1.058,0-2.108,0.039-3.153,0.103V80.18c0-6.893-5.607-12.5-12.5-12.5h-71.472V52.598
			c10.888-3.455,18.8-13.655,18.8-25.671C188.016,12.079,175.937,0,161.09,0c-14.847,0-26.926,12.079-26.926,26.927
			c0,12.472,8.524,22.987,20.052,26.034V70.18c0,6.893,5.607,12.5,12.5,12.5h71.472v12.151c-8.992,3.431-16.832,9.363-22.58,17.115
			h-87.137v-4.751c0-5.79-4.71-10.5-10.5-10.5H93.468c-5.79,0-10.5,4.71-10.5,10.5v24.502c0,5.79,4.71,10.5,10.5,10.5h24.503
			c5.79,0,10.5-4.71,10.5-10.5v-4.751h45.615c-12.633,8.019-21.493,21.459-23.283,37.026h-29.797c-4.143,0-7.5,3.358-7.5,7.5
			c0,4.142,3.357,7.5,7.5,7.5h30.295c0.778,4.267,2.086,8.411,3.927,12.337c-8.545,6.139-14.857,14.698-18.245,24.472h-23.742
			v-4.752c0-5.79-4.71-10.5-10.5-10.5H78.238c-5.79,0-10.5,4.71-10.5,10.5v24.504c0,5.79,4.71,10.5,10.5,10.5h24.502
			c5.79,0,10.5-4.71,10.5-10.5v-4.752h20.975c-0.019,0.563-0.051,1.122-0.051,1.688c0,15.14,6.751,29.353,18.253,38.949
			c0.321,0.688,0.742,1.316,1.246,1.871c0.372,2.922,0.822,5.826,1.361,8.706H87.307c-3.256-11.207-13.611-19.426-25.855-19.426
			c-14.847,0-26.926,12.079-26.926,26.926c0,14.848,12.079,26.927,26.926,26.927c12.245,0,22.6-8.218,25.855-19.427h71.331
			c0.586,1.976,1.224,3.936,1.891,5.886c-7.089,9.122-11.325,20.566-11.325,32.987c0,29.603,24.003,53.699,53.568,53.864
			c2.137,1.54,4.297,3.046,6.507,4.48c9.521,6.178,19.64,11.338,30.163,15.439v89.85c0,6.893,5.607,12.5,12.5,12.5h58.064
			c4.143,0,7.5-3.358,7.5-7.5c0-4.142-3.357-7.5-7.5-7.5h-55.565v-82.305c9.42,2.677,19.081,4.532,28.865,5.52v15.916
			c0,20.722,16.858,37.58,37.58,37.58h57.672V497h-16.553c-4.143,0-7.5,3.358-7.5,7.5c0,4.142,3.357,7.5,7.5,7.5h19.053
			c6.893,0,12.5-5.607,12.5-12.5v-25.789h36.365c20.557,0,37.281-16.858,37.281-37.58v-67.495h17.207
			c8.011,0,14.493-3.231,17.783-8.866C505.485,354.135,505.115,346.902,501.179,339.925z M161.09,38.854
			c-6.576,0-11.926-5.351-11.926-11.927c0-6.577,5.35-11.927,11.926-11.927s11.926,5.35,11.926,11.927S167.666,38.854,161.09,38.854
			z M113.471,127.197H97.968v-15.502h15.503V127.197z M98.24,231.033H82.738v-15.504H98.24V231.033z M61.451,301.421
			c-6.576,0-11.926-5.35-11.926-11.927c0-6.576,5.35-11.926,11.926-11.926s11.927,5.35,11.927,11.926
			C73.378,296.071,68.027,301.421,61.451,301.421z M203.076,374.739c-21.434,0-38.873-17.438-38.873-38.872
			c0-21.435,17.438-38.873,38.873-38.873c21.434,0,38.871,17.439,38.871,38.873C241.947,357.301,224.509,374.739,203.076,374.739z
			 M341.724,458.713h-20.836c-12.451-0.002-22.581-10.131-22.581-22.582v-22.842c0-3.974-3.099-7.257-7.065-7.487
			c-23.735-1.376-46.862-8.359-67.361-20.245c19.405-8.155,33.067-27.355,33.067-49.689c0-1.748-0.091-3.475-0.254-5.181
			c13.965,1.688,27.058,6.238,38.683,13.04c-2.416,4.366-3.796,9.382-3.796,14.716c0,16.818,13.683,30.5,30.5,30.5
			c4.616,0,8.994-1.036,12.92-2.88c6.762,13.552,10.58,28.819,10.58,44.966C345.581,440.456,344.274,449.742,341.724,458.713z
			 M306.58,358.441c0-8.547,6.953-15.5,15.5-15.5s15.5,6.953,15.5,15.5s-6.953,15.5-15.5,15.5S306.58,366.988,306.58,358.441z
			 M452.205,436.131c0,12.451-9.995,22.58-22.281,22.58H408.58v-62.27c0-1.355,1.145-2.5,2.5-2.5h41.125V436.131z M489.242,352.205
			c-0.402,0.689-2.086,1.431-4.83,1.431h-24.707c-4.143,0-7.5,3.358-7.5,7.5v17.806H411.08c-9.649,0-17.5,7.851-17.5,17.5v62.27
			h-36.365c2.218-9.023,3.365-18.292,3.365-27.684c0-19.797-4.99-38.446-13.766-54.772c3.622-5.016,5.766-11.168,5.766-17.814
			c0-16.818-13.683-30.5-30.5-30.5c-5.928,0-11.462,1.706-16.148,4.644c-15.61-9.779-33.698-15.943-53.091-17.329
			c-6.513-15.668-20.214-27.615-36.966-31.713l18.435-18.435c2.929-2.929,2.929-7.678,0-10.606c-2.93-2.929-7.678-2.929-10.607,0
			l-28.011,28.012c-8.464,1.166-16.305,4.297-23.045,8.929c-1.469-5.142-2.632-10.376-3.485-15.69h13.861c4.143,0,7.5-3.358,7.5-7.5
			c0-4.142-3.357-7.5-7.5-7.5h-19.968c-8.736-6.755-13.891-17.171-13.891-28.283c0-12.943,6.89-24.676,18.072-31.041h18.313v26.654
			c0,4.142,3.357,7.5,7.5,7.5s7.5-3.358,7.5-7.5V201.43h20.073c4.143,0,7.5-3.358,7.5-7.5c0-4.142-3.357-7.5-7.5-7.5h-51.045
			c-2.69-5.102-4.12-10.774-4.12-16.624c0-19.706,16.032-35.739,35.738-35.739c2.191,0,4.367,0.208,6.512,0.606v25.734
			c0,4.142,3.357,7.5,7.5,7.5s7.5-3.358,7.5-7.5v-7.539h40.527c4.143,0,7.5-3.358,7.5-7.5c0-4.142-3.357-7.5-7.5-7.5h-40.527v-7.711
			c5.086-14.198,18.461-23.662,33.634-23.662c5.046,0,9.938,1.041,14.539,3.094c3.12,1.391,6.783,0.5,8.915-2.168
			c5.236-6.554,12.44-10.955,20.432-12.66v30.136c0,4.142,3.357,7.5,7.5,7.5s7.5-3.358,7.5-7.5V94.741
			c12.558,2.648,22.838,11.852,26.697,24.552c0.709,2.334,2.509,4.177,4.824,4.941c1.789,0.591,3.564,1.229,5.326,1.895
			l-49.334,49.333h-42.014c-4.143,0-7.5,3.358-7.5,7.5c0,4.142,3.357,7.5,7.5,7.5h27.014l-30.038,30.039
			c-2.929,2.929-2.929,7.678,0,10.606c2.93,2.929,7.678,2.929,10.607,0L377.11,122.306c20.409,11.974,37.993,28.767,50.89,48.613
			c14.249,21.928,22.619,47.336,24.205,73.403v37.349c0,1.291,0.333,2.56,0.968,3.685l34.941,61.939
			C489.463,349.686,489.645,351.516,489.242,352.205z"/>
	</g>
</g>
<g>
	<g>
		<path d="M203.076,305.962c-16.49,0-29.905,13.415-29.905,29.905c0,16.489,13.415,29.904,29.905,29.904
			c16.489,0.001,29.904-13.415,29.904-29.904C232.98,319.377,219.565,305.962,203.076,305.962z M203.076,350.771
			c-8.219,0.001-14.905-6.686-14.905-14.904c0-8.219,6.687-14.905,14.905-14.905c8.219,0,14.904,6.686,14.904,14.905
			C217.98,344.085,211.294,350.771,203.076,350.771z"/>
	</g>
</g>
<g>
	<g>
		<path d="M71.005,163.973H60.361c-3.257-11.208-13.611-19.427-25.855-19.427c-14.847,0-26.926,12.079-26.926,26.927
			c0,14.847,12.079,26.926,26.926,26.926c12.244-0.001,22.598-8.219,25.855-19.426h10.644c4.143,0,7.5-3.358,7.5-7.5
			C78.505,167.331,75.148,163.973,71.005,163.973z M34.506,183.398c-6.576,0-11.926-5.35-11.926-11.926
			c0-6.577,5.35-11.927,11.926-11.927s11.926,5.35,11.926,11.927C46.432,178.048,41.082,183.398,34.506,183.398z"/>
	</g>
</g>
<g>
	<g>
		<path d="M424.903,244.941H364.08c-6.893,0-12.5,5.607-12.5,12.5v20.08c0,6.893,5.607,12.5,12.5,12.5h60.823
			c6.892,0,12.5-5.607,12.5-12.5v-20.08C437.403,250.549,431.796,244.941,424.903,244.941z M422.403,275.022H366.58v-15.08h55.823
			V275.022z"/>
	</g>
</g>
<g>
</g>
<g>
</g>
<g>
</g>
<g>
</g>
<g>
</g>
<g>
</g>
<g>
</g>
<g>
</g>
<g>
</g>
<g>
</g>
<g>
</g>
<g>
</g>
<g>
</g>
<g>
</g>
<g>
</g>
</svg>
