<svg id="Layer_1" viewBox="0 0 512 512" xmlns="http://www.w3.org/2000/svg" data-name="Layer 1"><path d="m352.844 236.871a13.13 13.13 0 0 1 -13.113 13.1h-93.4l.047-64.237 25.9-14.963a18.042 18.042 0 1 0 -5.849-13.279 16.718 16.718 0 0 0 .236 2.679l-29.294 16.9a6.005 6.005 0 0 0 -2.971 5.189l-.048 67.709h-5.141a13.131 13.131 0 0 1 -13.114-13.1v-110.534a13.129 13.129 0 0 1 13.114-13.1h93.4v64.242l-25.9 14.948a18.049 18.049 0 1 0 5.849 13.293 16.952 16.952 0 0 0 -.189-2.7l29.246-16.882a6.064 6.064 0 0 0 3.019-5.2v-67.7h5.095a13.128 13.128 0 0 1 13.113 13.1zm57.785-73.328a18.092 18.092 0 0 0 -17.029 12.057h-28.727v-32.147h11.179a18.053 18.053 0 1 0 0-12h-11.179v-5.118a25.151 25.151 0 0 0 -25.142-25.1h-5.095v-11.235a18.043 18.043 0 1 0 -12.028 0v11.23h-32.124v-28.746a18.066 18.066 0 1 0 -11.982 0v28.746h-32.17v-11.23a18.066 18.066 0 1 0 -11.982 0v11.23h-5.141a25.11 25.11 0 0 0 -25.095 25.1v5.118h-11.227a18.057 18.057 0 1 0 0 12h11.227v32.152h-28.775a18.053 18.053 0 1 0 0 12h28.775v32.143h-11.227a18.057 18.057 0 1 0 0 12h11.227v5.128a25.1 25.1 0 0 0 25.1 25.1h5.141v11.222a18.02 18.02 0 1 0 11.982 0v-11.223h32.163v28.751a18.02 18.02 0 1 0 11.982 0v-28.751h32.124v11.222a18.043 18.043 0 1 0 12.028 0v-11.222h5.095a25.146 25.146 0 0 0 25.142-25.1v-5.128h11.179a18.052 18.052 0 1 0 0-12h-11.177v-32.142h28.727a18.04 18.04 0 1 0 17.029-24.057zm25.991 141.278c44.011-63.62 43.916-149.089-.283-212.671a186.975 186.975 0 0 0 -215.289-69.516.986.986 0 0 0 -.236.089 175.293 175.293 0 0 0 -121.8 199.628 5.863 5.863 0 0 1 -.8 4.25l-55.754 89.748a.837.837 0 0 0 -.047.982.855.855 0 0 0 .8.551l55.19 4.84a6.022 6.022 0 0 1 5.472 5.981v91.937a21.03 21.03 0 0 0 20.991 21h60.709a18.979 18.979 0 0 1 18.871 16.86l4.528 39.959a1.01 1.01 0 0 0 .991.891l214.629.637a.867.867 0 0 0 .8-.377.93.93 0 0 0 .189-.854 384.333 384.333 0 0 1 -5.189-154.037 94.757 94.757 0 0 1 16.227-39.9zm-92.503-295.178a197.173 197.173 0 0 0 -126.937 1.627 187.37 187.37 0 0 0 -130.38 210.954l-54.529 87.8a13.019 13.019 0 0 0 9.9 19.807l49.671 4.359v86.45a33.043 33.043 0 0 0 33.02 33h60.709a6.864 6.864 0 0 1 6.935 6.212l4.575 39.959a12.967 12.967 0 0 0 12.878 11.538l214.581.642h.048a13 13 0 0 0 12.641-16.02 372.687 372.687 0 0 1 -5-149.259 82.787 82.787 0 0 1 14.246-35.062 198.645 198.645 0 0 0 -102.358-302.007z" fill-rule="evenodd"/></svg>