<svg width="24" height="24" viewBox="0 0 24 24" fill="none" xmlns="http://www.w3.org/2000/svg">
<path opacity="0.4" d="M16 5H17C19 5 20 6 20 8V18C20 20 19 21 17 21H7C5 21 4 20 4 18V8C4 6 5 5 7 5H8" fill="#17181D"/>
<path d="M16 4.5V5.5C16 6.5 15.5 7 14.5 7H9.5C8.5 7 8 6.5 8 5.5V4.5C8 3.5 8.5 3 9.5 3H14.5C15.5 3 16 3.5 16 4.5Z" fill="#17181D"/>
<path d="M11.98 11.7796L14.22 14.0196L10.22 17.9996H8V15.7796L11.98 11.7796ZM15.74 11.2496L14.75 10.2596C14.4 9.90957 13.84 9.90957 13.49 10.2596L12.6799 11.0796L14.9199 13.3196L15.74 12.5096C16.09 12.1596 16.09 11.5996 15.74 11.2496Z" fill="#17181D"/>
</svg>
