<svg width="24" height="24" viewBox="0 0 24 24" fill="none" xmlns="http://www.w3.org/2000/svg">
<path opacity="0.4" d="M12 22C6.527 22 2 17.522 2 12C2 6.478 6.43797 2 11.91 2C16.626 2 20.916 5.30402 21.82 9.77802C22.921 15.334 18.683 16.445 16.459 16.445H14.234C11.019 16.445 10.968 18.658 12.281 19.399C14.062 20.404 13.867 22 12 22Z" fill="#17181D"/>
<path d="M17.0206 11.25C16.3306 11.25 15.7656 10.69 15.7656 10C15.7656 9.31 16.3206 8.75 17.0106 8.75H17.0206C17.7106 8.75 18.2706 9.31 18.2706 10C18.2706 10.69 17.7106 11.25 17.0206 11.25ZM11.2706 7C11.2706 6.31 10.7106 5.75 10.0206 5.75H10.0106C9.32062 5.75 8.76562 6.31 8.76562 7C8.76562 7.69 9.32963 8.25 10.0206 8.25C10.7116 8.25 11.2706 7.69 11.2706 7ZM15.2706 7C15.2706 6.31 14.7106 5.75 14.0206 5.75H14.0106C13.3206 5.75 12.7656 6.31 12.7656 7C12.7656 7.69 13.3296 8.25 14.0206 8.25C14.7116 8.25 15.2706 7.69 15.2706 7ZM8.27063 10C8.27063 9.31 7.71063 8.75 7.02063 8.75H7.01062C6.32062 8.75 5.76562 9.31 5.76562 10C5.76562 10.69 6.32963 11.25 7.02063 11.25C7.71163 11.25 8.27063 10.69 8.27063 10ZM8.27063 14C8.27063 13.31 7.71063 12.75 7.02063 12.75H7.01062C6.32062 12.75 5.76562 13.31 5.76562 14C5.76562 14.69 6.32963 15.25 7.02063 15.25C7.71163 15.25 8.27063 14.69 8.27063 14Z" fill="white"/>
</svg>
