<svg width="24" height="24" viewBox="0 0 24 24" fill="none" xmlns="http://www.w3.org/2000/svg">
<g opacity="0.4">
<path d="M6.5 7V18C6.5 20 7.5 21 9.5 21H14.5C16.5 21 17.5 20 17.5 18V7H6.5Z" fill="#17181D"/>
</g>
<path d="M21.75 4.5V10.45C21.75 11.86 20.91 12.7 19.5 12.7H17.5V7H6.5V12.7H4.5C3.09 12.7 2.25 11.86 2.25 10.45V4.5C2.25 3.09 3.09 2.25 4.5 2.25H19.5C20.91 2.25 21.75 3.09 21.75 4.5Z" fill="#17181D"/>
<path d="M12 14.5C13.2426 14.5 14.25 13.4926 14.25 12.25C14.25 11.0074 13.2426 10 12 10C10.7574 10 9.75 11.0074 9.75 12.25C9.75 13.4926 10.7574 14.5 12 14.5Z" fill="white"/>
<path d="M12 18.5049C12.5523 18.5049 13 18.0572 13 17.5049C13 16.9526 12.5523 16.5049 12 16.5049C11.4477 16.5049 11 16.9526 11 17.5049C11 18.0572 11.4477 18.5049 12 18.5049Z" fill="white"/>
</svg>
