<svg width="24" height="24" viewBox="0 0 24 24" fill="none" xmlns="http://www.w3.org/2000/svg">
<path opacity="0.4" d="M4.94995 17.2119C3.72995 15.8919 3 14.121 3 12.001C3 6.99998 7.03 4 12 4C16.97 4 21 6.99998 21 12.001C21 17.002 16.97 20.002 12 20.002C10.72 20.002 9.50991 19.8021 8.40991 19.4221C7.06991 20.8521 4.87996 21.0419 3.45996 20.9919C3.02996 20.9819 2.83992 20.4321 3.16992 20.1521C4.25992 19.2731 4.79995 18.1729 4.94995 17.2119Z" fill="#17181D"/>
<path d="M11.9961 13.6124C11.9141 13.6124 11.832 13.5985 11.751 13.5695C11.366 13.4325 11.1571 13.0234 11.2881 12.6354C11.4911 12.0344 12.0849 11.5864 12.5139 11.3024C13.1499 10.8794 13.1569 10.4504 13.1069 10.1654C13.0289 9.72443 12.652 9.34643 12.21 9.26943C11.874 9.20843 11.5371 9.29533 11.2771 9.51333C11.0211 9.72833 10.875 10.0424 10.875 10.3754C10.875 10.7894 10.539 11.1254 10.125 11.1254C9.711 11.1254 9.375 10.7894 9.375 10.3754C9.375 9.59739 9.71699 8.8644 10.313 8.3644C10.909 7.8644 11.693 7.6534 12.47 7.7914C13.529 7.9774 14.398 8.84642 14.584 9.90542C14.769 10.9574 14.3289 11.8964 13.3459 12.5514C12.7889 12.9204 12.713 13.1084 12.71 13.1154C12.596 13.4184 12.3041 13.6124 11.9961 13.6124ZM13.019 15.5004C13.019 14.9484 12.572 14.5004 12.019 14.5004H12.009C11.457 14.5004 11.0139 14.9484 11.0139 15.5004C11.0139 16.0524 11.467 16.5004 12.019 16.5004C12.571 16.5004 13.019 16.0524 13.019 15.5004Z" fill="#17181D"/>
</svg>
