<svg width="16" height="16" viewBox="0 0 16 16" fill="none" xmlns="http://www.w3.org/2000/svg">
<path d="M10.0001 13.8333C9.72408 13.8333 9.50008 13.6093 9.50008 13.3333C9.50008 13.0573 9.72408 12.8333 10.0001 12.8333C10.2794 12.8333 10.5715 12.6794 10.8701 12.376L13.6927 9.54668C14.0074 9.23468 14.1661 8.94267 14.1667 8.67733C14.1674 8.41 14.0081 8.11468 13.6934 7.80001L9.42676 3.52666C9.22009 3.31666 8.94277 3.19199 8.64144 3.17265C8.36544 3.15465 8.15606 2.91666 8.17472 2.64132C8.19206 2.36532 8.45474 2.16002 8.7054 2.17469C9.25407 2.21002 9.76278 2.44069 10.1375 2.82402L14.4007 7.094C14.9107 7.60333 15.1681 8.13735 15.1667 8.68002C15.1661 9.22135 14.9074 9.75132 14.3994 10.256L11.5807 13.0807C11.0901 13.5787 10.5574 13.8333 10.0001 13.8333ZM11.3834 9.90202L8.56144 12.7267C7.75344 13.536 6.91674 13.536 6.10807 12.7267L1.84074 8.45533C1.51541 8.13 1.33276 7.68801 1.33276 7.22734V3.82402C1.33276 3.18469 1.85075 2.66667 2.48942 2.66667H5.8894C6.3494 2.66667 6.79071 2.84934 7.11605 3.17534L11.3834 7.44666C12.2194 8.284 12.1914 9.09269 11.3834 9.90202ZM4.36678 5.03333C4.36678 4.66533 4.06942 4.36667 3.70142 4.36667H3.69474C3.32808 4.36667 3.03271 4.66533 3.03271 5.03333C3.03271 5.40133 3.3341 5.7 3.70076 5.7C4.06943 5.7 4.36678 5.40133 4.36678 5.03333Z" fill="#8372DD"/>
</svg>
