<svg width="24" height="24" viewBox="0 0 24 24" fill="none" xmlns="http://www.w3.org/2000/svg">
<path opacity="0.4" d="M10.4652 5.56991C10.9042 4.86891 11.5112 4.28691 12.2262 3.85891C14.0132 2.78891 15.9113 2.80889 17.4363 3.42489L15.2653 5.60589C14.6893 6.18489 14.6903 7.13091 15.2673 7.70791L16.2923 8.7329C16.8703 9.3099 17.8162 9.31189 18.3942 8.73489L20.5752 6.5639C21.1912 8.0879 21.2112 9.9969 20.1312 11.7839C19.6872 12.5309 19.0513 13.1669 18.2933 13.6209C17.0123 14.3929 15.6592 14.5949 14.4392 14.4179C13.9822 14.3519 13.5233 14.5139 13.1973 14.8409L7.87424 20.1629C6.75924 21.2779 4.95125 21.2779 3.83625 20.1629C2.72125 19.0479 2.72125 17.2399 3.83625 16.1249L9.15925 10.8019C9.48525 10.4759 9.64925 10.0169 9.58225 9.5599C9.40425 8.3349 9.60725 6.98692 10.3883 5.69592C10.4143 5.65392 10.4392 5.61191 10.4652 5.56991Z" fill="#17181D"/>
<path d="M6.02063 19C5.46863 19 5.01562 18.552 5.01562 18C5.01562 17.448 5.45762 17 6.01062 17H6.02063C6.57263 17 7.02063 17.448 7.02063 18C7.02063 18.552 6.57263 19 6.02063 19Z" fill="white"/>
</svg>
