<svg width="24" height="24" viewBox="0 0 24 24" fill="none" xmlns="http://www.w3.org/2000/svg">
<path d="M17 21C18.1046 21 19 20.1046 19 19C19 17.8954 18.1046 17 17 17C15.8954 17 15 17.8954 15 19C15 20.1046 15.8954 21 17 21Z" fill="#17181D"/>
<path d="M7 21C8.10457 21 9 20.1046 9 19C9 17.8954 8.10457 17 7 17C5.89543 17 5 17.8954 5 19C5 20.1046 5.89543 21 7 21Z" fill="#17181D"/>
<path opacity="0.4" d="M21.7 12.96C21.7 12.89 21.68 12.82 21.66 12.76C21.62 12.57 21.56 12.37 21.49 12.18L20.45 9.60999C19.99 8.44999 19.51 7.25 16.97 7.25H14.75V5.5C14.75 4.26 13.74 3.25 12.5 3.25H4.5C3.26 3.25 2.25 4.26 2.25 5.5V16.5C2.25 17.22 2.58999 17.85 3.10999 18.26C3.15699 18.296 3.27796 18.355 3.32996 18.36C3.45696 18.372 3.57499 18.286 3.60999 18.17C3.96999 16.64 5.36 15.5 7 15.5C8.76 15.5 10.21 16.8 10.46 18.49C10.48 18.64 10.6 18.75 10.75 18.75H13.25C13.4 18.75 13.52 18.64 13.54 18.49C13.79 16.8 15.24 15.5 17 15.5C18.64 15.5 20.03 16.64 20.39 18.17C20.421 18.296 20.5271 18.36 20.6541 18.36C20.7211 18.36 20.829 18.312 20.89 18.26C21.41 17.85 21.75 17.22 21.75 16.5V13.58C21.75 13.37 21.73 13.16 21.7 12.96ZM14.75 12.25V8.75H16.97C18.49 8.75 18.63 9.10998 19.05 10.17L19.9 12.25H14.75Z" fill="#17181D"/>
<path d="M10.75 13C10.75 13.41 10.41 13.75 10 13.75H2.25V12.25H10C10.41 12.25 10.75 12.59 10.75 13Z" fill="#17181D"/>
<path d="M19.9 12.25H14.75V8.75H16.97C18.49 8.75 18.63 9.10998 19.05 10.17L19.9 12.25Z" fill="#25314C"/>
</svg>
