<svg width="24" height="24" viewBox="0 0 24 24" fill="none" xmlns="http://www.w3.org/2000/svg">
<path opacity="0.4" d="M20 10.84V17.5C20 19.5 19 20.5 17 20.5H14C13.834 20.5 14.03 20.366 14.03 20.2L13 18C13.983 18.166 13 17.003 13 18C13 16.788 11.751 17.79 13 18L14.5 20.5C14.5 20.666 9.89598 20.5 9.72998 20.5H7C5 20.5 4 19.5 4 17.5V10.84C4.11 10.93 4.22999 11.02 4.35999 11.09C4.80999 11.35 5.34002 11.5 5.90002 11.5C7.23002 11.5 8.53995 10.67 8.94995 9.5C9.35995 10.67 10.67 11.5 12 11.5C13.33 11.5 14.64 10.67 15.05 9.5C15.46 10.67 16.77 11.5 18.1 11.5C18.66 11.5 19.19 11.35 19.64 11.09C19.77 11.02 19.89 10.93 20 10.84Z" fill="#25314C"/>
<path d="M7.50498 3C5.00498 3 4.62193 3.81999 4.20993 5.03799L3.17001 8.11099C2.73201 9.40499 3.17499 10.902 4.36899 11.592C4.81799 11.852 5.34302 12 5.90402 12C7.23402 12 8.54295 11.17 8.95895 10C9.36495 11.17 10.674 12 12.004 12C13.334 12 14.6429 11.17 15.0489 10C15.4649 11.17 16.775 12 18.104 12C18.666 12 19.19 11.852 19.639 11.592C20.833 10.902 21.276 9.40499 20.838 8.11099L19.7979 5.03799C19.3859 3.81999 19.003 3 16.503 3H7.50498Z" fill="#25314C"/>
<path d="M10.1159 14.5C10.1159 13.6727 10.7886 13 11.6159 13C12.4431 13 13.1159 13.6727 13.1159 14.5C13.1159 15.3273 12.4431 16 11.6159 16C10.7886 16 10.1159 15.3273 10.1159 14.5ZM12.3625 16.75H10.8625C9.33999 16.75 8.79999 17.8649 8.79999 18.8196C8.79999 19.6735 9.25413 20.125 10.1136 20.125H13.1113C13.9708 20.125 14.425 19.6735 14.425 18.8196C14.425 17.8649 13.885 16.75 12.3625 16.75Z" fill="#25314C"/>
</svg>
