<svg width="80" height="80" viewBox="0 0 80 80" fill="none" xmlns="http://www.w3.org/2000/svg">
<rect width="80" height="80" rx="8" fill="white" fill-opacity="0.08"/>
<path d="M42.38 43.5C42.38 44.788 41.337 45.8333 40.0467 45.8333C38.7587 45.8333 37.7014 44.788 37.7014 43.5C37.7014 42.212 38.7354 41.1666 40.0234 41.1666H40.0467C41.3347 41.1666 42.38 42.212 42.38 43.5ZM61 35.3333V51.6666C61 56.3333 58.6667 58.6666 54 58.6666H26C21.3333 58.6666 19 56.3333 19 51.6666V28.3333C19 23.6666 21.3333 21.3333 26 21.3333H35.3333L42.3333 28.3333H54C58.6667 28.3333 61 30.6666 61 35.3333ZM46.4958 43.5047C46.4935 42.5293 47.028 41.6287 47.8984 41.1387L48.1689 40.987L46.2976 37.8463L46.0293 37.9956C45.1566 38.4833 44.0832 38.4833 43.2129 37.9933C42.3472 37.5057 41.8155 36.6097 41.8155 35.639C41.8155 35.471 41.6732 35.3333 41.5005 35.3333H38.3879C38.2152 35.3333 38.0728 35.471 38.0728 35.639C38.0728 36.6097 37.5406 37.5057 36.6749 37.9933C35.8046 38.4833 34.7311 38.4856 33.8585 37.9956C33.7115 37.9116 33.5227 37.963 33.4364 38.1053L31.8755 40.7257C31.7892 40.868 31.8401 41.0523 31.9871 41.1363L31.9923 41.1387C32.8579 41.6263 33.3896 42.5223 33.3919 43.4907C33.3943 44.466 32.8603 45.3689 31.9923 45.8589L31.9894 45.8613C31.8401 45.9453 31.7915 46.1296 31.8755 46.272L33.4364 48.89C33.5227 49.0346 33.7114 49.0836 33.8608 48.9996C34.7311 48.512 35.8046 48.512 36.6749 49.002C37.5406 49.4897 38.0729 50.388 38.0706 51.3587C38.0706 51.5267 38.2106 51.6643 38.3856 51.6643H41.5028C41.6754 51.6643 41.8178 51.529 41.8178 51.361C41.8178 50.3903 42.3495 49.4943 43.2152 49.0066C44.0855 48.5166 45.1589 48.5143 46.0316 49.0043C46.1786 49.0883 46.3703 49.037 46.4543 48.8947L48.0151 46.2743C48.1015 46.132 48.0499 45.9476 47.9029 45.8636L47.9006 45.8613C47.0303 45.3736 46.4958 44.4753 46.4958 43.5047Z" fill="#FFC107"/>
</svg>
