<svg width="20" height="20" viewBox="0 0 20 20" fill="none" xmlns="http://www.w3.org/2000/svg">
<g clip-path="url(#clip0_4120_102982)">
<path d="M10.7472 2.54949C10.6069 2.26504 10.3172 2.08496 9.99996 2.08496C9.68276 2.08496 9.39307 2.26504 9.25269 2.54949L7.14506 6.82L2.43228 7.50481C2.11837 7.55042 1.85758 7.77029 1.75956 8.07197C1.66154 8.37364 1.74329 8.70481 1.97043 8.92622L5.38064 12.2503L4.5756 16.9441C4.52197 17.2567 4.65049 17.5727 4.90711 17.7591C5.16374 17.9456 5.50395 17.9702 5.78472 17.8226L9.99997 15.6065L14.2152 17.8226C14.496 17.9702 14.8362 17.9456 15.0928 17.7591C15.3494 17.5727 15.478 17.2567 15.4243 16.9441L14.6193 12.2503L18.0295 8.92622C18.2566 8.70481 18.3384 8.37364 18.2404 8.07197C18.1424 7.77029 17.8816 7.55042 17.5677 7.50481L12.8549 6.82L10.7472 2.54949Z" fill="#E8E8E8"/>
</g>
<mask id="mask0_4120_102982" style="mask-type:alpha" maskUnits="userSpaceOnUse" x="0" y="0" width="13" height="20">
<rect width="13" height="20" fill="#FFC400"/>
</mask>
<g mask="url(#mask0_4120_102982)">
<g clip-path="url(#clip1_4120_102982)">
<path d="M10.7472 2.54949C10.6069 2.26504 10.3172 2.08496 9.99996 2.08496C9.68276 2.08496 9.39307 2.26504 9.25269 2.54949L7.14506 6.82L2.43228 7.50481C2.11837 7.55042 1.85758 7.77029 1.75956 8.07197C1.66154 8.37364 1.74329 8.70481 1.97043 8.92622L5.38064 12.2503L4.5756 16.9441C4.52197 17.2567 4.65049 17.5727 4.90711 17.7591C5.16374 17.9456 5.50395 17.9702 5.78472 17.8226L9.99997 15.6065L14.2152 17.8226C14.496 17.9702 14.8362 17.9456 15.0928 17.7591C15.3494 17.5727 15.478 17.2567 15.4243 16.9441L14.6193 12.2503L18.0295 8.92622C18.2566 8.70481 18.3384 8.37364 18.2404 8.07197C18.1423 7.77029 17.8816 7.55042 17.5677 7.50481L12.8549 6.82L10.7472 2.54949Z" fill="#FAAD14"/>
</g>
</g>
<defs>
<clipPath id="clip0_4120_102982">
<rect width="16.6667" height="16.6667" fill="white" transform="translate(1.66406 1.66797)"/>
</clipPath>
<clipPath id="clip1_4120_102982">
<rect width="16.6667" height="16.6667" fill="white" transform="translate(1.66406 1.66797)"/>
</clipPath>
</defs>
</svg>
