<svg width="48" height="48" viewBox="0 0 48 48" fill="none" xmlns="http://www.w3.org/2000/svg">
<g clip-path="url(#clip0_776_38541)">
<path d="M37.4727 10.6514V16.4123C38.8351 16.1606 39.8674 14.9671 39.8674 13.5318C39.8674 12.0965 38.835 10.9031 37.4727 10.6514Z" fill="#7FB3FA"/>
<path d="M37.4727 14.1142V16.4124C38.8351 16.1607 39.8674 14.9672 39.8674 13.5319C39.8674 13.1239 39.7838 12.7357 39.6331 12.3828C39.2538 13.2713 38.4479 13.934 37.4727 14.1142Z" fill="#64A6F4"/>
<path d="M0.862219 23.0469C0.388031 23.0469 0 23.4349 0 23.9091V24.5247C0 24.9988 0.388031 25.3869 0.862219 25.3869H9.76181C10.6616 24.1938 11.5653 23.4201 12.0526 23.0469H0.862219Z" fill="#DBEDFF"/>
<path d="M3.46041 24.5256V23.9101C3.46041 23.4359 3.84834 23.0479 4.32263 23.0479H0.862219C0.388031 23.0479 0 23.4359 0 23.9101V24.5256C0 24.9998 0.388031 25.3878 0.862219 25.3878H4.32263C3.84834 25.3878 3.46041 24.9998 3.46041 24.5256Z" fill="#B5DCFF"/>
<path d="M6.85692 28.8719C6.62452 28.8719 6.39624 28.7602 6.25627 28.5532L4.2142 25.5334C3.99014 25.202 4.07714 24.7517 4.40845 24.5277C4.73986 24.3036 5.19024 24.3906 5.4142 24.7219L7.45627 27.7417C7.68033 28.0731 7.59333 28.5234 7.26202 28.7475C7.1377 28.8316 6.99652 28.8719 6.85692 28.8719Z" fill="#B5DCFF"/>
<path d="M4.34414 32.8277H5.14702C5.72836 31.617 6.55608 30.2905 7.72495 29.0843C7.85677 28.6839 8.0047 28.3042 8.16389 27.9434H4.34414C3.6983 27.9434 3.16992 28.4717 3.16992 29.1176V31.6535C3.16992 32.2994 3.69839 32.8277 4.34414 32.8277Z" fill="#7FB3FA"/>
<path d="M5.5942 31.6535V29.1176C5.5942 28.4717 6.12258 27.9434 6.76842 27.9434H4.34414C3.6983 27.9434 3.16992 28.4717 3.16992 29.1176V31.6535C3.16992 32.2994 3.6983 32.8277 4.34414 32.8277H5.14702C5.29055 32.5288 5.44927 32.2228 5.6243 31.9133C5.60527 31.8296 5.5942 31.7429 5.5942 31.6535Z" fill="#64A6F4"/>
<path d="M35.3942 17.5159L34.6945 16.0647C34.0782 15.9106 33.5201 15.7134 33.0401 15.4814C32.7862 15.7225 32.4653 15.8929 32.1074 15.961L33.4202 19.2059C33.5168 19.0139 33.642 18.8345 33.796 18.6758L34.7395 17.703C34.9193 17.5175 35.1697 17.4608 35.3942 17.5159Z" fill="#695D67"/>
<path d="M18.9897 36.8583L18.4241 36.3867H6.23931L5.82277 36.8583C5.81584 36.9822 5.81152 37.1068 5.81152 37.2324C5.81152 40.8746 8.76409 43.8271 12.4062 43.8271C16.0484 43.8271 19.0008 40.8745 19.0008 37.2324C19.0009 37.1068 18.9966 36.9822 18.9897 36.8583Z" fill="#695D67"/>
<path d="M8.84677 37.2324C8.84677 37.1068 8.85109 36.9822 8.85802 36.8583L9.27455 36.3867H6.23931L5.82277 36.8583C5.81584 36.9822 5.81152 37.1068 5.81152 37.2324C5.81152 40.8746 8.76409 43.8271 12.4062 43.8271C12.9287 43.8271 13.4363 43.7645 13.9238 43.6496C11.0136 42.9639 8.84677 40.3521 8.84677 37.2324Z" fill="#544E55"/>
<path d="M45.7803 32.2991L45.0603 32.0107H39.3261L34.9944 34.2815V35.6932C33.9973 39.861 37.1621 43.8276 41.4066 43.8276C47.4846 43.8276 50.2857 36.2961 45.7803 32.2991Z" fill="#695D67"/>
<path d="M40.0648 32.2991L40.7848 32.0107H39.3261L34.9944 34.2815V35.6932C33.9973 39.861 37.1621 43.8276 41.4066 43.8276C41.9381 43.8276 42.4439 43.7688 42.9226 43.6611C37.9271 42.5362 35.9534 35.9466 40.0648 32.2991Z" fill="#544E55"/>
<path d="M41.4066 40.8865C43.4245 40.8865 45.0604 39.2507 45.0604 37.2328C45.0604 35.2149 43.4245 33.5791 41.4066 33.5791C39.3888 33.5791 37.7529 35.2149 37.7529 37.2328C37.7529 39.2507 39.3888 40.8865 41.4066 40.8865Z" fill="#DBEDFF"/>
<path d="M40.7882 37.2329C40.7882 35.7566 41.6642 34.4858 42.9244 33.9094C42.462 33.6979 41.9484 33.5791 41.4067 33.5791C39.3889 33.5791 37.7529 35.2149 37.7529 37.2329C37.7529 39.2508 39.3888 40.8866 41.4067 40.8866C41.9484 40.8866 42.462 40.7678 42.9244 40.5563C41.6643 39.9801 40.7882 38.7092 40.7882 37.2329Z" fill="#B5DCFF"/>
<path d="M16.0405 36.8583L15.7036 36.3867H9.35345L8.77089 36.8583C8.75833 36.9813 8.75195 37.1062 8.75195 37.2324C8.75195 39.2503 10.3878 40.8862 12.4058 40.8862C14.4237 40.8862 16.0596 39.2503 16.0596 37.2324C16.0595 37.1062 16.053 36.9813 16.0405 36.8583Z" fill="#DBEDFF"/>
<path d="M11.7872 37.2324C11.7872 37.1062 11.7937 36.9813 11.8061 36.8583L12.3887 36.3867H9.35345L8.77089 36.8583C8.75833 36.9813 8.75195 37.1062 8.75195 37.2324C8.75195 39.2503 10.3878 40.8862 12.4058 40.8862C12.9475 40.8862 13.461 40.7674 13.9234 40.5559C12.6632 39.9796 11.7872 38.7087 11.7872 37.2324Z" fill="#B5DCFF"/>
<path d="M41.6775 37.9574H41.1354C40.7354 37.9574 40.4111 37.6331 40.4111 37.2331C40.4111 36.8331 40.7354 36.5088 41.1354 36.5088H41.6775C42.0775 36.5088 42.4018 36.8331 42.4018 37.2331C42.4018 37.6331 42.0775 37.9574 41.6775 37.9574Z" fill="#B5DCFF"/>
<path d="M46.7518 30.2302C45.3331 28.749 43.3364 27.8262 41.1235 27.8262C40.4573 27.8262 39.8111 27.9107 39.194 28.068L38.6014 28.2922L35.7734 33.8727L35.9597 34.2812L38.2858 33.0435C38.954 32.688 39.6993 32.502 40.4563 32.502H44.6526C45.4685 32.502 46.1191 32.211 46.622 31.8284C47.1323 31.44 47.1955 30.6932 46.7518 30.2302Z" fill="#DD636E"/>
<path d="M42.3301 27.9194C41.9368 27.8582 41.5339 27.8262 41.1235 27.8262C40.4573 27.8262 39.8111 27.9107 39.194 28.068L38.6014 28.2922L35.7734 33.8727L35.9597 34.2812L38.2858 33.0435C38.8176 32.7606 39.3986 32.587 39.9951 32.5272L42.3301 27.9194Z" fill="#DA4A54"/>
<path d="M30.5629 33.5133H27.5499C26.7349 33.5133 25.9803 33.0823 25.5654 32.3809C23.1672 28.3277 26.1664 25.5671 27.478 24.616C28.0693 24.1872 28.287 23.2126 27.6461 22.8691L26.98 22.3203H12.5413L11.9331 22.8518C11.3795 23.2371 8.69442 25.2617 7.43555 29.0848L8.24348 29.8552C8.24348 29.8552 14.3113 24.2034 19.1486 28.0425C23.9859 31.8817 18.9992 35.4578 18.9992 35.4578L19.3897 36.8586H29.6186L30.5629 36.387L31.2617 34.2813L30.5629 33.5133Z" fill="#DD636E"/>
<path d="M16.142 22.8518L16.7502 22.3203H12.5413L11.9331 22.8518C11.3795 23.2371 8.69442 25.2617 7.43555 29.0848L8.24348 29.8552C8.24348 29.8552 10.006 28.2143 12.3882 27.3014C13.7504 24.6256 15.682 23.172 16.142 22.8518Z" fill="#DA4A54"/>
<path d="M31.707 12.442C31.7499 12.439 31.7926 12.4355 31.8362 12.4355C32.8668 12.4355 33.7022 13.271 33.7022 14.3016C33.7022 14.8345 33.4776 15.3141 33.1193 15.6541C34.2323 16.192 35.763 16.5444 37.4721 16.5997V10.4629C34.8266 10.5486 32.6078 11.3457 31.707 12.442Z" fill="#DD636E"/>
<path d="M33.7021 14.3016C33.7021 14.8346 33.4775 15.3141 33.1191 15.6542C34.2321 16.192 35.7629 16.5444 37.472 16.5997V14.3016C35.9688 14.253 34.6039 13.9744 33.5394 13.542C33.6431 13.7742 33.7021 14.0308 33.7021 14.3016Z" fill="#DA4A54"/>
<path d="M34.5897 12.2431C34.2926 12.2431 34.0141 12.059 33.9078 11.7633L32.312 7.31777H30.2311C29.8311 7.31777 29.5068 6.99348 29.5068 6.59345C29.5068 6.19342 29.8311 5.86914 30.2311 5.86914H32.8216C33.1274 5.86914 33.4002 6.06105 33.5034 6.34877L35.2713 11.2739C35.4065 11.6504 35.2109 12.0653 34.8343 12.2004C34.7535 12.2293 34.6709 12.2431 34.5897 12.2431Z" fill="#B5DCFF"/>
<path d="M30.0026 8.91585C29.6026 8.91585 29.2783 8.59157 29.2783 8.19154V4.89716C29.2783 4.49713 29.6026 4.17285 30.0026 4.17285C30.4027 4.17285 30.7269 4.49713 30.7269 4.89716V8.19145C30.7269 8.59157 30.4027 8.91585 30.0026 8.91585Z" fill="#DBEDFF"/>
<path d="M17.8478 25.377L17.8476 25.3771L17.1276 25.4038C12.5283 26.2509 9.83 28.8968 8.26756 31.4337L8.46106 31.8211L7.45213 33.9821L6.91672 34.2224C6.78781 34.5715 6.68038 34.8988 6.59188 35.1954C6.34428 36.0251 6.96735 36.8582 7.83313 36.8582H19.3898C20.1998 36.8582 20.9483 36.4069 21.3084 35.6813C21.8352 34.6197 22.1731 33.5731 22.3768 32.5787C23.0614 29.2376 20.9183 26.1501 17.8478 25.377Z" fill="#E28086"/>
<path d="M7.17122 35.1951C7.25981 34.8985 7.36725 34.5712 7.49606 34.2221L8.03147 33.9818L9.04041 31.8209L8.84691 31.4334C10.4254 28.8705 13.1617 26.1952 17.8475 25.3769C17.1592 25.2035 16.4244 25.146 15.6642 25.2286C10.3333 25.8072 7.31062 28.6854 5.61816 31.4335L5.81166 31.821L4.80272 33.9819L4.26731 34.2222C4.13841 34.5713 4.03097 34.8986 3.94247 35.1952C3.69487 36.0249 4.31784 36.8581 5.18372 36.8581H8.41247C7.54669 36.8581 6.92362 36.0248 7.17122 35.1951Z" fill="#DD636E"/>
<path d="M4.26758 34.2224H9.1422C9.5952 34.2224 9.9658 33.8518 9.9658 33.3988V32.2572C9.9658 31.8042 9.5952 31.4336 9.1422 31.4336H5.61833C5.01261 32.4171 4.57714 33.3837 4.26758 34.2224Z" fill="#DD636E"/>
<path d="M5.61842 31.4336C5.0127 32.4171 4.57723 33.3836 4.26758 34.2224H7.49633C7.80598 33.3836 8.24145 32.4171 8.84717 31.4336H5.61842Z" fill="#DA4A54"/>
<path d="M18.4244 33.5521H12.6022C12.2022 33.5521 11.8779 33.2279 11.8779 32.8278C11.8779 32.4278 12.2022 32.1035 12.6022 32.1035H18.4244C18.8244 32.1035 19.1487 32.4278 19.1487 32.8278C19.1487 33.2279 18.8244 33.5521 18.4244 33.5521Z" fill="#DD636E"/>
<path d="M28.1756 20.3493L27.2995 19.8289C26.3605 19.2711 25.2238 19.1851 24.1976 19.5588C23.7981 19.7044 23.3009 19.8107 22.7012 19.8107C21.4148 19.8107 18.4613 19.3216 16.6873 19.0054C15.1921 18.739 13.637 19.1363 12.503 20.1466C12.0131 20.583 11.591 21.1401 11.3764 21.8432C11.2191 22.3587 11.6034 22.8801 12.1423 22.8801H27.4807C28.2322 22.8801 28.8414 22.2708 28.8414 21.5193C28.8414 21.0392 28.5884 20.5945 28.1756 20.3493Z" fill="#695D67"/>
<path d="M15.5482 21.8434C15.7627 21.1402 16.1849 20.5831 16.6747 20.1467C17.1112 19.7578 17.6105 19.4607 18.1444 19.2563C17.6166 19.1689 17.1172 19.082 16.6873 19.0054C15.1921 18.739 13.637 19.1362 12.503 20.1466C12.0131 20.583 11.591 21.1401 11.3764 21.8433C11.2191 22.3587 11.6034 22.8801 12.1423 22.8801H16.3141C15.7751 22.8803 15.3908 22.3588 15.5482 21.8434Z" fill="#544E55"/>
<path d="M39.241 24.7762L35.7101 17.6481C35.5003 17.2249 34.9349 17.1364 34.6061 17.4755L33.6625 18.4482C33.1355 18.9915 32.9337 19.7723 33.1316 20.5029L33.8555 23.1754C34.2427 24.605 34.1036 26.126 33.4632 27.4615L29.2379 36.2757C29.237 36.2778 29.236 36.2798 29.235 36.2818C29.1098 36.551 29.321 36.8583 29.618 36.8583H32.073C33.5489 36.8583 34.9421 36.0987 35.6758 34.8181C35.7056 34.7661 35.7343 34.7135 35.7622 34.66L39.2083 28.04C39.7394 27.0197 39.7515 25.807 39.241 24.7762Z" fill="#E28086"/>
<path d="M31.9649 36.2818C31.9659 36.2797 31.9668 36.2778 31.9678 36.2757L36.1931 27.4615C36.8334 26.126 36.9726 24.6049 36.5853 23.1754L35.8615 20.5029C35.6881 19.8629 35.8215 19.1842 36.2116 18.6606L35.7101 17.6481C35.5003 17.2249 34.9349 17.1364 34.6061 17.4755L33.6626 18.4482C33.1355 18.9915 32.9338 19.7723 33.1316 20.5029L33.8555 23.1754C34.2427 24.605 34.1036 26.126 33.4632 27.4615L29.2379 36.2757C29.2369 36.2778 29.236 36.2798 29.235 36.2818C29.1098 36.5511 29.321 36.8583 29.618 36.8583H32.073C32.1415 36.8583 32.2095 36.855 32.2776 36.8517C32.019 36.8079 31.8498 36.5292 31.9649 36.2818Z" fill="#DD636E"/>
<path d="M10.7168 12.7812H7.88266L7.43445 13.2175H4.92335L4.53373 12.7812H1.69957C1.35626 12.7812 1.0752 13.0622 1.0752 13.4056V22.5194C1.0752 22.8628 1.35616 23.1439 1.69957 23.1439H10.7168C11.0602 23.1439 11.3412 22.8629 11.3412 22.5194V13.4056C11.3412 13.0622 11.0602 12.7812 10.7168 12.7812Z" fill="#FBC481"/>
<path d="M10.7168 12.7812H7.88266L7.43445 13.2175H4.92335L4.53373 12.7812H1.69957C1.35626 12.7812 1.0752 13.0622 1.0752 13.4056V22.5194C1.0752 22.8628 1.35616 23.1439 1.69957 23.1439H10.7168C11.0602 23.1439 11.3412 22.8629 11.3412 22.5194V13.4056C11.3412 13.0622 11.0602 12.7812 10.7168 12.7812Z" fill="#FBC481"/>
<path d="M4.83241 22.5194V13.4056C4.83241 13.3218 4.84938 13.2418 4.87966 13.1686L4.53363 12.7812H1.69957C1.35626 12.7812 1.0752 13.0622 1.0752 13.4056V22.5194C1.0752 22.8628 1.35616 23.1439 1.69957 23.1439H5.45688C5.11348 23.1439 4.83241 22.8628 4.83241 22.5194Z" fill="#DD9973"/>
<path d="M4.5332 12.7812V15.9266C4.5332 16.0386 4.62489 16.1303 4.73683 16.1303H7.67852C7.79055 16.1303 7.88214 16.0387 7.88214 15.9266V12.7812H4.5332Z" fill="#D6865F"/>
<path d="M6.31989 15.9266V12.7812H4.5332V15.9266C4.5332 16.0386 4.62489 16.1303 4.73683 16.1303H6.52361C6.41158 16.1303 6.31989 16.0386 6.31989 15.9266Z" fill="#B97359"/>
<path d="M31.8367 12.3389C30.7545 12.3389 29.874 13.2193 29.874 14.3015C29.874 15.3837 30.7544 16.2641 31.8367 16.2641C32.9188 16.2641 33.7992 15.3837 33.7992 14.3015C33.7992 13.2194 32.9188 12.3389 31.8367 12.3389Z" fill="#E28086"/>
<path d="M31.8367 14.2051C31.8367 13.5152 32.1953 12.9086 32.7351 12.5585C32.4656 12.419 32.1606 12.3389 31.8367 12.3389C30.7545 12.3389 29.874 13.2193 29.874 14.3015C29.874 15.3837 30.7544 16.2641 31.8367 16.2641C32.229 16.2641 32.5939 16.1472 32.9009 15.9481C32.2698 15.6214 31.8367 14.9635 31.8367 14.2051Z" fill="#DD636E"/>
<path d="M37.4724 17.6113C37.0723 17.6113 36.748 17.287 36.748 16.887V10.1765C36.748 9.77643 37.0723 9.45215 37.4724 9.45215C37.8724 9.45215 38.1967 9.77643 38.1967 10.1765V16.887C38.1968 17.287 37.8725 17.6113 37.4724 17.6113Z" fill="#F9948A"/>
</g>
<defs>
<clipPath id="clip0_776_38541">
<rect width="48" height="48" fill="white"/>
</clipPath>
</defs>
</svg>
