<svg width="48" height="48" viewBox="0 0 48 48" fill="none" xmlns="http://www.w3.org/2000/svg">
<path d="M37.4727 10.6514V16.4123C38.8351 16.1606 39.8674 14.9671 39.8674 13.5318C39.8674 12.0965 38.835 10.9031 37.4727 10.6514Z" fill="#7FB3FA"/>
<path d="M37.4727 14.1142V16.4124C38.8351 16.1607 39.8674 14.9672 39.8674 13.5319C39.8674 13.1239 39.7838 12.7357 39.6331 12.3828C39.2538 13.2713 38.4479 13.934 37.4727 14.1142Z" fill="#64A6F4"/>
<path d="M0.862219 23.0469C0.388031 23.0469 0 23.4349 0 23.9091V24.5247C0 24.9988 0.388031 25.3869 0.862219 25.3869H9.76181C10.6616 24.1938 11.5653 23.4201 12.0526 23.0469H0.862219Z" fill="#DBEDFF"/>
<path d="M3.46041 24.5256V23.9101C3.46041 23.4359 3.84834 23.0479 4.32263 23.0479H0.862219C0.388031 23.0479 0 23.4359 0 23.9101V24.5256C0 24.9998 0.388031 25.3878 0.862219 25.3878H4.32263C3.84834 25.3878 3.46041 24.9998 3.46041 24.5256Z" fill="#B5DCFF"/>
<path d="M6.85692 28.8719C6.62452 28.8719 6.39624 28.7602 6.25627 28.5532L4.2142 25.5334C3.99014 25.202 4.07714 24.7517 4.40845 24.5277C4.73986 24.3036 5.19024 24.3906 5.4142 24.7219L7.45627 27.7417C7.68033 28.0731 7.59333 28.5234 7.26202 28.7475C7.13771 28.8316 6.99652 28.8719 6.85692 28.8719Z" fill="#B5DCFF"/>
<path d="M4.34609 32.8277H5.14897C5.73031 31.617 6.55803 30.2905 7.72691 29.0843C7.85872 28.6839 8.00666 28.3042 8.16584 27.9434H4.34609C3.70025 27.9434 3.17188 28.4717 3.17188 29.1176V31.6535C3.17188 32.2994 3.70034 32.8277 4.34609 32.8277Z" fill="#7FB3FA"/>
<path d="M5.59616 31.6535V29.1176C5.59616 28.4717 6.12453 27.9434 6.77037 27.9434H4.34609C3.70025 27.9434 3.17188 28.4717 3.17188 29.1176V31.6535C3.17188 32.2994 3.70025 32.8277 4.34609 32.8277H5.14897C5.2925 32.5288 5.45122 32.2228 5.62625 31.9133C5.60722 31.8296 5.59616 31.7429 5.59616 31.6535Z" fill="#64A6F4"/>
<path d="M35.3962 17.5159L34.6964 16.0647C34.0802 15.9106 33.5221 15.7134 33.0421 15.4814C32.7881 15.7225 32.4672 15.8929 32.1094 15.961L33.4222 19.2059C33.5187 19.0139 33.644 18.8345 33.7979 18.6758L34.7415 17.703C34.9212 17.5175 35.1716 17.4608 35.3962 17.5159Z" fill="#695D67"/>
<path d="M18.9907 36.8583L18.4251 36.3867H6.24028L5.82375 36.8583C5.81681 36.9822 5.8125 37.1068 5.8125 37.2324C5.8125 40.8746 8.76506 43.8271 12.4072 43.8271C16.0493 43.8271 19.0018 40.8745 19.0018 37.2324C19.0019 37.1068 18.9976 36.9822 18.9907 36.8583Z" fill="#695D67"/>
<path d="M8.84775 37.2324C8.84775 37.1068 8.85206 36.9822 8.859 36.8583L9.27553 36.3867H6.24028L5.82375 36.8583C5.81681 36.9822 5.8125 37.1068 5.8125 37.2324C5.8125 40.8746 8.76506 43.8271 12.4072 43.8271C12.9297 43.8271 13.4373 43.7645 13.9248 43.6496C11.0146 42.9639 8.84775 40.3521 8.84775 37.2324Z" fill="#544E55"/>
<path d="M45.7793 32.2991L45.0593 32.0107H39.3252L34.9934 34.2815V35.6932C33.9963 39.861 37.1611 43.8276 41.4056 43.8276C47.4837 43.8276 50.2847 36.2961 45.7793 32.2991Z" fill="#695D67"/>
<path d="M40.0638 32.2991L40.7838 32.0107H39.3252L34.9934 34.2815V35.6932C33.9963 39.861 37.1611 43.8276 41.4056 43.8276C41.9371 43.8276 42.4429 43.7688 42.9216 43.6611C37.9261 42.5362 35.9524 35.9466 40.0638 32.2991Z" fill="#544E55"/>
<path d="M41.4076 40.8865C43.4255 40.8865 45.0613 39.2507 45.0613 37.2328C45.0613 35.2149 43.4255 33.5791 41.4076 33.5791C39.3897 33.5791 37.7539 35.2149 37.7539 37.2328C37.7539 39.2507 39.3897 40.8865 41.4076 40.8865Z" fill="#DBEDFF"/>
<path d="M40.7892 37.2329C40.7892 35.7566 41.6652 34.4858 42.9253 33.9094C42.463 33.6979 41.9494 33.5791 41.4077 33.5791C39.3898 33.5791 37.7539 35.2149 37.7539 37.2329C37.7539 39.2508 39.3898 40.8866 41.4077 40.8866C41.9494 40.8866 42.463 40.7678 42.9253 40.5563C41.6653 39.9801 40.7892 38.7092 40.7892 37.2329Z" fill="#B5DCFF"/>
<path d="M16.0425 36.8583L15.7056 36.3867H9.35541L8.77284 36.8583C8.76028 36.9813 8.75391 37.1062 8.75391 37.2324C8.75391 39.2503 10.3897 40.8862 12.4077 40.8862C14.4257 40.8862 16.0615 39.2503 16.0615 37.2324C16.0614 37.1062 16.055 36.9813 16.0425 36.8583Z" fill="#DBEDFF"/>
<path d="M11.7892 37.2324C11.7892 37.1062 11.7956 36.9813 11.8081 36.8583L12.3907 36.3867H9.35541L8.77284 36.8583C8.76028 36.9813 8.75391 37.1062 8.75391 37.2324C8.75391 39.2503 10.3897 40.8862 12.4077 40.8862C12.9494 40.8862 13.463 40.7674 13.9253 40.5559C12.6652 39.9796 11.7892 38.7087 11.7892 37.2324Z" fill="#B5DCFF"/>
<path d="M41.6765 37.9574H41.1345C40.7344 37.9574 40.4102 37.6331 40.4102 37.2331C40.4102 36.8331 40.7344 36.5088 41.1345 36.5088H41.6765C42.0766 36.5088 42.4008 36.8331 42.4008 37.2331C42.4008 37.6331 42.0766 37.9574 41.6765 37.9574Z" fill="#B5DCFF"/>
<path d="M46.7518 30.2302C45.3331 28.749 43.3364 27.8262 41.1235 27.8262C40.4573 27.8262 39.8111 27.9107 39.194 28.068L38.6014 28.2922L35.7734 33.8727L35.9597 34.2812L38.2858 33.0435C38.954 32.688 39.6993 32.502 40.4563 32.502H44.6526C45.4685 32.502 46.1191 32.211 46.622 31.8284C47.1323 31.44 47.1955 30.6932 46.7518 30.2302Z" fill="#51AF5B"/>
<path d="M42.3301 27.9194C41.9368 27.8582 41.5339 27.8262 41.1235 27.8262C40.4573 27.8262 39.8111 27.9107 39.194 28.068L38.6014 28.2922L35.7734 33.8727L35.9597 34.2812L38.2858 33.0435C38.8176 32.7606 39.3986 32.587 39.9951 32.5272L42.3301 27.9194Z" fill="#21714A"/>
<path d="M30.561 33.5133H27.5479C26.733 33.5133 25.9784 33.0823 25.5634 32.3809C23.1652 28.3277 26.1645 25.5671 27.476 24.616C28.0673 24.1873 28.2851 23.2126 27.6441 22.8691L26.978 22.3203H12.5393L11.9312 22.8518C11.3776 23.2371 8.69247 25.2617 7.43359 29.0848L8.24153 29.8552C8.24153 29.8552 14.3093 24.2034 19.1466 28.0425C23.9839 31.8817 18.9973 35.4578 18.9973 35.4578L19.3878 36.8586H29.6166L30.561 36.387L31.2598 34.2813L30.561 33.5133Z" fill="#51AF5B"/>
<path d="M16.1401 22.8518L16.7482 22.3203H12.5393L11.9312 22.8518C11.3776 23.2371 8.69247 25.2617 7.43359 29.0848L8.24153 29.8552C8.24153 29.8552 10.004 28.2143 12.3862 27.3014C13.7484 24.6256 15.68 23.172 16.1401 22.8518Z" fill="#21714A"/>
<path d="M31.707 12.442C31.7499 12.439 31.7926 12.4355 31.8362 12.4355C32.8668 12.4355 33.7022 13.271 33.7022 14.3016C33.7022 14.8345 33.4776 15.3141 33.1193 15.6541C34.2323 16.192 35.763 16.5444 37.4721 16.5997V10.4629C34.8266 10.5486 32.6078 11.3457 31.707 12.442Z" fill="#51AF5B"/>
<path d="M33.704 14.3016C33.704 14.8346 33.4794 15.3141 33.1211 15.6542C34.2341 16.192 35.7648 16.5444 37.4739 16.5997V14.3016C35.9707 14.253 34.6058 13.9744 33.5414 13.542C33.6451 13.7742 33.704 14.0308 33.704 14.3016Z" fill="#21714A"/>
<path d="M34.5907 12.2431C34.2936 12.2431 34.015 12.059 33.9088 11.7633L32.313 7.31777H30.2321C29.8321 7.31777 29.5078 6.99348 29.5078 6.59345C29.5078 6.19342 29.8321 5.86914 30.2321 5.86914H32.8226C33.1283 5.86914 33.4012 6.06105 33.5044 6.34877L35.2723 11.2739C35.4075 11.6504 35.2118 12.0653 34.8352 12.2004C34.7544 12.2293 34.6718 12.2431 34.5907 12.2431Z" fill="#B5DCFF"/>
<path d="M30.0017 8.91585C29.6016 8.91585 29.2773 8.59157 29.2773 8.19154V4.89716C29.2773 4.49713 29.6016 4.17285 30.0017 4.17285C30.4017 4.17285 30.726 4.49713 30.726 4.89716V8.19145C30.726 8.59157 30.4017 8.91585 30.0017 8.91585Z" fill="#DBEDFF"/>
<path d="M17.8458 25.377L17.8456 25.3771L17.1256 25.4038C12.5264 26.2509 9.82805 28.8968 8.26561 31.4337L8.45911 31.8211L7.45017 33.9821L6.91477 34.2224C6.78586 34.5715 6.67842 34.8988 6.58992 35.1954C6.34233 36.0251 6.96539 36.8582 7.83117 36.8582H19.3878C20.1978 36.8582 20.9463 36.4069 21.3064 35.6813C21.8332 34.6197 22.1712 33.5731 22.3749 32.5787C23.0595 29.2376 20.9163 26.1501 17.8458 25.377Z" fill="#3C8744"/>
<path d="M7.17024 35.1951C7.25884 34.8985 7.36627 34.5712 7.49509 34.2221L8.03049 33.9818L9.03943 31.8209L8.84593 31.4334C10.4244 28.8705 13.1607 26.1952 17.8465 25.3769C17.1582 25.2035 16.4235 25.146 15.6632 25.2286C10.3323 25.8072 7.30965 28.6854 5.61718 31.4335L5.81068 31.821L4.80174 33.9819L4.26634 34.2222C4.13743 34.5713 4.02999 34.8986 3.94149 35.1952C3.6939 36.0249 4.31687 36.8581 5.18274 36.8581H8.41149C7.54571 36.8581 6.92265 36.0248 7.17024 35.1951Z" fill="#51AF5B"/>
<path d="M4.26562 34.2224H9.14025C9.59325 34.2224 9.96384 33.8518 9.96384 33.3988V32.2572C9.96384 31.8042 9.59325 31.4336 9.14025 31.4336H5.61637C5.01066 32.4171 4.57519 33.3837 4.26562 34.2224Z" fill="#51AF5B"/>
<path d="M5.61647 31.4336C5.01075 32.4171 4.57528 33.3836 4.26562 34.2224H7.49438C7.80403 33.3836 8.2395 32.4171 8.84522 31.4336H5.61647Z" fill="#21714A"/>
<path d="M18.4254 33.5521H12.6032C12.2032 33.5521 11.8789 33.2279 11.8789 32.8278C11.8789 32.4278 12.2032 32.1035 12.6032 32.1035H18.4254C18.8254 32.1035 19.1497 32.4278 19.1497 32.8278C19.1497 33.2279 18.8254 33.5521 18.4254 33.5521Z" fill="#51AF5B"/>
<path d="M28.1746 20.3493L27.2986 19.8289C26.3596 19.2711 25.2228 19.1851 24.1966 19.5588C23.7971 19.7044 23.2999 19.8107 22.7002 19.8107C21.4139 19.8107 18.4604 19.3216 16.6863 19.0054C15.1911 18.739 13.636 19.1363 12.502 20.1466C12.0121 20.583 11.59 21.1401 11.3754 21.8432C11.2181 22.3587 11.6025 22.8801 12.1413 22.8801H27.4797C28.2313 22.8801 28.8405 22.2708 28.8405 21.5193C28.8405 21.0392 28.5874 20.5945 28.1746 20.3493Z" fill="#695D67"/>
<path d="M15.5472 21.8434C15.7617 21.1402 16.1839 20.5831 16.6738 20.1467C17.1103 19.7578 17.6095 19.4607 18.1434 19.2563C17.6156 19.1689 17.1162 19.082 16.6863 19.0054C15.1911 18.739 13.636 19.1362 12.502 20.1466C12.0121 20.583 11.59 21.1401 11.3754 21.8433C11.2181 22.3587 11.6025 22.8801 12.1413 22.8801H16.3131C15.7741 22.8803 15.3899 22.3588 15.5472 21.8434Z" fill="#544E55"/>
<path d="M39.2419 24.7762L35.711 17.6481C35.5013 17.2249 34.9359 17.1364 34.607 17.4755L33.6634 18.4482C33.1365 18.9915 32.9347 19.7723 33.1326 20.5029L33.8565 23.1754C34.2437 24.605 34.1045 26.126 33.4642 27.4615L29.2389 36.2757C29.238 36.2778 29.2369 36.2798 29.236 36.2818C29.1107 36.551 29.322 36.8583 29.619 36.8583H32.074C33.5499 36.8583 34.9431 36.0987 35.6768 34.8181C35.7065 34.7661 35.7353 34.7135 35.7632 34.66L39.2093 28.04C39.7404 27.0197 39.7525 25.807 39.2419 24.7762Z" fill="#3C8744"/>
<path d="M31.9659 36.2818C31.9668 36.2797 31.9678 36.2778 31.9688 36.2757L36.1941 27.4615C36.8343 26.126 36.9736 24.6049 36.5863 23.1754L35.8624 20.5029C35.6891 19.8629 35.8225 19.1842 36.2126 18.6606L35.711 17.6481C35.5013 17.2249 34.9359 17.1364 34.607 17.4755L33.6635 18.4482C33.1365 18.9915 32.9348 19.7723 33.1326 20.5029L33.8565 23.1754C34.2437 24.605 34.1045 26.126 33.4642 27.4615L29.2389 36.2757C29.2379 36.2778 29.2369 36.2798 29.236 36.2818C29.1107 36.5511 29.322 36.8583 29.619 36.8583H32.074C32.1424 36.8583 32.2105 36.855 32.2786 36.8517C32.02 36.8079 31.8508 36.5292 31.9659 36.2818Z" fill="#51AF5B"/>
<path d="M10.7158 12.7812H7.88169L7.43347 13.2175H4.92237L4.53275 12.7812H1.69859C1.35528 12.7812 1.07422 13.0622 1.07422 13.4056V22.5194C1.07422 22.8628 1.35519 23.1439 1.69859 23.1439H10.7158C11.0592 23.1439 11.3402 22.8629 11.3402 22.5194V13.4056C11.3402 13.0622 11.0592 12.7812 10.7158 12.7812Z" fill="#FBC481"/>
<path d="M10.7158 12.7812H7.88169L7.43347 13.2175H4.92237L4.53275 12.7812H1.69859C1.35528 12.7812 1.07422 13.0622 1.07422 13.4056V22.5194C1.07422 22.8628 1.35519 23.1439 1.69859 23.1439H10.7158C11.0592 23.1439 11.3402 22.8629 11.3402 22.5194V13.4056C11.3402 13.0622 11.0592 12.7812 10.7158 12.7812Z" fill="#FBC481"/>
<path d="M4.83144 22.5194V13.4056C4.83144 13.3218 4.84841 13.2418 4.87869 13.1686L4.53266 12.7812H1.69859C1.35528 12.7812 1.07422 13.0622 1.07422 13.4056V22.5194C1.07422 22.8628 1.35519 23.1439 1.69859 23.1439H5.45591C5.1125 23.1439 4.83144 22.8628 4.83144 22.5194Z" fill="#DD9973"/>
<path d="M4.53516 12.7812V15.9266C4.53516 16.0386 4.62684 16.1303 4.73878 16.1303H7.68047C7.7925 16.1303 7.88409 16.0387 7.88409 15.9266V12.7812H4.53516Z" fill="#D6865F"/>
<path d="M6.32184 15.9266V12.7812H4.53516V15.9266C4.53516 16.0386 4.62684 16.1303 4.73878 16.1303H6.52556C6.41353 16.1303 6.32184 16.0386 6.32184 15.9266Z" fill="#B97359"/>
<path d="M31.8377 12.3389C30.7555 12.3389 29.875 13.2193 29.875 14.3015C29.875 15.3837 30.7554 16.2641 31.8377 16.2641C32.9198 16.2641 33.8002 15.3837 33.8002 14.3015C33.8002 13.2194 32.9198 12.3389 31.8377 12.3389Z" fill="#3C8744"/>
<path d="M31.8377 14.2051C31.8377 13.5152 32.1963 12.9086 32.7361 12.5585C32.4665 12.419 32.1616 12.3389 31.8377 12.3389C30.7555 12.3389 29.875 13.2193 29.875 14.3015C29.875 15.3837 30.7554 16.2641 31.8377 16.2641C32.23 16.2641 32.5949 16.1472 32.9019 15.9481C32.2708 15.6214 31.8377 14.9635 31.8377 14.2051Z" fill="#51AF5B"/>
<path d="M37.4704 17.6113C37.0704 17.6113 36.7461 17.287 36.7461 16.887V10.1765C36.7461 9.77643 37.0704 9.45215 37.4704 9.45215C37.8704 9.45215 38.1947 9.77643 38.1947 10.1765V16.887C38.1948 17.287 37.8705 17.6113 37.4704 17.6113Z" fill="#F9948A"/>
</svg>
