<svg width="20" height="20" viewBox="0 0 20 20" fill="none" xmlns="http://www.w3.org/2000/svg">
<path d="M14.5538 19.7524C14.0948 19.7524 13.6328 19.6904 13.1768 19.5654C7.01182 17.8734 2.1308 12.9954 0.437804 6.83441C0.0528037 5.43341 0.263751 3.97341 1.03375 2.72541C1.80675 1.47141 3.07781 0.586403 4.52081 0.298403C5.48081 0.106403 6.42981 0.53441 6.91681 1.35541L8.4798 3.99539C9.2388 5.27739 8.86166 6.9284 7.62067 7.7544L6.48981 8.50641C7.54681 10.6764 9.32465 12.4594 11.4857 13.5154L12.2479 12.3784C13.0789 11.1394 14.7298 10.7684 16.0108 11.5314L18.6539 13.1074C19.4719 13.5954 19.8948 14.5504 19.7088 15.4824C19.4208 16.9254 18.5358 18.1964 17.2828 18.9694C16.4408 19.4874 15.5038 19.7524 14.5538 19.7524ZM4.9798 1.7504C4.9308 1.7504 4.88082 1.75541 4.83282 1.76541C3.77882 1.97641 2.86583 2.61139 2.31183 3.51239C1.76283 4.40239 1.6118 5.4414 1.8858 6.4364C3.4388 12.0894 7.91779 16.5664 13.5738 18.1184C14.5698 18.3914 15.6057 18.2394 16.4947 17.6914C17.3947 17.1364 18.0309 16.2224 18.2379 15.1864C18.2999 14.8754 18.1588 14.5564 17.8848 14.3934L15.2427 12.8174C14.6477 12.4634 13.8797 12.6364 13.4937 13.2114L12.3787 14.8764C12.1787 15.1744 11.7929 15.2884 11.4669 15.1504C8.50386 13.9114 6.09284 11.4954 4.85284 8.5214C4.71484 8.1894 4.8307 7.8074 5.1297 7.6084L6.79083 6.50339C7.36683 6.12039 7.54178 5.35339 7.18878 4.75839L5.62579 2.11939C5.48879 1.88739 5.2408 1.7504 4.9798 1.7504Z" fill="#51AF5B"/>
</svg>
