<svg width="49" height="48" viewBox="0 0 49 48" fill="none" xmlns="http://www.w3.org/2000/svg">
<g clip-path="url(#clip0_776_38321)">
<path d="M44.4927 25.6837L41.4205 21.4734L44.4899 17.264C44.6343 17.0662 44.6727 16.8102 44.5939 16.5787C44.5152 16.3471 44.3277 16.168 44.0924 16.1005L34.3049 13.273C34.5824 12.3393 34.7324 11.3521 34.7324 10.3293C34.7324 4.63305 30.0983 -0.00195312 24.4011 -0.00195312C18.7039 -0.00195312 14.0699 4.63211 14.0699 10.3293C14.0699 11.3512 14.2199 12.3393 14.4974 13.2721L4.70613 16.1005C4.47082 16.169 4.28332 16.3471 4.20363 16.5787C4.12394 16.8102 4.16332 17.0662 4.30769 17.264L7.38082 21.4743L4.3105 25.6827C4.16613 25.8805 4.12769 26.1365 4.20644 26.368C4.28519 26.5996 4.47269 26.7787 4.708 26.8462L7.55894 27.6702L7.55613 41.8143C7.55613 42.1368 7.76144 42.4227 8.06707 42.5259L24.1611 47.9605C24.2389 47.9868 24.3205 47.9999 24.4011 47.9999C24.4818 47.9999 24.5633 47.9868 24.6411 47.9605L40.7352 42.5259C41.0408 42.4227 41.2461 42.1368 41.2461 41.8143L41.2433 27.6702L44.0943 26.8462C44.3296 26.7777 44.5171 26.5996 44.5958 26.368C44.6746 26.1365 44.6371 25.8815 44.4927 25.6837ZM42.6449 17.2462L40.1933 20.608L31.2796 18.0309C32.3211 17.0999 33.1724 15.9618 33.7696 14.6812L42.6449 17.2462ZM24.4011 25.3415L11.0164 21.4743L19.0368 19.1549C20.6014 20.1093 22.438 20.6596 24.4011 20.6596C26.3643 20.6596 28.2008 20.1093 29.7646 19.1549L37.7849 21.4734L24.4011 25.3415ZM24.4011 1.49992C29.2696 1.49992 33.2305 5.46086 33.2305 10.3293C33.2305 15.1977 29.2696 19.1587 24.4011 19.1587C19.5327 19.1587 15.5718 15.1977 15.5718 10.3293C15.5718 5.46086 19.5327 1.49992 24.4011 1.49992ZM15.0327 14.6812C15.6299 15.9618 16.4811 17.0999 17.5227 18.0309L8.60707 20.609L6.15269 17.2462L15.0327 14.6812ZM8.60707 22.3415L23.1627 26.5471L20.7102 29.909L8.53676 26.3905C8.53394 26.3896 8.53019 26.3887 8.52738 26.3877L6.1555 25.7024L8.60707 22.3415ZM9.06082 28.1052L20.7993 31.498C20.8686 31.5177 20.938 31.528 21.0074 31.528C21.2427 31.528 21.4705 31.4165 21.6139 31.2196L23.6502 28.4277V46.2055L9.05894 41.2771L9.06082 28.1052ZM39.7443 41.2771L25.1521 46.2046V28.4268L27.1883 31.2187C27.3739 31.4737 27.7002 31.5852 28.003 31.4971L39.7414 28.1043L39.7443 41.2771ZM40.2758 26.3877C40.273 26.3887 40.2693 26.3896 40.2664 26.3905L28.0921 29.909L25.6396 26.5471L40.1952 22.3415L42.6477 25.7024L40.2758 26.3877ZM30.6889 9.89336L31.8983 11.5865C32.1393 11.924 32.0614 12.3927 31.7239 12.6337C31.5918 12.7284 31.4389 12.7734 31.288 12.7734C31.0536 12.7734 30.823 12.6637 30.6768 12.4593L30.5352 12.2615C29.7139 14.8809 27.2708 16.7596 24.4021 16.7596C21.8661 16.7596 19.5589 15.2624 18.5258 12.9449C18.3571 12.5662 18.5268 12.1227 18.9055 11.954C19.2843 11.7852 19.7277 11.9559 19.8974 12.3337C20.6896 14.1102 22.4577 15.2587 24.4021 15.2587C26.5349 15.2587 28.3611 13.904 29.0436 11.9915L28.8243 12.148C28.4868 12.389 28.018 12.3112 27.7771 11.9727C27.5361 11.6352 27.6149 11.1665 27.9524 10.9255L29.6427 9.71898C29.9793 9.47805 30.448 9.55586 30.6889 9.89336ZM18.1114 10.7652L16.9049 9.07211C16.6639 8.73461 16.7427 8.26586 17.0802 8.02492C17.4177 7.78398 17.8864 7.86273 18.1274 8.20023L18.2652 8.3943C19.0827 5.77305 21.5164 3.89992 24.4011 3.89992C26.9389 3.89992 29.2443 5.39805 30.2746 7.71555C30.4433 8.0943 30.2727 8.53773 29.893 8.70648C29.5143 8.87523 29.0708 8.70461 28.9021 8.32492C28.1127 6.54836 26.3455 5.40086 24.4011 5.40086C22.2543 5.40086 20.4327 6.75367 19.7549 8.67086L19.9789 8.51148C20.3164 8.27055 20.7852 8.3493 21.0261 8.6868C21.2671 9.0243 21.1883 9.49305 20.8508 9.73398L19.1577 10.9405C19.0293 11.0315 18.8774 11.0802 18.7218 11.0802C18.6805 11.0802 18.6393 11.0765 18.5971 11.0699C18.4021 11.0371 18.2268 10.9274 18.1114 10.7652Z" fill="#275BA6"/>
</g>
<defs>
<clipPath id="clip0_776_38321">
<rect width="48" height="48" fill="white" transform="translate(0.400391)"/>
</clipPath>
</defs>
</svg>
