<svg width="48" height="48" viewBox="0 0 48 48" fill="none" xmlns="http://www.w3.org/2000/svg">
<path d="M38.6672 10.2744L36.1073 13.7841L34.7601 12.8009L33.4336 11.8341L35.9935 8.32436C36.3937 7.77498 37.1647 7.65395 37.7149 8.05511L38.398 8.55301C38.6275 8.72111 38.783 8.95239 38.8553 9.20626C38.9572 9.55961 38.9003 9.95448 38.6672 10.2744Z" fill="#29522E"/>
<path d="M38.6688 10.274L36.1089 13.7837L34.7617 12.8006L37.1699 9.49881C37.562 8.96125 38.3093 8.83375 38.8569 9.20603C38.9589 9.55928 38.902 9.95416 38.6688 10.274Z" fill="#2E6734"/>
<path d="M27.2621 8.66506V2.47727C27.2621 2.47643 27.2617 2.47559 27.2611 2.47559H20.7383V8.66506" fill="#29522E"/>
<path d="M14.6122 11.8071L13.2071 12.8255L11.9321 13.75L9.38306 10.2323C8.98368 9.68103 9.10649 8.91125 9.65774 8.51178L10.3427 8.01575C10.5135 7.8919 10.7042 7.81878 10.8993 7.79262C11.3339 7.733 11.7876 7.90915 12.0631 8.28959L14.6122 11.8071Z" fill="#29522E"/>
<path d="M14.6124 11.8063L13.2073 12.8247L10.7387 9.41812C10.3682 8.90755 10.4468 8.20818 10.8996 7.79165C11.3342 7.73202 11.7878 7.90818 12.0634 8.28862L14.6124 11.8063Z" fill="#2E6734"/>
<path d="M44.4204 27.578C44.4204 38.4928 35.8577 47.4078 25.0841 47.9717C24.7254 47.9898 24.3639 47.9997 23.9998 47.9997C12.7208 47.9997 3.57812 38.857 3.57812 27.578C3.57812 16.3 12.7208 7.15723 23.9998 7.15723C24.3639 7.15723 24.7254 7.16716 25.0841 7.18526C35.8577 7.74916 44.4204 16.6642 44.4204 27.578Z" fill="#29522E"/>
<path d="M44.4197 27.5783C44.4197 38.4931 35.8571 47.4081 25.0834 47.972C14.3087 47.4081 5.74609 38.4931 5.74609 27.5783C5.74609 16.6645 14.3087 7.74945 25.0834 7.18555C35.8571 7.74945 44.4197 16.6645 44.4197 27.5783Z" fill="#2E6734"/>
<path d="M39.9965 27.5787C39.9965 36.414 32.834 43.5776 23.9987 43.5776C23.4096 43.5776 22.8283 43.5454 22.2568 43.4832C14.2405 42.6155 8 35.8259 8 27.5788C8 19.3317 14.2404 12.543 22.2568 11.6755C22.8284 11.6131 23.4097 11.5811 23.9987 11.5811C32.834 11.581 39.9965 18.7435 39.9965 27.5787Z" fill="#F2F2F2"/>
<path d="M36.5128 27.5782C36.5128 35.8254 30.2725 42.615 22.2569 43.4825C14.2406 42.6149 8 35.8254 8 27.5782C8 19.331 14.2404 12.5424 22.2568 11.6748C30.2725 12.5425 36.5128 19.331 36.5128 27.5782Z" fill="#DBDBDB"/>
<path d="M24.0003 27.1124C23.5945 27.1124 23.2656 26.7834 23.2656 26.3776V17.9134C23.2656 17.5077 23.5945 17.1787 24.0003 17.1787C24.4062 17.1787 24.7351 17.5077 24.7351 17.9134V26.3776C24.7351 26.7835 24.4062 27.1124 24.0003 27.1124Z" fill="#ED3B3B"/>
<path d="M23.9985 44.3115C14.7719 44.3115 7.26562 36.8052 7.26562 27.5786C7.26562 18.352 14.772 10.8457 23.9985 10.8457C33.225 10.8457 40.7314 18.352 40.7314 27.5786C40.7314 36.8052 33.225 44.3115 23.9985 44.3115ZM23.9985 12.315C15.5821 12.315 8.73497 19.1621 8.73497 27.5785C8.73497 35.9949 15.5821 42.842 23.9985 42.842C32.4149 42.842 39.262 35.9949 39.262 27.5785C39.262 19.1621 32.4149 12.315 23.9985 12.315Z" fill="#29522E"/>
<path d="M27.3533 27.578C27.3533 29.0074 26.4584 30.2284 25.1995 30.7104C24.8265 30.8535 24.4214 30.9324 23.9989 30.9324C22.146 30.9324 20.6445 29.431 20.6445 27.578C20.6445 25.725 22.1459 24.2236 23.9989 24.2236C24.4215 24.2236 24.8265 24.3025 25.1995 24.4456C26.4584 24.9276 27.3533 26.1487 27.3533 27.578Z" fill="#29522E"/>
<path d="M27.3545 27.5787C27.3545 29.0081 26.4597 30.2291 25.2007 30.711C23.9417 30.2291 23.0469 29.008 23.0469 27.5787C23.0469 26.1494 23.9417 24.9283 25.2007 24.4463C26.4597 24.9283 27.3545 26.1494 27.3545 27.5787Z" fill="#2E6734"/>
<path d="M24.0003 15.0166C23.5945 15.0166 23.2656 14.6876 23.2656 14.2818V13.3783C23.2656 12.9725 23.5945 12.6436 24.0003 12.6436C24.4062 12.6436 24.7351 12.9725 24.7351 13.3783V14.2818C24.7351 14.6876 24.4062 15.0166 24.0003 15.0166Z" fill="#5A5C60"/>
<path d="M24.0003 42.5126C23.5945 42.5126 23.2656 42.1837 23.2656 41.7779V40.8744C23.2656 40.4686 23.5945 40.1396 24.0003 40.1396C24.4062 40.1396 24.7351 40.4686 24.7351 40.8744V41.7779C24.7351 42.1837 24.4062 42.5126 24.0003 42.5126Z" fill="#5A5C60"/>
<path d="M17.3552 16.7981C17.1014 16.7981 16.8543 16.6664 16.7183 16.4307L16.2665 15.648C16.0636 15.2967 16.184 14.8473 16.5354 14.6445C16.8866 14.4416 17.3362 14.562 17.539 14.9133L17.9908 15.696C18.1936 16.0473 18.0733 16.4967 17.7219 16.6995C17.6062 16.7664 17.4798 16.7981 17.3552 16.7981Z" fill="#5A5C60"/>
<path d="M31.1013 40.6106C30.8475 40.6106 30.6004 40.4789 30.4644 40.2432L30.0126 39.4605C29.8097 39.1092 29.9301 38.6598 30.2815 38.457C30.6327 38.2541 31.0823 38.3745 31.2851 38.7258L31.7369 39.5085C31.9397 39.8598 31.8194 40.3092 31.468 40.512C31.3525 40.5789 31.2261 40.6106 31.1013 40.6106Z" fill="#5A5C60"/>
<path d="M12.4855 21.6645C12.3609 21.6645 12.2345 21.6328 12.1188 21.566L11.3362 21.1142C10.9848 20.9114 10.8644 20.462 11.0673 20.1106C11.2701 19.7593 11.7192 19.6388 12.0709 19.8418L12.8535 20.2935C13.2049 20.4964 13.3253 20.9458 13.1224 21.2971C12.9865 21.5327 12.7393 21.6645 12.4855 21.6645Z" fill="#5A5C60"/>
<path d="M36.2979 35.4126C36.1733 35.4126 36.0468 35.3808 35.9312 35.3141L35.1487 34.8623C34.7973 34.6594 34.6769 34.2101 34.8798 33.8587C35.0827 33.5072 35.5321 33.3869 35.8834 33.5898L36.6659 34.0416C37.0173 34.2445 37.1377 34.6938 36.9348 35.0452C36.7988 35.2808 36.5517 35.4126 36.2979 35.4126Z" fill="#5A5C60"/>
<path d="M10.7047 28.3132H9.80113C9.39528 28.3132 9.06641 27.9842 9.06641 27.5785C9.06641 27.1727 9.39528 26.8438 9.80113 26.8438H10.7047C11.1105 26.8438 11.4394 27.1727 11.4394 27.5785C11.4394 27.9842 11.1104 28.3132 10.7047 28.3132Z" fill="#5A5C60"/>
<path d="M38.2009 28.3132H37.2972C36.8914 28.3132 36.5625 27.9842 36.5625 27.5785C36.5625 27.1727 36.8914 26.8438 37.2972 26.8438H38.2009C38.6067 26.8438 38.9356 27.1727 38.9356 27.5785C38.9356 27.9842 38.6067 28.3132 38.2009 28.3132Z" fill="#5A5C60"/>
<path d="M11.7042 35.4135C11.4504 35.4135 11.2033 35.2818 11.0673 35.0461C10.8644 34.6947 10.9848 34.2454 11.3362 34.0425L12.1188 33.5907C12.4703 33.3879 12.9196 33.5082 13.1224 33.8596C13.3253 34.211 13.2049 34.6603 12.8535 34.8632L12.0709 35.315C11.9551 35.3817 11.8288 35.4135 11.7042 35.4135Z" fill="#5A5C60"/>
<path d="M35.5167 21.6645C35.2629 21.6645 35.016 21.5327 34.8798 21.2971C34.6769 20.9457 34.7973 20.4963 35.1487 20.2935L35.9312 19.8417C36.2825 19.6389 36.7318 19.7592 36.9348 20.1106C37.1377 20.4619 37.0173 20.9113 36.6659 21.1141L35.8834 21.5659C35.7677 21.6326 35.6413 21.6645 35.5167 21.6645Z" fill="#5A5C60"/>
<path d="M16.9021 40.6106C16.7775 40.6106 16.6511 40.5788 16.5354 40.5121C16.184 40.3092 16.0636 39.8599 16.2665 39.5085L16.7183 38.7259C16.9211 38.3745 17.3703 38.254 17.7219 38.457C18.0733 38.6599 18.1937 39.1092 17.9908 39.4606L17.539 40.2432C17.4029 40.4789 17.1558 40.6106 16.9021 40.6106Z" fill="#5A5C60"/>
<path d="M30.6481 16.7981C30.5236 16.7981 30.3972 16.7663 30.2815 16.6996C29.9301 16.4967 29.8097 16.0474 30.0126 15.696L30.4644 14.9134C30.6672 14.562 31.1164 14.4415 31.468 14.6445C31.8194 14.8474 31.9397 15.2967 31.7369 15.6481L31.2851 16.4307C31.1491 16.6663 30.902 16.7981 30.6481 16.7981Z" fill="#5A5C60"/>
<path d="M30.6623 1.45369V2.26969C30.6623 3.072 30.0118 3.72337 29.2086 3.72337H18.7935C17.9903 3.72337 17.3398 3.07191 17.3398 2.26969V1.45369C17.3398 0.651469 17.9903 0 18.7935 0H29.2086C30.0118 0 30.6623 0.651469 30.6623 1.45369Z" fill="#29522E"/>
<path d="M30.6627 1.45369V2.26969C30.6627 3.072 30.0123 3.72337 29.209 3.72337H22.4185C21.6153 3.72337 20.9648 3.07191 20.9648 2.26969V1.45369C20.9648 0.651469 21.6152 0 22.4185 0H29.209C30.0123 0 30.6627 0.651469 30.6627 1.45369Z" fill="#2E6734"/>
</svg>
