<svg width="49" height="48" viewBox="0 0 49 48" fill="none" xmlns="http://www.w3.org/2000/svg">
<path fill-rule="evenodd" clip-rule="evenodd" d="M34.4014 13.6425H25.7445C24.9748 13.6425 24.3486 14.2688 24.3486 15.0384V17.7919H15.0673C14.2583 17.7919 13.6002 18.45 13.6002 19.2591V28.1644C13.6002 28.9734 14.2583 29.6316 15.0673 29.6316H21.972L26.8855 34.2075C26.9914 34.3069 27.1292 34.3584 27.2689 34.3584C27.3448 34.3584 27.4208 34.3434 27.493 34.3116C27.6983 34.2225 27.8314 34.02 27.8314 33.7959V29.6316H28.0077C28.8167 29.6316 29.4748 28.9734 29.4748 28.1644V22.3688L30.0073 21.8428H34.4014C35.1711 21.8428 35.7973 21.2166 35.7973 20.4469V15.0384C35.7973 14.2688 35.1711 13.6425 34.4014 13.6425ZM28.3508 28.1634C28.3508 28.3491 28.1942 28.5056 28.0086 28.5056H27.2698C26.9595 28.5056 26.7073 28.7578 26.7073 29.0681V32.5022L22.5777 28.6566C22.4736 28.56 22.3367 28.5056 22.1942 28.5056H15.0683C14.8827 28.5056 14.7261 28.3491 14.7261 28.1634V19.2581C14.7261 19.0725 14.8827 18.9159 15.0683 18.9159H24.3495V20.4459C24.3495 21.2156 24.9758 21.8419 25.7455 21.8419H25.8561V24.6009C25.8561 24.8278 25.992 25.0322 26.202 25.1203C26.2723 25.1494 26.3455 25.1634 26.4186 25.1634C26.5639 25.1634 26.7064 25.1072 26.8142 25.0012L28.3517 23.4816V28.1634H28.3508ZM34.6723 20.4469C34.6723 20.5941 34.5486 20.7178 34.4014 20.7178H29.7767C29.6286 20.7178 29.4861 20.7759 29.3811 20.88L26.9792 23.2537V21.2794C26.9792 20.9691 26.727 20.7169 26.4167 20.7169H25.7436C25.5964 20.7169 25.4727 20.5931 25.4727 20.4459V15.0375C25.4727 14.8903 25.5964 14.7666 25.7436 14.7666H34.4005C34.5477 14.7666 34.6714 14.8903 34.6714 15.0375V20.4469H34.6723ZM44.5217 21.645V21.3281C44.5217 16.0256 42.4442 11.0278 38.6727 7.25531C34.9002 3.48375 29.9023 1.40625 24.5998 1.40625C19.2973 1.40625 14.2995 3.48375 10.527 7.25531C6.75547 11.0278 4.67797 16.0256 4.67797 21.3281V21.645C3.21172 21.9487 2.10547 23.25 2.10547 24.8053V35.8697C2.10547 37.4372 3.22859 38.7459 4.71172 39.0366C4.88047 40.9031 5.70359 42.6366 7.06297 43.9603C8.54328 45.4022 10.4923 46.1963 12.5511 46.1963H20.5977C20.9023 46.4447 21.2895 46.5938 21.7123 46.5938H27.4873C28.4614 46.5938 29.2545 45.8006 29.2545 44.8266V42.8541C29.2545 41.88 28.4614 41.0869 27.4873 41.0869H21.7123C21.087 41.0869 20.5377 41.4141 20.2236 41.9053H12.5511C10.8448 41.9053 9.40859 40.7119 9.05328 39.0966H10.9414C11.2517 39.0966 11.5039 38.8444 11.5039 38.5341V22.14C11.5039 21.8297 11.2517 21.5775 10.9414 21.5775H8.96891V21.3272C8.96891 12.7078 15.9814 5.69625 24.5998 5.69625C33.2192 5.69625 40.2308 12.7088 40.2308 21.3272V21.5775H38.2583C37.948 21.5775 37.6958 21.8297 37.6958 22.14V38.535C37.6958 38.8453 37.948 39.0975 38.2583 39.0975H43.8664C45.6458 39.0975 47.0942 37.65 47.0942 35.8697V24.8053C47.0942 23.25 45.988 21.9487 44.5217 21.645ZM21.0702 42.8541C21.0702 42.4997 21.358 42.2119 21.7123 42.2119H27.4873C27.8417 42.2119 28.1295 42.4997 28.1295 42.8541V44.8266C28.1295 45.1809 27.8417 45.4688 27.4873 45.4688H21.7123C21.358 45.4688 21.0702 45.1809 21.0702 44.8266V42.8541ZM12.552 43.0312H19.9461V44.8275C19.9461 44.9109 19.9536 44.9916 19.9648 45.0722H12.552C9.13109 45.0712 6.23984 42.4406 5.84984 39.0975H7.90859C8.27984 41.3419 10.2242 43.0312 12.552 43.0312ZM10.3789 37.9725H5.33328C4.17359 37.9725 3.23047 37.0294 3.23047 35.8697V24.8053C3.23047 23.6456 4.17359 22.7025 5.33328 22.7025H10.3789V37.9725ZM36.4339 9.49312C33.2605 6.31969 29.0577 4.57125 24.5998 4.57125C20.142 4.57125 15.9392 6.31875 12.7658 9.49312C9.59234 12.6666 7.84391 16.8694 7.84391 21.3272V21.5775H5.80297V21.3272C5.80297 10.9631 14.2348 2.53125 24.5998 2.53125C34.9648 2.53125 43.3967 10.9631 43.3967 21.3281V21.5784H41.3558V21.3281C41.3558 16.8703 39.6083 12.6675 36.4339 9.49312ZM45.9692 35.8697C45.9692 37.0294 45.0261 37.9725 43.8664 37.9725H38.8208V22.7025H43.8664C45.0261 22.7025 45.9692 23.6456 45.9692 24.8053V35.8697ZM19.0039 23.7113C19.0039 24.0216 18.7517 24.2738 18.4414 24.2738H18.3964C18.0861 24.2738 17.8339 24.0216 17.8339 23.7113C17.8339 23.4009 18.0861 23.1488 18.3964 23.1488H18.4414C18.7517 23.1488 19.0039 23.4009 19.0039 23.7113ZM22.1239 23.7113C22.1239 24.0216 21.8717 24.2738 21.5614 24.2738H21.5164C21.2061 24.2738 20.9539 24.0216 20.9539 23.7113C20.9539 23.4009 21.2061 23.1488 21.5164 23.1488H21.5614C21.8717 23.1488 22.1239 23.4009 22.1239 23.7113ZM25.243 23.7113C25.243 24.0216 24.9908 24.2738 24.6805 24.2738H24.6355C24.3252 24.2738 24.073 24.0216 24.073 23.7113C24.073 23.4009 24.3252 23.1488 24.6355 23.1488H24.6805C24.9917 23.1488 25.243 23.4009 25.243 23.7113ZM28.1192 17.7422C28.1192 18.0525 27.867 18.3047 27.5567 18.3047H27.5286C27.2183 18.3047 26.9661 18.0525 26.9661 17.7422C26.9661 17.4319 27.2183 17.1797 27.5286 17.1797H27.5567C27.867 17.1797 28.1192 17.4319 28.1192 17.7422ZM30.6495 17.7422C30.6495 18.0525 30.3973 18.3047 30.087 18.3047H30.0589C29.7486 18.3047 29.4964 18.0525 29.4964 17.7422C29.4964 17.4319 29.7486 17.1797 30.0589 17.1797H30.087C30.3983 17.1797 30.6495 17.4319 30.6495 17.7422ZM33.1808 17.7422C33.1808 18.0525 32.9286 18.3047 32.6183 18.3047H32.5902C32.2798 18.3047 32.0277 18.0525 32.0277 17.7422C32.0277 17.4319 32.2798 17.1797 32.5902 17.1797H32.6183C32.9295 17.1797 33.1808 17.4319 33.1808 17.7422Z" fill="#275BA6"/>
</svg>
